<?xml version="1.0" standalone="no"?>
<!DOCTYPE svg PUBLIC "-//W3C//DTD SVG 1.1//EN" "http://www.w3.org/Graphics/SVG/1.1/DTD/svg11.dtd" >
<svg xmlns="http://www.w3.org/2000/svg" xmlns:xlink="http://www.w3.org/1999/xlink" version="1.1">
<metadata>
Created by FontForge 20170731 at Thu Jul  1 07:21:24 2021
 By Aleksey,,,
Retro Signature
</metadata>
<defs>
<font id="RetroSignatureRegular" horiz-adv-x="450" >
  <font-face 
    font-family="Retro Signature"
    font-weight="400"
    font-stretch="normal"
    units-per-em="2048"
    panose-1="0 0 0 0 0 0 0 0 0 0"
    ascent="1638"
    descent="-410"
    x-height="671.5"
    cap-height="1456"
    bbox="-520.41 -151.385 2384 1687.47"
    underline-thickness="0"
    underline-position="0"
    unicode-range="U+000A-FB00"
  />
<missing-glyph horiz-adv-x="1079" 
d="M102 1434h875v-1434h-875v1434zM160 1393l379 -633l381 633h-760zM514 717l-369 614v-1231zM541 674l-379 -631h758zM565 717l371 -621v1239z" />
    <glyph glyph-name="ll.liga" unicode="ll" horiz-adv-x="907" 
d="M776 1108l2 6q49 41 78 41h12q73 -15 -18 -170q-51 -87 -133.5 -179.5t-175.5 -166.5q-42 -34 -56 -49.5t-20 -34.5q-12 -34 -19.5 -84t-3.5 -70q7 -38 28.5 -46.5t64.5 10.5q56 22 101.5 52.5t151.5 117.5q85 69 144 112q24 17 33.5 8.5t-13.5 -28.5q-6 -5 -29.5 -27.5
t-43.5 -40.5q-152 -130 -224 -174q-151 -91 -217 -57q-29 15 -38.5 41t-6.5 86q3 71 -4 67q-1 -1 -9.5 -6t-23.5 -14t-28 -17q-62 -36 -111 -55q-36 -15 -55 -18.5t-56 -3.5q-56 0 -75 12q-46 29 -47.5 87.5t41.5 158.5q38 93 106.5 190t138.5 158q52 45 87 59.5t67 3.5
q15 -4 20.5 -27t-2.5 -49q-26 -92 -140.5 -199t-211.5 -130q-9 -3 -26.5 -44t-26.5 -81q-16 -71 16 -96q31 -26 118 3.5t196 102.5q35 23 45 35t30 57q56 123 153.5 257.5t180.5 201.5zM856 1114l-2 2q-5 0 -47 -33q-58 -51 -131 -144t-123 -179q-45 -80 -38 -80q4 0 26 18
q36 28 82 74t98.5 110.5t79.5 106.5q26 42 43 81t12 44zM373 965v4q10 17 17 38t7.5 33.5t-4.5 14.5q-22 0 -77 -49.5t-105 -112.5q-20 -26 -62.5 -93t-42.5 -73q0 -10 53 23l9 6q61 38 117 95t88 114z" />
    <glyph glyph-name="ss.liga" unicode="ss" horiz-adv-x="731" 
d="M133 549l-4 -12q78 44 181 91.5t120 49.5q12 -3 12 -16t-12 -19q-17 -8 -27 -29q-9 -15 -9 -24t9 -35q9 -27 16.5 -29.5t47.5 15.5q146 69 219 90q52 14 72 14q10 0 18 -8q7 -9 -14 -17l-23 -8q-171 -53 -266 -104l-35 -19l4 -26q5 -38 -20 -72.5t-72 -54.5
q-30 -12 -63 -17.5t-51 0.5t-29 20t-8 26q6 17 28.5 35.5t77.5 52.5q16 10 35 22l28.5 18t10.5 7q2 2 -12 43q-17 49 -17 55q0 12 -4 12q-5 0 -76 -36t-118 -62q-40 -22 -54.5 -33t-25.5 -30q-35 -57 -99 -54t-18 43q24 20 53 37q27 15 27 23t-33 37t-33 36q0 26 35 54
t73.5 36t63.5 -6q19 -16 -4 -39q-27 -27 -45 -4q-9 13 -12 13q-8 0 -32.5 -19.5t-24.5 -25.5q0 -10 28 -35l29 -25zM371 393h-2q8 9 14 24t7 24.5t-3 11.5q-13 0 -79 -46t-66 -55q0 -18 59 5l14 5q38 13 56 31z" />
    <glyph glyph-name="tt.liga" unicode="tt" horiz-adv-x="618" 
d="M737 1133l-4 -3q21 0 21 -13q-1 -19 -45 -93l-52 -86q72 -2 160 -4q121 -3 158 -8t43 -19q6 -15 -12 -17q-15 -1 -64 3q-78 4 -192 4h-121l-39 -63q-108 -178 -198 -374.5t-103 -283.5q-3 -18 -7.5 -24.5t-13.5 -8.5q-14 0 -18 4q-18 15 22 134q109 309 271 573
q25 42 22 45q-4 4 -8 -4q-5 -10 -92 -104q-174 -195 -295 -300.5t-168 -105.5q-94 0 -19 182q39 94 126 244l41 70h-39q-16 0 -140 -9q-41 -3 -65.5 -4t-40 1t-20.5 6t-3 12q2 9 36.5 14t162.5 14q130 10 141 21q14 14 64 88q32 45 45 60.5t22 15.5q14 0 19.5 -9t-0.5 -22
q-12 -23 -47 -74q-41 -59 -37 -63t149 0l146 4l88 98q54 60 75 79.5t31 19.5zM467 895l6 4q-119 0 -225 -8l-37 -4l-45 -78q-93 -158 -141 -268q-12 -29 -20 -58t-9 -45t4 -18q6 0 43 22q85 56 201 172q44 44 149 160t105 121h-31z" />
    <glyph glyph-name="oo.liga" unicode="oo" horiz-adv-x="835" 
d="M-66 506l9 8q4 56 46.5 118t73.5 60q5 0 13 -4q4 -4 41 -4q23 2 33 -1t22 -13q18 -18 18 -35t17 -17t100.5 16t118.5 25q50 13 82 13q26 0 39 -3.5t33 -15.5q22 -13 37.5 -14.5t50.5 0.5q70 5 112 10q70 8 82 8q14 -2 20 -11t-3 -15q-8 -5 -87 -15.5t-128 -13.5
q-38 -1 -49 -5t-11 -15q0 -17 -23 -55t-46 -60q-21 -20 -59.5 -37.5t-59.5 -17.5q-31 0 -47.5 19.5t-14.5 51.5q2 37 29 84q13 22 18.5 33.5t4.5 11.5q-8 0 -56 -10q-54 -11 -114 -18q-64 -7 -64 -13q0 -9 -20.5 -42.5t-36.5 -51.5q-23 -25 -53.5 -41t-53.5 -16
q-35 0 -56 24t-18 62zM145 633l-2 2q0 16 -22 16q-11 0 -17 -2q-39 -9 7 -22q26 -6 30 -5.5t4 11.5zM55 616h2q-11 7 -14 7q-4 0 -16 -15q-12 -17 -27.5 -56t-15.5 -52q0 -14 9 -24.5t21 -10.5q14 0 49 27q24 19 46 49t22 43q0 6 -31 14q-32 8 -45 18zM508 614l-2 -2
q-18 6 -23 6q-4 0 -14 -10q-29 -29 -50.5 -77.5t-12.5 -67.5q3 -7 9 -7.5t25 5.5q25 8 55.5 33t47.5 53q29 53 6 57q-18 0 -41 10z" />
    <glyph glyph-name="ff.liga" unicode="ff" horiz-adv-x="892" 
d="M737 1014l8 10q142 111 152 111q11 0 18 -11q6 -11 -9 -34.5t-99 -133.5q-61 -79 -137.5 -185t-128 -183t-47.5 -80q8 -8 186 53q171 58 240 94q14 8 26 4t12 -16q0 -21 -173.5 -87.5t-270.5 -84.5q-42 -8 -45 -10q-7 -3 14 -16q2 -2 4 -3q43 -26 62 -72.5t8 -97.5
q-19 -88 -88 -147t-129 -37q-29 10 -37.5 28.5t-5.5 61.5q6 74 70 203l28 59l-33 13q-18 6 -24 11t-4 13t10.5 11t36.5 4l45 2l33 55q35 58 117.5 176.5t134.5 185.5q47 61 41 61t-76 -54q-157 -124 -357 -238q-60 -33 -152 -79.5t-122 -57.5q-29 -11 -33 -19q-1 -3 7 -9.5
t20 -12.5q31 -15 49 -41q26 -36 23 -82t-29 -90q-25 -43 -71.5 -80.5t-78.5 -42.5q-57 -9 -79 29q-9 15 -10 25t5 36q8 34 37 109.5t49 111.5q18 32 11 35q-10 5 -5.5 17t19.5 20q19 8 70 88q66 106 167 239.5t142 170.5q27 24 43 8q6 -6 -5.5 -23t-58.5 -76
q-79 -96 -174.5 -230t-89.5 -140q3 -3 112 53.5t173 93.5q179 107 399 281zM72 420l-4 2q-3 15 -30.5 42.5t-39.5 27.5t-57 -115.5t-45 -147.5q0 -18 3 -22t17 -4q21 0 66 37q52 42 75.5 90t14.5 90zM440 432l-22 -37q-26 -48 -52.5 -117t-29.5 -100q-5 -43 13.5 -53.5
t58.5 12.5q22 12 49 43.5t39 57.5q23 50 12.5 103.5t-47.5 78.5z" />
    <glyph glyph-name=".notdef" horiz-adv-x="1079" 
d="M102 1434h875v-1434h-875v1434zM160 1393l379 -633l381 633h-760zM514 717l-369 614v-1231zM541 674l-379 -631h758zM565 717l371 -621v1239z" />
    <glyph glyph-name=".null" horiz-adv-x="0" 
 />
    <glyph glyph-name=".null" horiz-adv-x="0" 
 />
    <glyph glyph-name="nonmarkingreturn" horiz-adv-x="682" 
 />
    <glyph glyph-name="controlLF" unicode="&#xa;" horiz-adv-x="0" 
 />
    <glyph glyph-name="controlCR" unicode="&#xd;" horiz-adv-x="0" 
 />
    <glyph glyph-name="space" unicode=" " horiz-adv-x="811" 
 />
    <glyph glyph-name="exclam" unicode="!" horiz-adv-x="686" 
d="M86 434v2q11 0 13.5 -3.5t2.5 -18.5q0 -17 -10.5 -35.5t-19.5 -18.5q-6 0 -19 9q-8 6 -7.5 12t9.5 25q12 28 31 28zM633 1292q8 -8 -12 -43q-19 -37 -27 -37q-17 0 -165 -229t-232 -385q-47 -83 -60 -86q-14 0 -18 4q-7 6 1 27.5t40 81.5q94 171 240.5 399t187.5 266
q10 10 22 10q15 0 23 -8z" />
    <glyph glyph-name="quotedbl" unicode="&#x22;" horiz-adv-x="309" 
d="M152 1290h-5q8 -8 -18 -51q-30 -47 -37 -78q-6 -21 -10.5 -27t-15.5 -6q-39 0 -7 74q23 54 49.5 78.5t43.5 9.5zM256 1284l2 -2q4 -8 -18 -37q-52 -66 -52 -104q0 -27 -20 -27q-4 0 -12 4q-20 12 -3 64t54 90q13 15 29 19t20 -7z" />
    <glyph glyph-name="numbersign" unicode="#" horiz-adv-x="1241" 
d="M1180 983l-6 -8q10 -9 11 -13t-7 -10q-10 -7 -39 -2q-25 5 -115 5.5t-145 -3.5l-50 -4l-47 -86q-50 -86 -53 -100l-4 -14l143 -3q97 -1 122.5 -3.5t33.5 -10.5q16 -18 -6 -22q-20 -2 -80 2q-86 4 -156 4l-77 -2l-25 -51q-83 -169 -86 -209q-3 -22 -19 -25q-14 0 -24 10
q-6 7 -4.5 16.5t12.5 41.5q34 95 92 213q4 7 -7 8q-13 1 -103 -2q-108 -3 -154 -8q-29 -3 -36 -7.5t-19 -27.5q-24 -44 -48 -99t-24 -67q0 -20 -11 -25.5t-24 6.5q-10 9 -11 16t5 27q7 27 41 101q33 72 31 74q-3 3 -191 -13q-51 -5 -55 4q-4 11 4 19q6 5 76 13.5t139 12.5
l55 4l43 82q48 86 56 97q4 6 5 9t-1.5 4t-9.5 1q-51 0 -234 -20q-34 -5 -45 6q-16 16 14 25q36 10 177 22q100 9 114.5 15t30.5 33q9 14 12 19q32 53 65 100.5t42 53.5q10 6 22.5 1t12.5 -15q0 -12 -33 -58q-30 -43 -57.5 -89.5t-24.5 -47.5q28 0 151 6l148 6l67 103
q61 94 81.5 120.5t31.5 26.5q22 -3 8 -34q-13 -28 -61 -101q-70 -106 -70 -111q0 -4 150 -4q110 0 132 -1.5t34 -10.5zM752 903l26 47l-112 -4q-100 -3 -154 -8l-41 -4l-47 -84q-45 -79 -51 -96q-3 -8 8 -10q17 -3 135 -1q147 0 152 5q7 7 30 55q8 16 28.5 53t25.5 47z" />
    <glyph glyph-name="dollar" unicode="$" horiz-adv-x="794" 
d="M727 1174l2 4q15 -12 18.5 -20.5t2.5 -31.5q-4 -36 -39 -87.5t-77 -86.5t-65 -28q-24 8 27 50q3 2 6 5q51 41 82.5 93t20.5 77q-4 11 -47.5 8.5t-53.5 -14.5q-11 -11 -128 -203.5t-120 -204.5q-3 -8 7 -15t43 -20q60 -26 80.5 -50.5t13.5 -59.5q-9 -38 -87.5 -84
t-172.5 -68l-45 -10l-25 -63q-15 -37 -23.5 -50.5t-17.5 -15.5q-14 -4 -18 8t14 60q18 49 18 51q0 4 -28 8q-37 5 -58 32q-16 22 5 28q3 1 6 1q16 3 28 -12q13 -16 41 -16h29l61 121l62 120l-51 23q-46 21 -67.5 35.5t-31.5 34.5q-26 51 17.5 118t148.5 138q42 29 112.5 66
t112.5 52q33 12 43.5 21t32.5 43q20 29 30 39.5t19 9.5q7 0 13 -6q7 -8 5 -13.5t-18 -31.5l-22 -37h37q24 0 34 -3t23 -15zM385 674h-2q-40 16 -49 16q-8 0 -13.5 -6t-13.5 -22q-23 -43 -45 -86.5t-34.5 -71t-10.5 -27.5q1 0 64 19q73 23 124.5 58.5t51.5 63.5
q0 11 -21 27.5t-51 28.5zM453 995l-7 2q40 63 61.5 98t20.5 35q-9 0 -78 -36.5t-102 -59.5q-109 -71 -152.5 -133t-11.5 -100q13 -17 61 -40.5t56 -17.5q7 3 37 62q25 48 115 190z" />
    <glyph glyph-name="percent" unicode="%" horiz-adv-x="1069" 
d="M510 1036l-2 2q-130 -117 -172 -75q-22 22 6 81.5t80 102.5q46 37 82 37q27 0 49 -25q15 -15 10 -47q-3 -22 -11.5 -34.5t-41.5 -41.5zM399 1059v2q-29 -41 -27 -65q1 -7 5 -7q8 0 72 53q39 33 52.5 48t16.5 28q6 33 -14 33q-18 0 -47.5 -25t-57.5 -67zM1016 1217l2 -5
q7 -7 -8 -23.5t-82 -74.5q-231 -198 -733 -706q-86 -86 -111 -105t-37 -10q-8 7 9 29q27 35 294 303q265 268 438 426q194 174 211 174q9 0 17 -8zM649 545v2q56 0 17 -80q-29 -58 -84.5 -87t-87.5 -3q-36 29 14 108q24 39 53.5 64.5t48.5 25.5q16 0 19 -16q3 -14 20 -14z
M580 430v-2q56 50 47 92q-4 19 -11 19q-14 0 -54 -53t-40 -72q0 -18 26 -7q15 7 32 23z" />
    <glyph glyph-name="ampersand" unicode="&#x26;" horiz-adv-x="874" 
d="M772 733l-2 4q25 30 46 26q17 -5 1 -32q-9 -15 -81.5 -73t-133.5 -99q-59 -41 -59 -49q0 -15 37 -75t65 -89q11 -11 11 -19t-9.5 -8.5t-25.5 5.5q-13 6 -46.5 48.5t-52.5 76.5l-22 38q-27 -14 -58 -32q-112 -63 -209 -87t-143 -1q-28 13 -37 29.5t-6 45.5q12 120 322 351
q88 66 88 77q0 16 24.5 71.5t44.5 82.5q39 56 93.5 91.5t99.5 37.5q25 0 43 -12q43 -27 -2 -90q-18 -24 -90.5 -87.5t-134.5 -107.5l-41 -29v-77q0 -81 14 -138q14 -59 18 -63q6 -5 114.5 76t131.5 108zM516 922l-6 -19l37 25q41 28 90 71q42 36 69 67.5t27 43.5
q0 10 -12 10q-19 2 -53.5 -15.5t-61.5 -43.5q-22 -20 -52 -67t-38 -72zM401 477l-4 2q61 33 69 42q13 14 3 52q0 3 -10 39q-18 75 -21 123l-4 64l-96 -76q-170 -136 -221 -219q-42 -69 -17 -101q7 -9 17.5 -10.5t44.5 0.5q48 3 104 23q53 17 135 61z" />
    <glyph glyph-name="quotesingle" unicode="'" horiz-adv-x="202" 
d="M68 1126h-5q-14 0 -19 7.5t-2 23.5t15 43q23 54 49.5 78.5t43.5 9.5q7 -7 -19 -51q-30 -47 -37 -78q-6 -21 -10.5 -27t-15.5 -6z" />
    <glyph glyph-name="parenleft" unicode="(" horiz-adv-x="677" 
d="M608 1268h-2q22 -3 20.5 -16t-24.5 -23q-24 -11 -88 -64.5t-113 -103.5q-114 -117 -190 -252t-105 -272q-19 -89 -4.5 -169.5t54.5 -111.5q14 -10 10 -20.5t-23 -10.5t-41 25q-49 55 -56 156.5t30 218.5q82 259 303 477q175 172 229 166z" />
    <glyph glyph-name="parenright" unicode=")" horiz-adv-x="745" 
d="M686 1208h2q14 -42 10.5 -130t-22.5 -144q-58 -180 -170 -346.5t-252 -282.5q-69 -57 -120.5 -78t-74.5 -2q-14 12 -8.5 20.5t27.5 8.5q61 0 192 126t217 269q36 58 70 131q65 135 84.5 232.5t-0.5 185.5q-11 46 -10.5 55t12.5 9q15 0 24 -11t19 -43z" />
    <glyph glyph-name="asterisk" unicode="*" horiz-adv-x="366" 
d="M268 1120v-2q-31 -8 -35 -12q-1 -1 2.5 -6t10.5 -13t16 -16q27 -26 30.5 -33t-7.5 -14q-11 -8 -56 27l-43 34l-8 -24q-23 -75 -53 -51q-7 6 -7 11t7 19q13 26 9 31t-32 -6q-55 -22 -55 6q0 12 51 31l52 20l-33 27q-28 22 -32 29t7 14q8 5 20.5 2.5t12.5 -8.5t22 -17
l23 -12l8 27q7 23 17 32.5t22 6.5q24 -7 4 -52q-7 -19 -4 -22q4 -4 35 4q65 18 65 -2q0 -11 -10 -17.5t-39 -13.5z" />
    <glyph glyph-name="plus" unicode="+" horiz-adv-x="438" 
d="M311 664q25 0 40.5 -1t24.5 -3.5t12 -6.5t1 -10q-2 -8 -15 -10.5t-65 -3.5l-78 -2l-18 -58q-12 -37 -18 -47t-17 -12q-16 -3 -20 8q-4 12 10 60l14 47l-45 -4q-51 -5 -65.5 -4t-20.5 8q-10 13 10 19q17 4 66 9l70 9l18 51q12 30 19 39.5t18 11.5q17 1 20 -10.5t-8 -42.5
q-12 -36 -12 -41q0 -6 59 -6z" />
    <glyph glyph-name="comma" unicode="," horiz-adv-x="182" 
d="M100 442v-2q31 0 35 -23.5t-22 -49.5q-43 -43 -60 -29q-14 12 17 43q22 20 14 31q-7 12 -2.5 21t18.5 9z" />
    <glyph glyph-name="hyphen" unicode="-" horiz-adv-x="387" 
d="M305 662l-2 -3q27 -2 34 -16q3 -6 -3 -10q-8 -6 -136.5 -9t-140.5 3q-12 8 -12 18q0 4 3 6.5t15.5 4.5t35.5 3t65 3q119 4 141 0z" />
    <glyph glyph-name="period" unicode="." horiz-adv-x="157" 
d="M61 455h-2q22 9 39 -4.5t6 -30.5q-6 -9 -22.5 -10.5t-26.5 6.5t-8 21t14 18z" />
    <glyph glyph-name="slash" unicode="/" horiz-adv-x="821" 
d="M768 1317v4q4 -4 5 -9t-6.5 -18.5t-21.5 -35t-40 -58.5q-185 -262 -539 -862q-63 -106 -81.5 -130t-31.5 -18q-11 5 -1 27q17 41 212 367q211 357 322 518q146 215 164 219q7 3 18 -4z" />
    <glyph glyph-name="zero" unicode="0" horiz-adv-x="624" 
d="M449 1090v-5q40 0 65 -13.5t45 -47.5q14 -24 17.5 -42t3.5 -79q0 -88 -17 -143q-53 -165 -161 -287t-209 -129q-30 -4 -50 4q-22 7 -42.5 25.5t-32.5 40.5q-19 32 -20.5 100.5t13.5 126.5q29 113 91.5 215.5t140.5 167.5q81 66 156 66zM526 827q19 93 0 152
q-21 68 -73 68q-26 0 -62 -19q-74 -38 -142.5 -123t-109.5 -188.5t-41 -192.5q0 -93 37 -125q31 -27 86 -8q92 32 184.5 164.5t120.5 271.5z" />
    <glyph glyph-name="one" unicode="1" horiz-adv-x="499" 
d="M453 1047l-2 -9q0 -17 -111 -215q-201 -359 -234 -434q-12 -28 -28.5 -40t-28.5 -3q-4 4 -4 14q0 15 86.5 183t179.5 331q49 85 49 91q0 3 -26 -19q-24 -22 -37 -14q-11 7 -14 14q-2 5 57 59.5t76 63.5q14 8 26 0.5t11 -22.5z" />
    <glyph glyph-name="two" unicode="2" horiz-adv-x="817" 
d="M334 453l4 -9l-59 -41q14 -4 30 -8q24 -4 73 -24.5t67 -32.5q10 -7 10.5 -23.5t-8.5 -19.5q-10 0 -48 20q-64 34 -129.5 45t-103.5 -4q-78 -31 -104 -18q-13 6 -14 17t11 20t44 18.5t49 9.5t83.5 38t125.5 81q179 132 292 314q35 57 48.5 91t13.5 66q0 23 -3.5 32.5
t-15.5 18.5q-12 11 -20.5 13.5t-28.5 1.5q-118 -12 -219 -94q-40 -34 -53 -31q-30 10 12 52q49 49 133 83q147 58 205 10q40 -34 39.5 -84.5t-41.5 -132.5q-54 -106 -160.5 -216.5t-232.5 -192.5z" />
    <glyph glyph-name="three" unicode="3" horiz-adv-x="692" 
d="M551 1077l-6 2q57 4 81.5 -22.5t4.5 -69.5q-12 -26 -69 -73.5t-111 -75.5q-13 -7 -24 -14t-16.5 -11.5t-4.5 -5.5q5 -5 32 -8q48 -6 90 -45t52 -88q17 -71 -33 -140q-34 -48 -101 -95t-139 -71q-111 -38 -174 -28q-86 12 -86 43q0 26 43 10q61 -26 174 8
q134 43 212.5 125t55.5 154q-15 46 -49.5 67.5t-107.5 28.5q-46 4 -57 8t-13 15q-1 9 10.5 17.5t59.5 33.5q93 47 158.5 100.5t62.5 79.5q-1 9 -6.5 11.5t-22.5 4.5q-38 3 -105.5 -23t-111.5 -61q-38 -30 -55 -20q-15 8 7 34q7 9 17 17q44 35 109.5 61.5t122.5 30.5z" />
    <glyph glyph-name="four" unicode="4" horiz-adv-x="641" 
d="M578 1065l-5 2q21 0 14 -26q-9 -32 -75 -150q-82 -146 -82 -152t25 -6q26 0 43 -10q11 -8 12.5 -11.5t-4.5 -9.5q-8 -8 -53 -8h-45l-66 -137q-70 -144 -82 -178q-14 -41 -22 -49q-6 -6 -15.5 -7t-15.5 3q-19 16 98 264q45 88 45 94q0 4 -131 4q-129 0 -149 10
q-27 13 -18.5 36.5t65.5 90.5q140 170 143 174q75 94 82 97q9 4 18 -3t9 -18q0 -24 -162 -209q-109 -123 -109 -135q0 -4 138 -4l137 2l55 102q127 234 150 234z" />
    <glyph glyph-name="five" unicode="5" horiz-adv-x="749" 
d="M702 1073l5 -6q0 -9 -5.5 -12t-27.5 -6q-45 -5 -103 -5q-66 0 -106 -4l-37 -4l-25 -39q-20 -39 -81 -129q-60 -85 -60 -90q0 -4 53 -4q83 0 136 -45q47 -41 47 -104q0 -80 -61.5 -160.5t-147.5 -112.5q-95 -38 -176 -12q-64 20 -64 47q0 13 11.5 17t23.5 -5
q17 -12 50.5 -19.5t58.5 -4.5q75 7 139.5 57.5t95.5 124.5q42 106 -25 154q-23 17 -49.5 22t-77.5 2q-49 -3 -65 1.5t-16 19.5q0 19 114 190q56 81 56 88q0 6 -17 10q-16 3 -16 17q0 9 6.5 12t32.5 8q34 6 186 6h145v-14z" />
    <glyph glyph-name="six" unicode="6" horiz-adv-x="555" 
d="M496 1085l2 2q25 -17 -20 -33q-1 0 -3 -1q-82 -29 -189 -162t-145 -254l-10 -33l37 25q53 35 102 47t80.5 0.5t49 -38.5t10.5 -72.5t-39 -98.5q-31 -51 -92 -92t-105 -41q-25 0 -45 10t-33 27q-14 18 -25.5 50.5t-11.5 55.5q0 27 -8 35q-9 9 4 27q15 25 21 59
q15 71 60 157.5t106 162.5t128.5 126t106.5 48q12 0 19 -7zM170 575l-59 -45v-43q0 -55 17 -85.5t48 -30.5q20 0 57 22q51 28 86 76.5t39 99.5q3 37 -7.5 52.5t-39.5 15.5q-54 0 -141 -62z" />
    <glyph glyph-name="seven" unicode="7" horiz-adv-x="686" 
d="M565 1083l2 -2q59 14 70 -14q5 -14 -27 -61t-118 -154q-101 -125 -101 -127q0 -4 15 -4q14 0 24 -10q6 -7 5 -13.5t-11.5 -11.5t-26.5 -6q-27 -3 -41 -8q-10 -5 -77 -84.5t-134 -167.5q-41 -53 -59.5 -68t-30.5 -6q-4 4 -4 12q0 25 148 203l80 98l-29 -4q-25 -3 -37 4
t-6 21q6 12 47 14q39 3 53 8q11 3 145 167.5t130 168.5q-3 3 -70 -8q-66 -11 -166 -18q-69 -5 -86.5 -4t-26.5 8q-13 10 -6 20t84 15q135 7 254 32z" />
    <glyph glyph-name="eight" unicode="8" horiz-adv-x="618" 
d="M508 1102l-2 4q28 -6 39.5 -17.5t19.5 -39.5q25 -97 -137 -279q-65 -76 -68 -82q-4 -8 21 -43q28 -38 35 -69t-4 -66q-28 -92 -121 -138.5t-168 -6.5q-74 39 -74 120q0 59 36 139t93 146q28 33 34 44t3 28q-5 27 3.5 64.5t25.5 66.5q30 53 103.5 93t135.5 38q17 0 25 -2z
M362 549l3 4q0 28 -3.5 40.5t-17.5 31.5l-20 30l-23 -22q-31 -32 -41 -38.5t-22 -0.5q-15 7 -12 16.5t30 38.5q16 17 24 29t8 19t-7 10q-10 5 -27 32l-21 31l-12 -14q-58 -66 -94 -150q-38 -88 -30.5 -138.5t61.5 -70.5q20 -7 26.5 -7t40.5 7q35 8 74 39q38 31 50.5 53
t12.5 60zM383 791l-2 2q139 157 139 237q0 46 -45 43q-27 0 -76 -18q-92 -35 -126.5 -114.5t8.5 -154.5q18 -33 27.5 -45t15.5 -10q6 0 59 60z" />
    <glyph glyph-name="nine" unicode="9" horiz-adv-x="663" 
d="M604 1053v2q9 -8 11 -16t-1 -31q-6 -47 -67.5 -186.5t-116.5 -231.5q-46 -77 -110 -142.5t-113 -85.5q-28 -12 -62.5 -15t-56.5 5q-46 16 -39 39q3 17 51 2q54 -19 135.5 44.5t151.5 178.5q39 64 101 195.5t73 173.5l6 21l-22 -19q-24 -20 -82 -78q-207 -203 -277 -145
q-27 21 -3.5 86t81.5 131q41 47 83.5 73.5t74.5 24.5h6q14 -3 35.5 -19t34.5 -34q5 -7 10.5 -5.5t26.5 15.5q28 20 41.5 23.5t27.5 -6.5zM428 940h-2q28 28 33.5 37.5t1.5 19.5q-9 18 -25 31q-15 12 -22 12q-3 0 -15 -4q-49 -19 -110.5 -92t-73.5 -127q-3 -15 -1 -18.5
t11 -3.5q15 0 47 18q74 45 156 127z" />
    <glyph glyph-name="colon" unicode=":" horiz-adv-x="303" 
d="M244 834h-2q14 -16 4 -29q-9 -12 -24 -13.5t-25 7.5q-20 17 -2 35q12 12 24 12q13 0 25 -12zM106 522l3 2q11 -9 11 -13.5t-11 -16.5t-25.5 -14t-26.5 7q-10 7 -11 14t7 19q7 10 25 10q17 0 28 -8z" />
    <glyph glyph-name="semicolon" unicode=";" horiz-adv-x="296" 
d="M238 825h2q10 -12 10 -20t-10 -17q-16 -13 -41 -2q-10 4 -11.5 21t7.5 24q11 7 18 7q15 0 25 -13zM109 524h4q20 -11 19 -35.5t-23 -46.5q-17 -17 -33.5 -20.5t-22.5 8.5q-4 8 15 27q26 29 13 34q-1 1 -3 1q-6 0 -9.5 9t-0.5 17q6 12 22 12q10 0 19 -6z" />
    <glyph glyph-name="less" unicode="&#x3c;" horiz-adv-x="567" 
d="M240 725h2q-138 -67 -138 -72q0 -3 25.5 -9.5t38.5 -6.5q12 0 127.5 -28.5t144.5 -37.5q49 -17 49 -30q-1 -5 -4 -9q-7 -7 -12.5 -7.5t-15.5 5.5q-16 8 -103.5 30.5t-156.5 35.5q-78 15 -106.5 24.5t-37.5 22.5q-3 4 -3.5 7.5t2 8t7.5 9.5t15 11.5t23 14.5t33 18.5t43 23
t56 28.5q218 109 246 137q10 10 29 10q16 0 16 -14q0 -20 -60 -57.5t-220 -114.5z" />
    <glyph glyph-name="equal" unicode="=" horiz-adv-x="503" 
d="M449 707v-2q17 -15 -7 -20q-26 -6 -137 -9q-128 -3 -174 -8q-36 -3 -47 8q-17 17 5 23q29 9 224 14q41 2 88 2q40 0 48 -8zM436 592l2 -2q15 -8 15 -19q0 -7 -15 -8.5t-90 -1.5q-188 0 -262 -16q-19 -4 -27 4q-10 9 -8.5 17.5t15.5 13.5q24 7 113.5 12.5t168.5 5.5
q76 0 88 -6z" />
    <glyph glyph-name="greater" unicode="&#x3e;" horiz-adv-x="647" 
d="M590 782l2 -2q16 -16 -6 -34q-35 -28 -293 -144h-1h-1l-1 -1h-1l-2 -1q-157 -70 -190 -82.5t-44 -9.5q-8 4 -8 14q0 12 117 64q277 127 346 162l31 16l-19 8q-22 9 -131 41q-126 37 -170.5 54t-46.5 26q-4 17 12 17q20 -1 82 -21q98 -30 123 -37q60 -15 126 -38t75 -32z
" />
    <glyph glyph-name="question" unicode="?" horiz-adv-x="770" 
d="M666 1249l-2 -8q32 -15 44.5 -35.5t12.5 -54.5q0 -58 -51.5 -127t-190.5 -199q-83 -76 -189 -193.5t-104 -129.5q3 -17 -4 -20.5t-26 5.5q-13 9 -13 21q0 21 102 135.5t242 251.5q107 104 149 163t42 105q0 57 -70 66q-88 10 -228 -42.5t-212 -123.5q-47 -46 -66 -82
t-4 -53q9 -10 6 -17.5t-16 -7.5q-37 0 -37 47q0 69 92.5 148.5t227.5 126.5q128 46 209 43q46 0 86 -19zM129 418h-2q29 0 20 -31q-6 -21 -19.5 -26.5t-25.5 6.5q-11 11 -0.5 31t27.5 20z" />
    <glyph glyph-name="at" unicode="@" horiz-adv-x="1021" 
d="M643 606l-8 2q-15 8 -25 34t-6 46q4 19 -2 19q-8 0 -41 -33q-32 -32 -84 -69.5t-80 -47.5q-44 -16 -69 6q-17 13 -8.5 47.5t28 72.5t52 75.5t65.5 56.5q41 25 80.5 17.5t48.5 -41.5q4 -17 8 -17q2 0 25 19q22 20 35 12q12 -6 12 -20.5t-12 -49.5q-12 -37 -9 -63
q1 -20 4.5 -25.5t14.5 -7.5q44 -7 119 59q81 72 113.5 167t-1.5 159q-31 60 -113.5 91.5t-175.5 19.5q-146 -20 -286 -134q-118 -96 -182 -212t-57.5 -218t83.5 -157q206 -147 594 108q76 50 76 17q0 -14 -81.5 -65.5t-158.5 -86.5q-73 -34 -159 -49t-148 -6
q-72 10 -133.5 49t-89.5 92q-32 76 -19 167.5t60 176.5q67 122 179.5 212t239.5 126q50 14 134 14q69 0 111 -11t93 -42q47 -28 71.5 -64.5t31.5 -93.5q11 -84 -60.5 -194.5t-160.5 -147.5q-71 -30 -109 -10zM508 678l57 47l-4 35q-3 23 -6.5 29.5t-13.5 7.5h-6
q-29 -2 -79.5 -55t-72.5 -105q-19 -43 -12.5 -48.5t47.5 19.5q42 25 90 70z" />
    <glyph glyph-name="A" unicode="A" horiz-adv-x="1300" 
d="M1163 670h8q29 0 48 -1.5t31 -4.5t17 -7.5t3 -11.5q-1 -9 -13.5 -10.5t-74.5 -1.5h-84l-25 -90q-45 -170 -73 -312.5t-23 -179.5q4 -30 0 -37q-5 -9 -23 -8t-24 10q-12 18 -3 91t44 235q32 161 65 272l4 15l-61 -4q-197 -12 -442 -35q-146 -15 -148 -15q-9 0 -133 -189
t-143 -232q-7 -20 -13.5 -26.5t-17.5 -6.5t-15.5 4t-5.5 14q-2 15 56.5 114.5t138.5 217.5q60 85 55 90q-4 4 -103.5 -11.5t-154.5 -29.5t-72.5 -13.5t-17.5 15.5q0 35 285 74l98 12l29 37q189 244 370.5 437t301.5 278q88 61 137 61q63 0 63 -104q0 -53 -16 -130.5
t-68 -273.5q-63 -232 -63 -239q0 -4 63 -4zM1067 721l-2 2q1 2 21 78t34 125q43 153 60 223q25 100 29 162t-15 69h-6q-37 3 -168 -104q-190 -156 -424 -434q-39 -46 -107.5 -133.5t-68.5 -90.5q0 -2 9 -2l108 11q232 26 487 39l29 2z" />
    <glyph glyph-name="B" unicode="B" horiz-adv-x="1382" 
d="M1475 1350l4 -2q23 -22 31.5 -46t5.5 -61q-8 -109 -192.5 -260t-442.5 -258q-72 -30 -72 -33q0 -4 29 -8q61 -7 114.5 -35.5t75.5 -64.5q14 -23 14 -64.5t-14 -75.5q-58 -139 -226 -250t-401 -165q-113 -27 -176 -15q-60 10 -90.5 39.5t-25.5 71.5q9 67 100 141
q86 72 217 123q59 21 59 29q0 10 47 102q48 94 48 100q0 5 -19 5q-15 0 -24 9t-5 19q4 11 35 19q6 2 15.5 4t16 3.5t9.5 2.5q8 3 70 113q144 257 246 389q31 40 44 52.5t23 12.5q22 0 16 -19q-8 -20 -55 -85q-56 -76 -149 -232q-47 -78 -70 -118t-37.5 -66t-13 -28.5
t3.5 -6.5q13 0 119 45q224 92 400 215t241 232q43 71 14 123q-13 23 -34 36t-66 27q-32 9 -58.5 11.5t-107.5 2.5q-104 0 -179.5 -11t-174.5 -42q-148 -44 -300 -129.5t-227 -167.5q-46 -50 -58 -75.5t-5 -57.5q2 -9 -5 -13t-17 -1.5t-17 10.5q-21 24 6 76
q35 70 136.5 150.5t239.5 149t277 105.5q157 44 322 47q97 0 154 -14q88 -22 129 -61zM909 625l2 6q-70 28 -155 28q-23 0 -33 -2q-46 -5 -60.5 -12.5t-29.5 -36.5q-15 -25 -35.5 -65t-35 -70t-13.5 -31q1 0 12.5 3t35.5 9l44 11q151 42 196 23q14 -6 11 -17q-2 -10 -47 -10
q-80 -3 -221 -53q-43 -15 -53 -26.5t-7 -43.5q3 -24 -10 -27q-29 -6 -39 31q-4 18 -8 18q-8 0 -54.5 -21t-78.5 -40q-73 -41 -124.5 -96t-51.5 -92q0 -17 19 -35.5t44 -24.5q51 -10 117 2q205 38 378 138.5t244 220.5q49 83 38 133.5t-85 79.5z" />
    <glyph glyph-name="C" unicode="C" horiz-adv-x="1345" 
d="M47 362l4 -4q0 60 3.5 88t15.5 68q58 190 176 369q128 194 316.5 339t363.5 183q74 15 129.5 -6t70.5 -70q15 -47 -25 -146.5t-112 -189.5q-85 -108 -112 -108q-37 0 0 39l4 4q82 82 140 188t58 174q0 34 -2.5 42t-19.5 20q-23 16 -64 16q-80 0 -189.5 -50.5
t-221.5 -139.5q-141 -112 -242 -245.5t-176 -305.5q-93 -214 -60 -363q27 -124 127 -158q99 -32 254 9q145 42 316 149q176 109 334 240q38 32 61 49.5t38.5 26.5t22.5 8.5t11 -8.5q2 -3 -8 -14.5t-34 -32.5t-63 -52q-218 -180 -375.5 -272.5t-302.5 -126.5
q-56 -12 -92.5 -17.5t-85.5 -3.5t-92 17q-110 36 -156 155q-12 35 -12 129z" />
    <glyph glyph-name="D" unicode="D" horiz-adv-x="1452" 
d="M63 922l-4 -7q-17 3 -17 31.5t19 61.5q44 83 117 149q93 80 263 150t339 98q75 12 174 12t162 -12q280 -56 369 -264q14 -33 18.5 -99t-4.5 -108q-38 -180 -221.5 -389t-441.5 -367q-179 -111 -347 -155q-58 -15 -132.5 -16.5t-120.5 11.5q-86 25 -120.5 87.5t-6.5 144.5
q68 207 356 328q36 15 49 23t16 17q25 66 136 300q28 56 84.5 149.5t93.5 144.5q28 39 39 50t20 10q34 -5 -1 -60q-5 -9 -13 -20q-92 -129 -168 -274q-31 -61 -80 -165t-53 -120q-3 -11 -1.5 -12t13.5 2q75 17 158.5 12t97.5 -27q13 -22 1.5 -30t-34.5 6q-20 12 -91 12
t-122 -12q-44 -10 -51 -17q-11 -15 -30.5 -77.5t-20.5 -86.5q-1 -32 -10.5 -43t-24.5 0q-12 8 -10.5 43.5t18.5 83.5q19 58 17 60q-3 3 -60 -26t-94 -52q-86 -55 -141.5 -135.5t-55.5 -149.5q0 -66 50.5 -100.5t146.5 -34.5q132 0 313 87.5t371 244.5q164 135 273.5 278.5
t144.5 270.5q10 38 10 98t-10 92q-31 97 -122.5 164t-223.5 90q-191 32 -438 -33q-333 -90 -478 -241q-32 -32 -63 -81.5t-31 -68.5q0 -31 -27 -28z" />
    <glyph glyph-name="E" unicode="E" horiz-adv-x="1050" 
d="M164 852l6 2q0 54 71.5 134.5t196.5 166.5q106 74 264.5 149.5t270.5 106.5q63 16 139 16q54 0 68 -2t32 -14q30 -19 41 -39.5t11 -56.5q-2 -65 -62 -162.5t-143 -169.5q-51 -44 -68.5 -54t-29.5 -1q-4 3 -4.5 6t3.5 9t13.5 15t27.5 25q87 75 150 173.5t63 160.5
q0 23 -14.5 43t-34.5 26q-43 14 -137.5 -7t-210.5 -70q-189 -78 -353 -191.5t-218 -202.5q-29 -47 -25.5 -77.5t43.5 -61.5t103.5 -48t173.5 -26q101 -7 101 -25l-1 -5q-5 -10 -25 -13q-17 -3 -96 -26q-104 -34 -197 -95.5t-153 -136.5q-39 -48 -52.5 -79t-13.5 -72
q0 -49 24 -82.5t75 -58.5q23 -11 39.5 -14t60.5 -3q60 0 100.5 9.5t96.5 35.5q68 32 141 86.5t98 91.5q7 11 7 16t-7 11q-10 9 -5 18t20 9q17 0 28 -10t11 -25q0 -29 -67.5 -92.5t-143.5 -106.5q-104 -60 -206 -78t-181 9q-44 15 -81.5 46t-54.5 68q-10 23 -13 39t-1 47
q2 49 33 99q50 85 144.5 159.5t211.5 120.5q54 22 54 26q-2 2 -9 3q-69 4 -140 26.5t-112 51.5q-25 19 -44 49t-19 51z" />
    <glyph glyph-name="F" unicode="F" horiz-adv-x="1361" 
d="M1341 1423l-2 -4q29 -16 37 -41q6 -17 5 -29.5t-11 -45.5q-19 -62 -64.5 -148t-158.5 -272q-149 -248 -153 -263q-1 -6 3 -5q1 0 7 1q22 5 98 19q85 12 100 6q9 -3 13.5 -7.5t3.5 -8.5q-3 -12 -45 -15q-45 -4 -115 -18q-56 -11 -86 -19q-16 -3 -72 -104
q-151 -281 -205 -403q-25 -57 -39 -60q-14 0 -18 4t-4 23q0 14 54.5 127.5t135.5 265.5q72 136 66 138q-1 0 -4 -1q-6 -2 -174.5 -38.5t-198.5 -41.5q-12 -2 -25.5 5t-13.5 14t47.5 19.5t194.5 43.5q197 43 201 47q12 10 185.5 303.5t194.5 337.5q52 113 23 136
q-29 25 -212.5 -6.5t-371.5 -92.5q-195 -64 -377 -162q-124 -67 -201.5 -139t-68.5 -110q3 -12 -2 -21.5t-14 -9.5q-11 0 -20 13t-9 28q0 71 143.5 177t358.5 194q171 71 364.5 119.5t329.5 54.5q53 3 67 1.5t33 -12.5z" />
    <glyph glyph-name="G" unicode="G" horiz-adv-x="1153" 
d="M100 578h-2q96 256 287 488.5t410 354.5q47 27 95 42t96 17.5t85.5 -22t54.5 -76.5q11 -34 -1 -107.5t-38 -131.5q-40 -91 -87 -167t-66 -79q-18 -3 -15 12q2 18 35 68q100 151 125 283q10 49 11 65.5t-7 42.5q-20 70 -93.5 70.5t-172.5 -58.5q-152 -86 -317.5 -260
t-270.5 -372q-87 -162 -120.5 -319t0.5 -243q41 -104 142.5 -88.5t233.5 146.5q51 51 109 123q181 226 178 229q-1 3 -58 -7.5t-81 -17.5q-20 -6 -30 -1.5t-5 18.5q3 9 12.5 13.5t38.5 12.5q90 23 198.5 30.5t119.5 -7.5q7 -8 6 -13.5t-9.5 -8t-23.5 -1.5q-27 4 -61 0
l-35 -4l-37 -61q-70 -116 -152 -293.5t-94 -241.5q-4 -20 -9.5 -30t-12.5 -10t-15 10t-2 47q4 26 48 137.5t73 171.5q15 33 12 33q-2 0 -8 -6q-118 -135 -175 -187.5t-122 -85.5q-118 -57 -200 -10q-88 48 -103 192q-5 48 12 143t41 159z" />
    <glyph glyph-name="H" unicode="H" horiz-adv-x="1439" 
d="M1108 664h-10q-8 8 -439 22q-185 5 -192 -2q-20 -17 -113 -217t-100 -244q-3 -17 -7.5 -20.5t-19.5 -3.5t-17 3t1 25q4 32 79 203.5t116 245.5q5 9 -9 11l-43 1q-43 0 -136.5 -5.5t-129.5 -10.5q-22 -3 -35.5 5.5t-7.5 20.5q5 9 82 17.5t186 11.5l121 4l31 51
q199 345 286.5 481.5t110.5 139.5q18 2 17 -10q-1 -21 -64 -119q-53 -82 -178.5 -296t-134.5 -237l-6 -16h110q132 0 223 -6q74 -5 205 -10l94 -4l78 139q121 219 241.5 407.5t139.5 188.5t19 -11q-1 -20 -78 -141q-100 -157 -221 -367t-115 -216q6 -5 37 -9q29 -3 49 -10.5
t26 -17t-1 -21.5q-8 -8 -27 0q-20 8 -68 8l-47 2l-28 -53q-59 -105 -172.5 -350t-116.5 -274q-4 -26 -15 -37q-9 -9 -22 -12t-19 3q-10 10 50 148q139 318 233 506z" />
    <glyph glyph-name="I" unicode="I" horiz-adv-x="1067" 
d="M403 182l5 4q156 370 589 1026q129 194 129 199q-7 4 -53.5 2.5t-120 -8.5t-127.5 -16q-44 -7 -55 2q-22 19 31 31q7 2 14 3q191 31 488 31q298 0 319 -18q12 -10 6.5 -21t-20.5 -8q-18 4 -202 7.5t-202 0.5q-20 -3 -47 -47q-9 -16 -108 -170q-346 -531 -494 -815
q-39 -75 -82 -165.5t-43 -96.5q0 -4 152 -4q150 0 168 -10q15 -8 17 -18t-8 -13.5t-26 2.5q-15 6 -158 6q-103 -2 -124.5 -3.5t-28.5 -8.5q-9 -11 -22.5 -12t-22.5 8t-74 4q-121 -7 -209 -17q-20 -3 -35 4q-9 5 -10 11t6.5 11t20.5 7q46 9 272 25l27 2z" />
    <glyph glyph-name="J" unicode="J" horiz-adv-x="1437" 
d="M1186 545l-4 -6q-170 -223 -398 -383t-448 -211q-104 -22 -162 -15q-86 11 -115.5 73.5t2.5 166.5q30 97 111 199q72 89 193.5 177.5t230.5 133.5q65 28 178 56t156 28q24 0 45 -7.5t30 -18.5t1 -21q-4 -6 -19 -4.5t-18 8.5q-9 20 -132.5 -7t-226.5 -71
q-102 -43 -215 -126t-178 -163q-91 -113 -116.5 -219t28.5 -147q13 -10 28 -12.5t62 -2.5q70 0 125 17q357 107 653 409q219 225 353 506q47 99 63.5 167.5t13.5 150.5q-2 48 -5.5 65.5t-16.5 40.5q-15 27 -34.5 42t-59.5 30q-34 12 -108 12t-140 -12q-121 -23 -246.5 -76
t-202.5 -113q-33 -26 -45 -32.5t-18 -1.5q-14 9 -9.5 20t31.5 35q52 46 165.5 99.5t219.5 82.5q211 59 346 25t166 -152q34 -132 -41 -328t-243 -415z" />
    <glyph glyph-name="K" unicode="K" horiz-adv-x="1404" 
d="M49 76v-4q-11 15 15 96t75 186l27 60q0 4 -19 4q-15 0 -21 9t1 19q8 12 37 19q21 5 29 14q13 15 83 154q69 134 209 364t226 351q25 35 35.5 45.5t19.5 9.5q14 0 18 -12q3 -10 -90 -152q-98 -149 -196 -315q-79 -130 -159.5 -279t-74.5 -153q9 -8 183 66t298 138
q260 133 580.5 337.5t460.5 326.5q46 40 63.5 47t24.5 -10q7 -16 -63.5 -77t-202.5 -152.5t-297 -194.5q-507 -317 -893 -469l-94 -37l71 -14q188 -35 465 -144q242 -99 242 -137q0 -35 -58 10q-46 34 -224 104.5t-302 104.5q-59 15 -153.5 31.5t-114.5 15.5
q-12 -1 -20.5 -14.5t-32.5 -65.5q-26 -55 -58.5 -133.5t-40.5 -103.5q-6 -16 6 -19q10 -3 9 -11t-13 -17q-13 -9 -29 -8.5t-22 10.5z" />
    <glyph glyph-name="L" unicode="L" horiz-adv-x="1234" 
d="M307 283h2q29 68 133 274.5t176 339.5q49 92 166.5 281t145.5 221q27 30 51 10q7 -7 -16 -57q-24 -50 -37 -54q-11 -3 -107.5 -156.5t-165.5 -279.5q-54 -98 -128 -241.5t-126 -249t-49 -107.5q1 0 16.5 1t45.5 3t57 4q114 9 341 10.5t280 -6.5q97 -14 96 -42
q-1 -8 -8 -17q-10 -13 -31 -13t-21 13q0 12 -8 16q-12 6 -137 13q-129 8 -299 0q-330 -14 -520 -41q-48 -8 -84 -15q-19 -4 -23 0q-9 8 -4 18t19 15q19 6 98 17.5t102 11.5q15 0 20.5 4.5t14.5 26.5z" />
    <glyph glyph-name="M" unicode="M" horiz-adv-x="1531" 
d="M88 186v-2q-6 -11 -21 -13t-20 7q-13 29 211 420q185 321 327.5 535t186.5 237q13 7 20 7.5t19 -5.5q17 -7 25 -26q18 -58 -93 -414q-47 -151 -84.5 -287t-33.5 -139q1 -1 6.5 4.5t23 25t42.5 47.5t71 81q105 121 387 411q121 126 187.5 189t152.5 135q63 52 89.5 68
t49.5 16q41 0 33 -49q-9 -47 -65 -160q-8 -18 -95 -187q-165 -322 -239 -485q-78 -171 -148.5 -367t-62.5 -219q6 -19 -14.5 -26t-30.5 10q-15 20 61 246q103 303 402 889q154 301 137 301q-7 0 -90 -70.5t-144 -128.5q-106 -100 -303.5 -307t-357.5 -387q-88 -97 -115 -97
q-12 0 -22.5 12t-10.5 27q0 24 39 174t78 277q49 148 66 219q14 57 23 111.5t5 54.5q-3 0 -24.5 -27t-52.5 -69t-56 -80q-45 -67 -168.5 -270t-197.5 -332q-92 -160 -193 -357z" />
    <glyph glyph-name="N" unicode="N" horiz-adv-x="1609" 
d="M70 66l-4 -5q-18 0 -23 9q-11 25 315 665q62 121 220 408q131 241 155 270q11 13 26.5 12t24.5 -16q14 -23 -28 -231q-44 -220 -61 -360t-17 -290q0 -158 17 -254t55 -159q69 -114 208 -60q45 18 116 74t114 111q89 110 178 283.5t150 357.5q44 132 87.5 310t43.5 228
q0 14 3.5 17t16.5 2l21 -2l-2 -56q-4 -136 -86.5 -399t-182.5 -461q-137 -272 -300 -412t-298 -102q-66 20 -106.5 76.5t-65.5 163.5q-26 112 -26 274.5t26 339.5q26 172 70 379q15 63 12 66l-10 -14q-9 -16 -64 -116q-31 -56 -51 -92q-111 -201 -292 -555t-212 -430
q-7 -20 -13 -26t-17 -6z" />
    <glyph glyph-name="O" unicode="O" horiz-adv-x="1396" 
d="M791 1411v-2q105 27 190 27q143 0 231 -82q183 -167 119 -473q-43 -208 -176 -412t-293 -319q-142 -102 -250 -134q-133 -38 -215 -11.5t-151 130.5q-23 35 -31.5 67.5t-11.5 90.5l-2 59l-41 35q-88 75 -108 196t34 255q72 181 276 347t429 226zM1221 705l-4 -9
q42 104 56 163.5t17 144.5q9 210 -119 311q-101 80 -221 74q-131 -6 -282 -73.5t-282.5 -177t-207.5 -233.5q-73 -118 -82 -248q-9 -137 80 -239q23 -27 27 -23t18 70q25 118 105.5 278.5t181.5 294.5q81 106 113 103q36 -3 -9 -54q-77 -85 -160 -225t-137 -276
q-17 -42 -36 -116.5t-19 -96.5q0 -9 50 -21t87 -12q39 0 66 12q44 19 49 0q1 -4 0 -8q-4 -14 -35 -27q-62 -27 -172 -2l-49 11v-43q0 -74 31 -131q42 -74 103 -99.5t155 -13.5q145 21 334 182q219 186 342 484z" />
    <glyph glyph-name="P" unicode="P" horiz-adv-x="1554" 
d="M842 1440l-2 -4q120 20 301 20q75 0 127 -6q148 -15 249.5 -60t141.5 -112q25 -40 27 -97t-21 -110q-38 -82 -150 -182t-278 -203q-159 -97 -351 -164.5t-343 -77.5q-5 0 -14 -1q-33 -1 -44 -12q-14 -13 -58 -106l-15 -30q-105 -222 -90 -234q10 -8 6.5 -17.5
t-17.5 -14.5q-19 -6 -22.5 -5.5t-14.5 9.5q-11 11 -6 33q14 57 109 260q49 100 49 108q0 6 -45 10q-65 5 -102 39t-16.5 78t93.5 88q53 35 158 66l76 22l61 105q43 74 132.5 213.5t150.5 228.5q23 33 33.5 43t19.5 8q15 0 19 -12q1 -8 -10.5 -27t-77.5 -121q-33 -51 -54 -83
q-58 -89 -107 -169t-75.5 -126.5t-22.5 -46.5q1 0 9 1t25 3.5t28 3.5q62 8 113 8q58 0 77 -12q28 -19 16 -30t-44 3q-15 7 -30 8t-56 -4q-63 -7 -119 -18l-55 -11l-58 -104q-55 -101 -55 -113q0 -7 27 -4q215 23 448.5 127.5t433.5 265.5q112 91 163.5 165.5t51.5 146.5
q0 75 -63 127q-109 89 -360 106.5t-490 -47.5q-148 -40 -287 -118.5t-232 -172.5t-112 -178q-6 -28 -12.5 -36t-18.5 -3q-17 9 -14.5 38.5t25.5 75t57 85.5q118 139 305.5 238t409.5 139zM496 567l4 -2q54 103 51 110q0 2 -4 1q-1 0 -21 -4q-86 -25 -156.5 -71.5
t-70.5 -78.5q0 -19 10 -26q35 -23 101 -23h36z" />
    <glyph glyph-name="Q" unicode="Q" horiz-adv-x="1341" 
d="M791 1411h4q79 21 147 27q140 9 248.5 -63t144.5 -212q11 -40 9.5 -135.5t-13.5 -144.5q-51 -212 -181.5 -416t-287.5 -317q-6 -4 -18.5 -12.5t-18.5 -12.5q98 -33 182 -67t93 -44q11 -11 0 -22q-8 -8 -30.5 -1.5t-115.5 42.5q-100 38 -172 63q-88 -56 -170 -80
q-50 -14 -111 -16t-100 8q-37 9 -84.5 48t-70.5 79q-22 39 -31 71.5t-12 86.5l-2 59l-41 35q-88 75 -108 196t34 255q72 181 276 347t429 226zM1225 707l4 -7q42 105 56.5 164t17.5 144q2 55 -9 109.5t-37.5 106t-66 90t-98.5 60.5t-131 19q-131 -6 -282.5 -73.5t-283 -177
t-207.5 -233.5q-73 -118 -82 -247q-9 -138 80 -240q23 -27 27 -23t18 70q25 118 105.5 278.5t181.5 294.5q81 106 111 103q36 -3 -8 -53q-77 -85 -160 -225.5t-137 -276.5q-17 -42 -36.5 -116.5t-19.5 -96.5q0 -9 50.5 -21t87.5 -12q38 0 65 12q44 19 49 0q1 -4 0 -8
q-3 -13 -35 -26q-63 -28 -172 -3l-49 11v-43q0 -132 94 -207q41 -34 82 -41.5t111 4.5q79 14 182 72q-100 33 -127 37q-24 3 -28 16q-5 12 6 17.5t34 2.5q36 -5 160 -45q57 37 105 80q219 186 342 484z" />
    <glyph glyph-name="R" unicode="R" horiz-adv-x="1667" 
d="M274 8l-6 2q-10 10 0 51q8 34 49.5 138.5t75.5 173.5q29 63 27 65q-4 4 -111 4q-106 0 -114 11q-12 15 11 20t116 8q116 6 127 13q7 7 53 86q87 161 311 501q2 3 82 133q56 91 66 101q12 12 24 8.5t12 -18.5q0 -24 -268 -443q-74 -116 -143.5 -235.5t-65.5 -122.5
q9 -8 206 30t284 64q201 58 372.5 148t284.5 194q73 69 103.5 121.5t25.5 103.5q-8 96 -119.5 155t-299 69t-437.5 -27q-234 -37 -430.5 -120t-312.5 -193q-40 -39 -74.5 -88.5t-34.5 -69.5q0 -17 -11 -25t-22 0q-32 22 13.5 97.5t136.5 148.5q137 113 351 192.5t458 108.5
q300 37 504.5 -0.5t287.5 -144.5q19 -24 31 -58t12 -59q0 -87 -95 -192t-258.5 -203t-358.5 -164q-183 -62 -459 -107q-107 -17 -98 -22q159 -29 251.5 -53t264.5 -80q174 -57 227.5 -82t44.5 -45q-4 -9 -19 -9t-24 9q-20 20 -274 100q-367 117 -533 123l-37 2l-24 -47
q-27 -52 -65.5 -140.5t-53.5 -131.5q-12 -35 -12.5 -44.5t8.5 -13.5q30 -17 -6 -39t-54 -4z" />
    <glyph glyph-name="S" unicode="S" horiz-adv-x="970" 
d="M133 -39l2 2q-57 13 -78.5 58t4.5 92q17 29 46 55.5t86 64.5q123 84 174 84q25 0 42 -10.5t17 -25.5q0 -9 -13.5 -11t-19.5 6q-12 17 -78.5 -15.5t-138.5 -90.5q-130 -107 -57 -162q12 -9 24 -11.5t45 -2.5q55 0 97 10q198 43 330.5 119.5t134.5 148.5q0 29 -23 50.5
t-85.5 50.5t-205.5 84q-135 53 -213 105.5t-119 119.5q-19 31 -22.5 46t-3.5 63q0 46 4 61t27 53q72 121 247 248q341 253 656 289q106 12 158.5 -25t43.5 -119q-3 -32 -18 -73q-55 -154 -229 -346q-61 -69 -110.5 -112t-61.5 -38q-32 9 18 53q65 59 145 155.5t125 172.5
q50 82 68 141q9 31 12.5 51.5t0 42.5t-18.5 37q-35 35 -139 21q-145 -17 -322.5 -101t-335.5 -210q-189 -151 -219 -261t90 -213q44 -38 101.5 -67.5t205.5 -89.5q157 -62 199 -88q108 -69 56 -162t-244 -172q-108 -44 -229 -67.5t-175 -10.5z" />
    <glyph glyph-name="T" unicode="T" horiz-adv-x="888" 
d="M252 -4l2 -4q-28 28 111 350q64 149 139.5 289t310.5 543l103 176h-35q-67 0 -297 -23q-327 -37 -453 -63q-74 -15 -78 -13q-7 3 -6.5 14t8.5 17q9 6 83.5 21t140.5 24q113 17 299.5 36.5t289.5 25.5l72 4l19 24q20 25 34 23q15 -2 15 -23l-2 -20l49 4q63 5 227 8
q197 5 361 -5.5t190 -29.5q10 -6 8 -18.5t-14 -18.5q-13 -8 -23 2q-15 17 -92.5 22t-341.5 5q-332 0 -368 -4l-33 -6l-123 -213q-40 -69 -97.5 -166t-60.5 -103q-271 -463 -373 -759q-17 -46 -20 -63.5t4 -24.5q10 -15 -2 -27q-27 -24 -47 -4z" />
    <glyph glyph-name="U" unicode="U" horiz-adv-x="1157" 
d="M139 18l13 5q-60 13 -80.5 87t-5.5 216q46 416 389 997q43 72 61 90.5t35 7.5q9 -5 5.5 -15.5t-28.5 -53.5q-254 -435 -352 -760q-60 -197 -63 -367q-1 -121 24.5 -151.5t102.5 0.5q41 18 123 85.5t141 133.5q139 155 270.5 343.5t347.5 543.5q154 249 164 252t21.5 -3.5
t11.5 -15.5q0 -6 -37 -67q-67 -110 -160 -295.5t-147 -317.5q-110 -270 -127 -450q-6 -60 -3.5 -76.5t19.5 -22.5q33 -11 6 -32q-15 -12 -33.5 -12t-29.5 12q-19 23 -8.5 133t39.5 215q34 127 86 248q5 12 7 18t5 13.5t4 10.5t0 3t-53 -74q-223 -333 -441 -545
q-85 -82 -169.5 -125t-137.5 -31z" />
    <glyph glyph-name="V" unicode="V" horiz-adv-x="886" 
d="M96 45l-4 -2q-41 25 -47.5 166.5t21.5 427.5q34 373 104 678q20 87 25.5 102t16.5 15h1q20 0 22 -20.5t-12 -86.5q-60 -284 -100 -652t-25 -497q6 -56 13.5 -77t21.5 -21q17 0 67 47.5t107 118.5q99 124 220.5 299t338.5 506q206 313 223 333q10 11 20 11h3q21 3 21 -11
q0 -12 -174.5 -283.5t-317.5 -480.5q-187 -273 -300.5 -409.5t-174.5 -161.5q-43 -18 -70 -2z" />
    <glyph glyph-name="W" unicode="W" horiz-adv-x="1824" 
d="M842 31q-55 10 -101 51q-92 80 -92 252q0 95 28 197t97 266q2 5 -27 -27l-57 -65q-234 -281 -343 -377.5t-191 -96.5q-26 0 -52 13t-41 35q-14 20 -17.5 72t5.5 102q15 78 55 186t89 203q83 158 190.5 296t144.5 134q45 -6 -16 -64q-100 -95 -213 -290.5t-164 -360.5
q-57 -182 -31 -250q39 -104 223 63q36 33 77 76q78 82 278.5 322t230.5 287q32 50 62 37q14 -5 11.5 -18t-23.5 -42q-40 -52 -106.5 -189t-98.5 -233q-59 -170 -53 -297q5 -119 52.5 -181t133.5 -62q100 0 243.5 89t272.5 230q95 104 191.5 265t162.5 325q44 110 62.5 183
t21.5 151l4 84l-18 2q-12 1 -17.5 7.5t-3 14.5t12.5 13q19 8 36.5 2t26.5 -23q12 -24 11 -90.5t-13 -128.5q-38 -184 -169.5 -431.5t-274.5 -404.5q-47 -52 -137 -127.5t-146 -109.5q-68 -42 -145.5 -68.5t-126.5 -25.5q-17 0 -45 4z" />
    <glyph glyph-name="X" unicode="X" horiz-adv-x="1538" 
d="M51 8l4 -4q-10 10 13 33q35 37 253.5 210t409.5 316q53 40 86 65.5t49 40t15 17.5q-8 16 -49.5 133.5t-53.5 157.5q-48 160 -84 350q-10 50 -11 64.5t7 19.5q15 12 26.5 0t18.5 -49q34 -161 90 -352t99 -291q1 -3 39 21t100 67q327 230 632.5 419t340.5 183q11 -3 14 -14
q1 -6 -13 -15t-57 -32q-159 -80 -487 -297q-384 -252 -522 -359l-31 -24l31 -70q55 -130 157 -307q84 -145 144 -205q21 -21 25 -29.5t-3 -15.5q-37 -39 -162 152l-40 63q-112 182 -172 317q-20 49 -27 56q-6 6 -286 -207.5t-435 -341.5q-99 -80 -104 -80q-9 0 -17 8z" />
    <glyph glyph-name="Y" unicode="Y" horiz-adv-x="1007" 
d="M449 45l2 -6q-9 8 -1.5 38.5t37.5 102.5q95 231 248 479q49 80 126 197.5t110 161.5q9 13 6 12q-2 0 -23 -20q-412 -384 -659 -437q-69 -13 -129 2q-195 47 -72 340q54 128 165 280t198 218q25 19 34.5 23t18.5 0q14 -7 14 -15q0 -10 -51 -57q-99 -94 -190 -227
t-141 -255t-38 -186q15 -86 125 -86q119 0 310 123q60 40 167 126t173 147q77 71 198.5 195.5t163.5 176.5q29 36 46 54.5t30 28t20 8t13 -12.5q4 -7 -8 -26t-60 -76q-138 -168 -311.5 -421t-276.5 -435q-79 -139 -137.5 -269t-52.5 -153t-16 -35.5t-39 4.5z" />
    <glyph glyph-name="Z" unicode="Z" horiz-adv-x="1769" 
d="M53 63l6 7q-9 7 -2 21t27 26q65 40 211 137q24 16 385 250q46 30 79 51.5t62 41t44 29.5t14 11q-3 3 -58 -4q-93 -10 -119 -11t-32 7q-16 14 13 21t120 14q128 11 139 14q22 8 246 165t393 283q112 83 217 167.5t105 92.5q0 17 -213 17q-138 0 -244.5 -9t-286.5 -36
q-326 -48 -530 -129q-28 -11 -43 -16t-24.5 -5.5t-12 2.5t-2.5 11q0 32 248 100q170 46 387 76q188 26 296.5 34.5t245.5 6.5q162 -3 185 -11q19 -8 30 -22q9 -12 8.5 -18.5t-12.5 -26.5q-30 -45 -272.5 -230t-536.5 -387l-90 -61h101q40 1 66 0.5t41 -3t20.5 -6.5t3.5 -11
q-3 -11 -86 -13q-78 0 -148 -4l-63 -4l-125 -82q-209 -137 -391 -254q-47 -30 -91 -58.5t-91.5 -59.5t-76.5 -50t-28 -20q45 6 100 16q221 36 645 70q123 8 359 8q217 0 296.5 -8t96.5 -31q8 -11 -1 -21.5t-28 -11.5q-19 -3 -22 11q-4 12 -23 16q-20 4 -313 4
q-195 0 -274.5 -2.5t-215.5 -13.5q-303 -25 -540 -66q-134 -22 -161 -25.5t-34 0.5z" />
    <glyph glyph-name="bracketleft" unicode="[" horiz-adv-x="831" 
d="M680 1358l-4 6q67 3 85.5 -2t18.5 -25q0 -10 -7 -12t-46 -2q-50 0 -90 -4l-37 -4l-78 -129q-76 -126 -181 -319t-178 -338t-67 -150q3 -3 92 12q77 13 100 14t31 -8q7 -7 2 -18t-16 -10q-3 0 -100 -19q-92 -18 -109 -18q-18 0 -35 14q-19 16 -14 31q13 45 136 280.5
t225 411.5q108 189 136 233.5t40 47.5q18 5 96 8z" />
    <glyph glyph-name="backslash" unicode="\" horiz-adv-x="405" 
d="M199 958h6q167 -562 157 -585q-5 -10 -17 -8t-21 14q-12 16 -41 123q-36 134 -103 360t-96 336q-21 80 -31 90q-9 9 -3 19t20 10q20 0 33 -28t38 -122q10 -40 58 -209z" />
    <glyph glyph-name="bracketright" unicode="]" horiz-adv-x="792" 
d="M598 1358h-2q109 15 127.5 11.5t17.5 -38.5q0 -48 -198 -467q-171 -363 -209 -439.5t-55 -86.5q-21 -13 -84 -23q-79 -14 -103 -16t-35 4q-12 8 -8 19q3 11 101 26q97 14 108 25q14 17 180 366q278 588 260 592q-11 0 -116.5 -15.5t-108.5 -17.5q-4 -4 -13 4.5t-9 16.5
q0 12 25 19t122 20z" />
    <glyph glyph-name="asciicircum" unicode="^" horiz-adv-x="358" 
d="M207 1276l-4 2q15 -6 61.5 -69t42.5 -72q-13 -29 -66 36l-26 35l-2 2q-15 22 -23 21q-10 -1 -54 -47l-1 -1l-1 -1l-1 -1l-10 -10q-49 -49 -57 -49q-9 0 -17 8t7.5 28t72.5 77q32 33 45.5 40t32.5 1z" />
    <glyph glyph-name="underscore" unicode="_" horiz-adv-x="569" 
d="M514 451l-4 -2q12 -4 8 -17q-2 -8 -20 -10.5t-92 -5.5q-118 -4 -232 -4q-122 0 -127 10q-7 15 8 20q21 6 142 9q299 9 317 0z" />
    <glyph glyph-name="grave" unicode="`" horiz-adv-x="192" 
d="M63 1104l-2 -2q11 0 46.5 -36t35.5 -46q0 -20 -34 6q-14 11 -29 27q-42 42 -31 49z" />
    <glyph glyph-name="a" unicode="a" 
d="M459 635l-4 2q43 30 48 12q1 -3 1 -10q0 -6 -23 -29q-30 -30 -80 -68.5t-88 -60.5q-67 -38 -109.5 -43.5t-72.5 19.5q-17 13 -21 22t-4 33v35l-49 -37q-142 -109 -198 -74q-38 23 2.5 96.5t115.5 116.5q45 25 78 25q46 0 64 -37l10 -21l21 17q17 14 25.5 15.5t17.5 -7.5
q6 -7 3.5 -15.5t-16.5 -33.5q-42 -76 -22 -105q10 -12 39 -10q68 6 198 111q60 45 64 47zM39 549l4 -2q36 26 41.5 34t1.5 23q-8 24 -14 27q-4 4 -11 4q-34 2 -98 -54.5t-74 -99.5q-4 -19 6 -19q12 0 54 25q35 22 90 62z" />
    <glyph glyph-name="b" unicode="b" horiz-adv-x="550" 
d="M580 643l-9 2q3 -12 -43 -47q-78 -59 -135.5 -78.5t-156.5 -27.5q-51 -5 -89 -27q-57 -32 -115 -25q-35 4 -33 22q1 11 17 23q39 27 107 33q24 3 34.5 8t24.5 19q46 46 47 79q-1 16 -14 17q-31 0 -103.5 -55t-146.5 -133q-41 -42 -60 -54.5t-30 -3.5q-11 11 23 90
q23 57 73 151.5t97 170.5q38 63 111.5 169t86.5 118q10 9 26 7.5t19 -11.5q4 -12 -53 -91q-146 -207 -264 -432l-25 -47l64 55q168 142 231 91q39 -33 -4 -103q-6 -10 -10.5 -18.5t-6.5 -13.5t-1 -5q4 -3 48 5t64 16q6 2 29 10t32.5 11.5t27 11t31.5 16.5t28 20
q21 16 33.5 24.5t23 13t15.5 1.5t6 -12z" />
    <glyph glyph-name="c" unicode="c" horiz-adv-x="458" 
d="M397 608l2 -4q92 63 100 42q1 -3 1 -7q0 -11 -43 -43q-102 -76 -238 -137q-46 -20 -100 -31.5t-76 -5.5q-2 1 -27 6q-40 8 -60.5 39.5t-10.5 69.5q19 69 74.5 113.5t101.5 27.5q28 -10 37 -46q9 -32 -12 -37l-5 -1q-12 0 -17.5 7t-10.5 26q-3 15 -13 20q-12 3 -44.5 -25
t-47.5 -55q-53 -89 23 -104q118 -25 366 145z" />
    <glyph glyph-name="d" unicode="d" horiz-adv-x="589" 
d="M625 657l-7 -2q22 -7 -6 -35q-19 -19 -69 -59q-120 -92 -182 -123.5t-109 -23.5q-15 4 -33 18q-12 11 -15 22t-3 46q0 50 20 106q25 65 21 66q-2 1 -18 -19l-13 -16q-45 -58 -91 -104.5t-73 -61.5q-44 -25 -78.5 -16.5t-34.5 43.5q0 38 36.5 94t74.5 78q49 28 92 -6
l25 -21l43 59q48 65 213 314q57 88 76 88q4 0 12 -4q12 -7 9.5 -18.5t-23.5 -43.5q-88 -130 -172 -326t-70 -239q16 -55 166 47q20 14 43 31q93 69 125 89t41 17zM82 557l2 -2q34 36 39.5 46.5t-2.5 21.5q-14 22 -29 22q-4 0 -16 -4q-26 -12 -64 -72t-30 -77q8 -18 70 37
q14 12 30 28z" />
    <glyph glyph-name="e" unicode="e" horiz-adv-x="399" 
d="M373 614l2 -2q79 61 80 33v-4q0 -14 -68 -68q-114 -89 -196 -124.5t-150 -24.5q-52 9 -78.5 35.5t-21.5 64.5q6 53 58.5 101.5t100.5 48.5q13 0 25 -6q27 -12 24.5 -37t-32.5 -51q-27 -23 -72 -27h-20.5h-13.5t-8 -0.5t-5 -2t-4 -5.5q-8 -15 -4 -37q3 -49 80 -49
q105 0 303 155zM45 612l2 6q-19 -16 -10 -22q9 -4 14 -3.5t25 9.5q15 7 24.5 20.5t3.5 18.5h-4q-19 0 -55 -29z" />
    <glyph glyph-name="f" unicode="f" horiz-adv-x="335" 
d="M352 639l6 4q11 6 20 9t16.5 4t11.5 -1t4 -8q0 -16 -33 -33q-159 -77 -311 -92q-71 -7 -74 -10t12 -18q13 -13 33 -45q10 -20 13 -37.5t3 -61.5q0 -68 -20 -114q-34 -82 -90 -120.5t-97 -9.5q-56 39 23 254q30 80 43 103l18 35l-22 12q-23 14 -19 24t33 13l33 2l41 72
q116 204 235 364q68 94 86 94q16 0 19 -10q3 -7 -11 -28t-92 -132q-42 -60 -126.5 -194t-94.5 -158q-3 -8 6 -8q6 -1 33 2q24 2 86 12q33 6 103 30.5t112 45.5zM12 381v-2q-3 24 -17 54t-22 30q-18 -15 -57 -132.5t-39 -156.5q0 -36 7.5 -40.5t35.5 13.5q38 26 68 102
t24 132z" />
    <glyph glyph-name="g" unicode="g" horiz-adv-x="546" 
d="M565 657l-4 2q23 -10 -22 -36q-7 -4 -17 -9q-20 -10 -65 -30q-169 -74 -187 -101q-9 -11 -59 -88q-102 -154 -213 -243q-70 -57 -131.5 -77t-89.5 5q-35 31 15 101t171 157q124 89 236 156q20 12 29 25t24 52q22 60 18 64q-9 8 -41 -12.5t-108 -81.5q-85 -69 -119.5 -89
t-60.5 -14q-30 6 -31 39t24.5 77.5t69.5 82.5q29 26 42 32.5t36 8.5q23 1 33 -1t22 -11q20 -16 23 -25q3 -6 11 -3.5t36 17.5q36 20 56.5 22.5t37.5 -11.5q11 -8 13 -16.5t-1 -33.5q-3 -32 -8 -51q-3 -8 3 -7q10 2 54 24q54 27 140 59q46 16 59 16h4zM55 539l-2 2
q76 64 76 73q-2 2 -8.5 9t-9.5 10q-5 8 -11 8q-5 0 -24 -8q-23 -11 -57.5 -49t-49.5 -70q-20 -42 -8 -42q13 1 94 67zM104 340l-2 4q61 83 62 86q-5 0 -88 -55q-118 -78 -194.5 -150t-76.5 -104q0 -12 4 -15t17 0q18 4 49 19q52 28 114 86t115 129z" />
    <glyph glyph-name="h" unicode="h" horiz-adv-x="591" 
d="M631 647l2 2q3 -5 -25 -33q-41 -38 -115 -87t-112 -62q-41 -14 -80 -6t-49 33q-8 20 -8 71q0 53 -6 53q-12 0 -67 -34.5t-114 -79.5q-88 -70 -100 -70t-20 8q-10 8 -5 29.5t29 75.5q36 78 123.5 215t170.5 246t107 116q14 5 22 1t5 -17q0 -9 -55 -80q-113 -147 -215 -307
q-36 -56 -75 -126t-36 -73q4 -4 68 45q50 38 101 66.5t71 28.5q10 0 28 -9q9 -6 12.5 -20.5t6.5 -61.5l2 -43q1 -12 2 -18t6 -9t8 -3.5t13 -1.5q26 -3 80 26q30 16 106.5 67.5t79.5 53.5q32 19 39 4z" />
    <glyph glyph-name="i" unicode="i" horiz-adv-x="372" 
d="M150 776q-15 -19 -31.5 -23.5t-22.5 7.5q-5 9 16 35.5t31 25.5q38 -6 7 -45zM324 614h-2q85 56 95 35q1 -2 1 -4q0 -5 -41 -35q-74 -53 -195 -114q-64 -32 -97 -43t-65 -11q-33 0 -57 19q-22 17 -22 39q0 20 14.5 56t34.5 65q41 61 59 61q9 0 19 -10q6 -6 1 -19t-28 -49
q-63 -102 -38 -121q8 -6 26 -6q35 0 116.5 37.5t178.5 99.5z" />
    <glyph glyph-name="j" unicode="j" horiz-adv-x="309" 
d="M117 786v5q-9 -17 -24 -21t-21 8q-5 11 8.5 30t25.5 19q15 0 18 -11t-7 -30zM340 655l4 2q10 -7 6 -16q-4 -8 -104 -41q-74 -24 -172 -72q-76 -38 -86 -59q-67 -127 -125 -211q-88 -126 -187.5 -189t-164.5 -34q-35 15 -31 56t47 95q44 57 148.5 138t220.5 149
q43 27 56.5 45.5t43.5 99.5q13 36 22.5 50t20.5 12h6q22 -8 -6 -84l-16 -49q30 12 65 28q74 34 154 60q56 20 75 23.5t23 -3.5zM-225 227h-2q32 38 84.5 117t52.5 88q-11 0 -83 -51t-138 -105q-150 -121 -164 -178q-7 -31 9 -36t60 14q37 15 88.5 58t92.5 93z" />
    <glyph glyph-name="k" unicode="k" horiz-adv-x="546" 
d="M598 651l-4 6q11 -19 -35 -55q-94 -73 -227 -129q-92 -40 -162 -18q-62 19 -84 61q-12 19 -18 16q-7 -3 -78 -71q-72 -68 -80 -68q-11 0 -19 8t29.5 84t102.5 185q73 124 177 277.5t128 170.5q9 6 18 6q19 0 19 -16q0 -9 -86 -133q-174 -251 -254 -397l-27 -48l65 52
q64 50 117.5 79t86 30.5t42.5 -23.5q10 -27 -37 -64q-19 -14 -59 -30.5t-66 -20.5q-15 -2 -20.5 -9t0 -17.5t20.5 -22.5q60 -49 179 2q150 68 206 112q33 26 46.5 33.5t19.5 -0.5zM158 610q-6 -6 -3.5 -6t21.5 6q21 9 49 23q27 16 22 23q-1 1 -5 1q-6 0 -41 -19.5t-43 -27.5
z" />
    <glyph glyph-name="l" unicode="l" horiz-adv-x="442" 
d="M475 657v-2q10 0 14 -12q0 -5 -30 -35q-39 -36 -100.5 -82.5t-98.5 -68.5q-144 -81 -223 -56q-15 4 -30 19.5t-23 32.5q-38 93 106 333q72 120 169.5 217t166.5 119q24 6 31 6q9 0 22 -8q28 -17 28.5 -52.5t-25.5 -81t-69 -95t-106 -99.5t-133 -90q-55 -29 -74 -34
q-18 -6 -25 -16t-22 -52q-20 -55 -22.5 -99t12.5 -57q24 -21 78.5 -8t124.5 56q16 9 139 100q88 65 90 65zM154 809v2q-62 -95 -50 -96q10 0 72 41q117 75 199 164q41 44 67.5 94.5t18.5 70.5q-3 9 -8 9q-3 0 -21 -7q-51 -22 -136 -107t-142 -171z" />
    <glyph glyph-name="m" unicode="m" horiz-adv-x="829" 
d="M862 647h4q5 -11 -8.5 -23.5t-83.5 -64.5q-115 -86 -184 -115t-115 -10q-40 16 -20 88q3 13 20 72q7 26 4 29q-9 9 -127 -74q-47 -34 -70 -43t-38 0q-11 6 -12.5 24t4.5 62q3 28 2 35.5t-7 7.5q-20 0 -75.5 -43.5t-124.5 -112.5q-26 -26 -38 -33.5t-24 -5.5t-15 6.5
t-3 22.5q0 37 40.5 128t59.5 97q11 4 19 -4q7 -7 1 -26t-34 -80q-11 -23 -17.5 -38.5t-5.5 -15.5t47 37q68 59 107 83t68 24q34 0 44 -21t1 -75l-7 -35l58 41q102 73 145 78q18 1 25.5 -1.5t15.5 -13.5q9 -10 8 -22.5t-14 -61.5q-20 -67 -22 -78.5t6 -19.5q6 -7 13 -7.5
t30 5.5q40 11 86.5 41t142.5 102q50 37 68.5 45.5t25.5 -4.5z" />
    <glyph glyph-name="n" unicode="n" horiz-adv-x="624" 
d="M657 647l7 8q3 -10 -33 -39q-45 -39 -118 -86t-126 -69q-109 -49 -147 10q-11 17 -7.5 41t23.5 76q18 47 14 51q-8 6 -66.5 -28.5t-99.5 -69.5t-88 -67t-57 -32q-16 0 -27 11q-11 8 -8 30q6 34 51 108.5t66 84.5q12 6 22 -4q9 -7 8 -12.5t-14 -24.5q-20 -28 -48.5 -75.5
t-33.5 -61.5q-6 -16 76 49q196 151 246 112q29 -20 -4 -98q-15 -37 -18 -63t8 -29q28 -7 105 32.5t185 116.5q42 31 60 37t24 -8z" />
    <glyph glyph-name="o" unicode="o" horiz-adv-x="434" 
d="M487 653l2 -4q4 -5 -0.5 -13.5t-20.5 -21t-44 -28.5q-142 -82 -272 -82q-43 0 -48 -10q-5 -12 -36.5 -38t-51.5 -32q-50 -16 -86 8q-35 26 -27 76t58 110q30 37 41 41q9 3 29 15q18 12 45 12q28 0 43 -12q24 -23 28 -45.5t-10 -57.5l-10 -28h33q112 0 243 80
q41 25 58 31.5t26 -1.5zM49 492l14 16l-18 10q-38 27 -43 35l-16 22l-17 -28q-33 -56 -18 -84q7 -13 19.5 -13.5t37.5 11.5q25 11 41 31zM96 582h2q12 58 -18 61h-6q-15 -2 -29 -18t-14 -33q0 -18 22 -35q21 -14 29 -10q6 3 14 35z" />
    <glyph glyph-name="p" unicode="p" horiz-adv-x="505" 
d="M563 657l-4 -4q12 -8 12 -14q0 -9 -28 -31q-70 -56 -183 -102q-38 -15 -96 -30t-96 -19q-32 -4 -55 -19q-41 -26 -76.5 -34t-48.5 4q-8 7 -22 -8q-20 -22 -122 -164q-107 -153 -118 -160q-10 -9 -21 -9t-16 9q-4 13 6 33q18 38 108 195t148 251q52 84 71.5 110.5
t30.5 28.5h6q14 0 17 -6q6 -12 -119 -215q-25 -41 -23 -41q5 0 46 55q71 91 136.5 144t108.5 53q34 0 46.5 -20t0 -54.5t-46.5 -74.5l-28 -35l51 12q74 16 128.5 40t127.5 77q46 33 59 28zM92 483v-2q27 0 83 63t50 91q-1 10 -7 10.5t-19 -6.5q-31 -14 -91.5 -68t-84.5 -92
l-9 -12l31 8q32 8 47 8z" />
    <glyph glyph-name="q" unicode="q" horiz-adv-x="401" 
d="M465 666l8 -7q33 -8 -16 -49q-31 -25 -126 -80.5t-161 -87.5l-74 -34q-1 0 0.5 -4t5.5 -10t9 -13q25 -37 20.5 -92.5t-35.5 -112.5q-24 -42 -64 -74.5t-69 -31.5q-47 3 -47 65q1 49 39.5 136t97.5 175q8 13 26 39.5t23 34.5l19 29l-51 -43q-90 -73 -129 -55
q-12 5 -16 10.5t-5 23.5q-2 27 21 72q19 34 50 67.5t54 43.5q60 28 96 -27q5 -7 10.5 -5t26.5 17q37 27 49 27q5 0 13 -4q10 -8 4 -20.5t-47 -69.5q-45 -62 -63.5 -89.5t-14.5 -27.5q17 0 141.5 70.5t161.5 101.5q32 29 43 25zM74 555l-4 2q34 30 39.5 38t1.5 21
q-7 17 -19 21q-22 0 -62 -42t-55 -81q-12 -31 -7 -33.5t34 17.5q27 15 72 57zM-6 119l2 -2q46 31 75.5 104.5t14.5 120.5q-9 31 -18 31q-12 0 -35 -45q-63 -119 -70 -191q-3 -27 2.5 -30t28.5 12z" />
    <glyph glyph-name="r" unicode="r" horiz-adv-x="456" 
d="M365 647l2 -4q65 23 65 -2q0 -10 -26 -23q-47 -21 -107 -24q-73 -5 -115 37q-18 18 -24 18q-7 0 -56 -46.5t-102 -104.5q-63 -70 -74 -70q-10 0 -18 8q-20 20 63 154q33 55 48.5 68t29.5 1q8 -6 7 -10.5t-11 -23.5q-10 -16 -8 -16q4 -1 55 40q31 24 46 34.5t28 13
t20 -3.5t17 -23q13 -21 27.5 -29t48.5 -8q41 0 84 14z" />
    <glyph glyph-name="s" unicode="s" horiz-adv-x="352" 
d="M326 643l-2 -2q14 6 25 9.5t19 5.5t13.5 2t9 -1.5t5 -5t1.5 -8.5q0 -15 -55 -35q-14 -5 -72.5 -26.5t-93.5 -34.5l-117 -47l-4 -33q-4 -34 -25.5 -61t-52.5 -39q-65 -25 -98 -5q-13 8 -13 29.5t13 36.5q10 12 44 36t59 38l16 8l-12 53q-9 35 -9.5 48t7.5 30q19 43 51 43
q8 0 12 -2q15 -6 15.5 -15t-13.5 -16q-33 -17 -18 -76q8 -29 12.5 -35t15.5 1q2 2 115 47q33 13 88 32t64 23zM-41 408l-2 2q31 20 41 47q6 14 -4 14q-6 0 -44 -28t-44 -37q-5 -8 -2.5 -10.5t14.5 -2.5q19 0 41 15z" />
    <glyph glyph-name="t" unicode="t" horiz-adv-x="276" 
d="M465 961l-2 2q208 -2 231 -11q13 -6 11 -20q-1 -10 -22.5 -14t-31.5 4q-6 5 -189 5.5t-220 -3.5q-19 -3 -27 -10.5t-25 -36.5q-12 -19 -67 -113q-225 -387 -298 -525.5t-73 -170.5q0 -29 -6 -35q-7 -9 -25 -7.5t-24 11.5q-10 17 42.5 130.5t145.5 276.5q31 54 135 238
q46 81 95 164q41 70 37 74q-3 3 -142.5 -4t-189.5 -13q-37 -5 -47.5 -4t-16.5 8q-16 18 26 27q14 3 36 6q48 6 161 13.5t162 7.5h41l45 69q47 69 60 72q22 3 20 -15t-28 -61q-33 -57 -33 -59t219 -6z" />
    <glyph glyph-name="u" unicode="u" horiz-adv-x="550" 
d="M580 647l-2 -2q6 -11 -8 -25.5t-72 -52.5q-84 -58 -155.5 -91t-109.5 -32q-41 1 -56.5 24.5t-12.5 55.5l4 41l-55 -45q-67 -54 -106 -64.5t-62 17.5q-27 35 37 145q26 43 40 53.5t29 -1.5q8 -6 5.5 -15t-21.5 -39q-32 -57 -37 -69q-6 -14 -8.5 -28.5t-1.5 -24t6 -9.5
q16 0 151 109q56 45 75.5 53.5t27.5 -8.5q4 -7 -19 -66q-22 -57 -22 -71q0 -53 130 14q68 35 161 98q12 9 45 31q28 20 37 2z" />
    <glyph glyph-name="v" unicode="v" horiz-adv-x="507" 
d="M483 633l6 -2q76 44 76 17v-5q-4 -11 -51 -37q-54 -33 -117 -51q-123 -38 -184 4l-20 14l-50 -51q-82 -82 -118 -86q-18 -1 -31 11t-17 26q-1 3 3 57q5 64 17.5 105.5t29.5 42.5q19 1 20.5 -15.5t-10.5 -66.5q-8 -30 -12 -57.5t-3 -44.5t7 -17q9 0 56 46t85 93
q53 66 68 66q36 0 10 -39q-50 -74 57 -68q81 3 178 58z" />
    <glyph glyph-name="w" unicode="w" horiz-adv-x="647" 
d="M684 649l12 -2q3 -9 -49 -41q-34 -22 -88 -41q-38 -14 -81 -19t-68 1q-28 6 -36 4.5t-18 -14.5q-15 -20 -50 -50.5t-52 -37.5q-25 -11 -48.5 -9t-35.5 15q-22 22 -27 80l-2 26l-41 -45q-66 -72 -102 -72q-12 0 -29 13q-11 8 -13 16t1 33q7 64 51 145q10 20 17 26.5
t18 6.5q20 0 20.5 -12.5t-18.5 -46.5q-18 -31 -36 -83t-13 -57q9 -9 74 66q54 60 71 71.5t35 -1.5q11 -8 8 -58q-3 -36 3.5 -65t17.5 -29q9 0 47 31t53 51q23 33 23 57q0 30 13.5 51.5t33.5 22.5q49 3 24 -64q-11 -33 -8 -36q4 -4 45 -4q88 0 172 55q70 45 76 16z" />
    <glyph glyph-name="x" unicode="x" horiz-adv-x="479" 
d="M512 662q15 -10 -10 -35q-12 -10 -37 -31q-131 -114 -240 -137q-73 -16 -151 43l-27 22q-9 7 -14 2l-15 -14q-90 -88 -109 -73l-5 7q-3 6 27 38.5t57 52.5q22 15 24 26t-10 39q-16 36 -16 62q-1 19 1 23.5t13 6.5t16.5 -5t14.5 -34q3 -9 7 -20.5t6 -18t3 -8.5q3 -10 20 1
q12 8 48 38q59 48 73 45q33 -4 2 -37q-16 -17 -51 -45l-63 -53q-5 -3 0 -8l14 -14q40 -46 96 -46q32 0 64.5 10t65 30.5t46 30t39.5 30.5q63 49 84 63t27 9z" />
    <glyph glyph-name="y" unicode="y" horiz-adv-x="518" 
d="M559 647h4q1 -3 -11 -12t-39.5 -25t-70.5 -39q-23 -13 -61 -33q-86 -47 -101.5 -58t-23.5 -33q-1 -3 -2 -5q-13 -36 -50 -98t-65 -96q-47 -58 -112.5 -105t-116.5 -59q-37 -8 -64 -4q-35 8 -44.5 36.5t12.5 65.5t116 112t217 152q72 46 74 48q3 3 16 56.5t13 65.5
q0 17 -6 17q-7 0 -82 -68q-85 -77 -111 -95t-55 -21q-21 -1 -29 1t-16 11q-19 22 -7 76t46 104q24 37 41 37q8 0 14 -6q8 -6 5.5 -13.5t-19.5 -35.5q-37 -60 -45 -111q-5 -29 6 -29q18 0 155 129q38 38 70 52q23 9 30.5 9.5t20.5 -7.5q19 -10 23 -28t-4 -56q-7 -44 -4 -47
q6 -6 116 55q32 18 55 30t41 21t29 12.5t18.5 4t11 -2t5.5 -8.5zM90 260l-4 2q25 32 63 93t35 67q-14 0 -136 -87t-161 -126q-60 -60 -47 -90q6 -12 35 -7.5t64 23.5q39 22 82 57.5t69 67.5z" />
    <glyph glyph-name="z" unicode="z" horiz-adv-x="542" 
d="M580 649l-2 -4q2 -3 -8.5 -12t-28.5 -21q-16 -11 -29.5 -19t-41 -22.5t-44.5 -23.5q-116 -62 -205.5 -87.5t-189.5 -25.5q-70 0 -80 10q-8 6 -10.5 10.5t2.5 11t16.5 14t34.5 20.5q38 21 108.5 68.5t87.5 64.5l15 14l-15 -4q-24 -6 -73 -12q-41 -6 -53.5 -6t-24.5 6
q-15 7 -17.5 21.5t9.5 23.5q12 7 28 -4q12 -11 34.5 -9t137.5 25q60 12 60 -18q0 -11 -68 -64t-127 -88q-67 -42 -67 -45q2 -3 19.5 -2.5t47.5 4.5t60 10q172 34 354 152q29 20 48.5 23t21.5 -11z" />
    <glyph glyph-name="braceleft" unicode="{" horiz-adv-x="755" 
d="M686 1395l4 -2q24 -13 21 -29q-3 -18 -21 -21q-16 -4 -16 5q0 7 -27.5 6.5t-46.5 -8.5q-20 -7 -47 -31.5t-41 -46.5q-36 -55 -61 -174q-15 -69 -30 -108t-40 -71q-46 -61 -111 -88q-28 -11 -28 -14q0 -4 14 -18q31 -34 31 -88q0 -31 -17 -73t-63 -124
q-65 -116 -77.5 -159.5t13.5 -69.5q12 -12 23.5 -15.5t44.5 -3.5t41 -2.5t10 -11.5q3 -22 -32 -29.5t-78 4.5q-56 14 -72 60q-14 40 6 100.5t84 169.5q63 108 63 162q0 20 -13 44t-27 29q-20 5 -74 5q-39 0 -50.5 2t-17.5 10q-15 24 25 37q31 9 76 4q35 -5 97 27.5t91 70.5
q38 49 66 170q29 126 68.5 188.5t105.5 90.5q60 24 106 2z" />
    <glyph glyph-name="verticalbar" unicode="|" horiz-adv-x="153" 
d="M102 817l4 2q5 -479 0 -525q-5 -27 -16 -28q-7 0 -18 15q-12 18 -17 227q-13 694 -4 862q1 19 10 23t18.5 -3.5t12.5 -17.5q3 -13 10 -555z" />
    <glyph glyph-name="braceright" unicode="}" horiz-adv-x="761" 
d="M588 713l10 2q72 0 72 -33q0 -19 -25.5 -24t-60.5 6q-16 4 -25.5 1.5t-38.5 -18.5q-119 -64 -178 -239q-26 -75 -42 -104t-44 -52q-64 -55 -137 -37q-32 7 -50 22t-12 29q9 18 43 0q17 -9 46 -9t51 9q50 21 79 113q41 125 86 190q21 30 60.5 67t66.5 52l19 10l-19 25
q-12 17 -15 31t-3 51q0 56 22.5 111.5t88.5 162.5q61 95 77 131q12 29 10.5 53.5t-16.5 34.5q-34 27 -80 27q-20 0 -28 11.5t4 21.5q19 15 64 4t73 -37q38 -38 27.5 -88.5t-80.5 -167.5q-76 -125 -97.5 -174t-21.5 -102q0 -28 3 -39t15 -23t21.5 -15t34.5 -3z" />
    <glyph glyph-name="asciitilde" unicode="~" horiz-adv-x="436" 
d="M371 649h-2q36 -3 -13 -55q-29 -31 -53.5 -43t-56.5 -12q-23 0 -33.5 4t-32.5 24q-35 31 -45 31t-37 -23q-42 -39 -55 -14q-8 17 28.5 45.5t67.5 28.5q40 0 64 -33q18 -23 33 -27t38 7q29 12 54 41q29 29 43 26z" />
    <glyph glyph-name="nonbreakingspace" unicode="&#xa0;" horiz-adv-x="811" 
 />
    <glyph glyph-name="exclamdown" unicode="&#xa1;" horiz-adv-x="686" 
d="M565 952q7 -6 -0.5 -26.5t-40.5 -81.5q-94 -172 -240.5 -400t-187.5 -266q-10 -10 -22 -10q-15 0 -23 8t12 43q19 37 27 37q17 0 165 229t232 385q47 83 60 86q14 0 18 -4zM631 1098v-2q8 -6 7.5 -12t-9.5 -25q-7 -17 -13.5 -23t-17.5 -6q-10 0 -13 4t-3 19q0 17 10.5 35
t19.5 18q7 0 19 -8z" />
    <glyph glyph-name="cent" unicode="&#xa2;" horiz-adv-x="475" 
d="M379 942h2q9 0 30 -31t21 -43t-7.5 -16t-17.5 1t-18 17q-12 18 -29.5 36t-23.5 18q-8 0 -93 -174.5t-79 -178.5q4 -4 35 5.5t53 21.5q28 14 47 37q13 19 23 22t20 -8q8 -8 -8 -31q-20 -28 -67 -52t-97 -31q-22 -3 -28 -10t-21 -46q-24 -58 -27 -82q-3 -22 -6 -27t-14 -5
q-18 0 -23 16q-6 19 35 137q6 17 5.5 23.5t-9.5 13.5q-12 12 -23 41q-29 84 37 197t156 151l43 17l49 81q28 49 41.5 65.5t22.5 16.5q14 0 18 -8t-37 -82q-31 -55 -35.5 -66t4.5 -18q16 -8 21 -8zM205 778h-2q59 121 55 125q-8 0 -37 -29q-68 -62 -100 -135t-17 -133
q5 -21 13 -9q5 7 14 30q25 49 74 151z" />
    <glyph glyph-name="sterling" unicode="&#xa3;" horiz-adv-x="772" 
d="M688 1141h-6q37 -19 37 -78t-29 -59q-12 0 -14 6t0 37q1 21 -6 45t-15 24q-9 0 -35 -29.5t-47 -62.5q-33 -58 -86 -178q-14 -31 -30.5 -67t-25 -55t-9.5 -22q-3 -6 2.5 -10t24.5 -8q18 -4 31 -10.5t18 -13.5t0 -13q-7 -10 -33 -2q-28 8 -47 8q-15 0 -24.5 -8.5
t-33.5 -46.5q-64 -102 -149 -170l-47 -37l41 4q47 6 134.5 5t129.5 -7q40 -6 67.5 -18.5t30.5 -26.5q3 -12 -10.5 -18.5t-21.5 2.5q-15 20 -101.5 29t-181.5 1q-84 -7 -135 -18q-38 -6 -48.5 -5.5t-19.5 7.5q-9 8 -5 13.5t32 25.5q130 90 180 150q22 28 49 69t27 47
q0 4 -19 0q-12 -2 -24 1t-18 8.5t-3 11.5q3 9 43 12q36 4 45 8q6 3 52 101q89 190 118 240t70 85q30 26 49.5 30.5t42.5 -7.5z" />
    <glyph glyph-name="currency" unicode="&#xa4;" horiz-adv-x="538" 
d="M489 920l3 4q3 -9 -29 -35q-24 -17 -27.5 -23t0.5 -18q8 -19 4 -64q-2 -45 -26 -88l-25 -41l27 -22q29 -24 21 -37q-8 -14 -39 6q-5 3 -11 8l-22 19l-39 -21q-31 -19 -64 -28q-28 -6 -63.5 -6t-48.5 6q-11 4 -17.5 1t-23.5 -20q-33 -30 -51 -23q-7 2 -7 11q0 12 23 35
q17 17 18.5 23.5t-6.5 17.5q-41 66 20 174l17 30l-29 21q-32 24 -21 34q12 12 50 -12l24 -16l27 25q36 35 101.5 46t117.5 -16l23 -12l24 19q17 14 31 14q12 0 18 -12zM377 719v4q19 34 20 80t-16 69q-30 35 -96.5 20t-102.5 -56q-40 -45 -55.5 -92.5t-7.5 -86.5
q8 -32 53.5 -41t99.5 11q67 24 105 92z" />
    <glyph glyph-name="yen" unicode="&#xa5;" horiz-adv-x="657" 
d="M606 1096l12 -2q7 -10 -8 -33q-38 -57 -78 -113q-47 -65 -126 -190l-62 -103l29 -4q43 -4 42 -18q-1 -15 -48 -17q-30 -2 -41.5 -8t-20.5 -26q-2 -4 -6.5 -15t-5.5 -14q-4 -8 9 -9l20 -1q40 0 49 -14q3 -5 -2 -9q-2 -2 -50 -10l-45 -6l-34 -84q-21 -51 -31 -67.5
t-19 -18.5q-14 -3 -20 12q-3 13 23 80q26 69 26 70q0 4 -33 4t-43 10q-20 20 25 27l25 2q32 2 43 10t20 39l4 16l-47 -8q-40 -6 -56 -4t-16 14q0 9 15.5 14t81.5 15l43 8l22 43q17 36 68 115l45 71l-97 -77q-76 -63 -120.5 -87t-83.5 -24q-26 0 -43 10q-40 26 -9 128.5
t109 203.5q39 48 59 37q3 -1 4.5 -2.5t2 -4t0 -5.5t-2.5 -7.5t-5 -10.5t-8.5 -14t-11.5 -17.5t-15 -22.5q-80 -118 -97 -199q-8 -35 -3 -49.5t24 -11.5q51 7 140.5 80.5t238.5 228.5q33 34 49 49t28.5 23.5t18.5 6.5t12 -11z" />
    <glyph glyph-name="brokenbar" unicode="&#xa6;" horiz-adv-x="651" 
d="M594 1249v2q14 -7 6 -22l-242 -426q-2 -4 -10 -8q-6 -3 -12 0q-14 7 -6 22l241 426q7 14 23 6zM315 758v2q6 -3 8 -10t-1 -13l-242 -426q-2 -4 -10 -8q-6 -3 -13 0q-14 7 -6 23l242 426q7 14 22 6z" />
    <glyph glyph-name="section" unicode="&#xa7;" horiz-adv-x="684" 
d="M565 1098v-2q72 0 72 -37q0 -12 -27 -58.5t-41 -58.5q-12 -11 -26 -13t-17 7q-4 8 29 57q35 56 28 64q-3 4 -18 4q-40 0 -113 -46.5t-116 -99.5q-31 -36 -31 -61q0 -17 5 -25.5t20 -19.5q23 -19 71 -37q51 -22 62.5 -34.5t7.5 -43.5q-3 -27 -18.5 -54t-36.5 -42l-15 -12
l25 -23q39 -36 31 -74q-10 -49 -96 -93.5t-189 -55.5q-57 -5 -100 29t-15 90q18 35 40 55t38 18q11 -1 15.5 -6.5t1.5 -14t-13 -17.5q-32 -27 -47 -66q-7 -17 5 -31.5t36 -19.5q17 -4 74 7.5t92 25.5q34 13 69.5 41t41.5 45q6 20 -6 35t-54 38q-89 49 -117 75t-28 58
q0 19 13 46t32 47q14 14 16 20.5t-2 18.5q-7 19 1 47.5t28 54.5q32 40 90 83t104 62q46 17 78 17zM328 764l2 2q-24 12 -29 12q-4 0 -10 -6q-12 -14 -25.5 -39t-13.5 -35t8 -26q9 -12 48.5 -36t51.5 -24q10 0 31 17q17 13 30 35.5t13 37.5q0 9 -8 15.5t-31 15.5
q-25 10 -67 31z" />
    <glyph glyph-name="dieresis" unicode="&#xa8;" horiz-adv-x="194" 
d="M61 1085q14 0 19 -8.5t-4 -17.5q-14 -14 -25 -6q-4 4 -4 18t14 14zM133 1083l-2 2q12 -3 12 -18q0 -12 -11.5 -16t-16.5 6q-4 10 1.5 19t16.5 7z" />
    <glyph glyph-name="copyright" unicode="&#xa9;" horiz-adv-x="903" 
d="M553 958l-2 3q55 2 81.5 -31.5t8.5 -89.5q-21 -71 -45 -68q-13 1 -13.5 14.5t11.5 57.5q15 58 -8 73.5t-86 -10.5q-64 -26 -120 -89.5t-81.5 -134.5t-5.5 -118q7 -17 29.5 -27.5t42.5 -5.5q48 10 100 58q25 25 39 22q29 -4 5 -36q-31 -39 -93 -64q-38 -15 -56.5 -16
t-48.5 10q-29 10 -44 27.5t-23 48.5q-22 85 52 200t177 158q43 18 80 18zM852 842l4 4q0 -67 -18 -115q-46 -120 -154.5 -216.5t-237.5 -131.5q-43 -12 -105 -14.5t-99 6.5q-114 26 -170 121q-15 26 -19.5 43.5t-5.5 60.5q-3 62 8.5 105.5t46.5 103.5q65 110 168 180
q148 105 303 105q64 0 125 -23q92 -39 133 -119q14 -28 17.5 -46.5t3.5 -63.5zM782 719v-4q15 36 19 56t4 69q0 63 -9 91.5t-38 59.5q-63 66 -174 66q-85 0 -178 -41q-104 -46 -188 -136.5t-109 -183.5q-14 -51 -10 -105.5t24 -86.5q36 -59 88 -80q70 -31 172 -16
q121 19 234.5 107t164.5 204z" />
    <glyph glyph-name="ordfeminine" unicode="&#xaa;" horiz-adv-x="317" 
d="M266 1137v2q11 -11 -20 -76q-30 -66 -37 -90q-21 -61 -49 -33q-9 9 2 39q11 32 8 33t-25 -13q-30 -20 -46 -22t-33 12q-13 11 -15.5 18t0.5 27q6 43 40.5 80t66.5 37h6q19 -4 31 -16l12 -13l16 13q26 19 43 2zM137 1044l-2 3q32 29 29 47t-12 18q-11 0 -27 -22
q-9 -11 -17.5 -29.5t-11 -30.5t1.5 -14q8 0 39 28z" />
    <glyph glyph-name="guillemotleft" unicode="&#xab;" horiz-adv-x="653" 
d="M461 655h-2q-137 -56 -137 -59q0 -8 192 -102q47 -23 60 -33t8 -21q-5 -9 -22.5 -3t-90.5 40q-157 75 -184 100q-27 26 9 49q23 15 101 46q117 47 123 49q48 20 68 20h4q9 -3 12.5 -10.5t-0.5 -13.5q-3 -6 -141 -62zM211 526h2q94 -47 94 -63t-26 -7q-25 8 -105 48
q-106 54 -119 67q-14 15 -9.5 31.5t26.5 28.5q34 20 172.5 78t146.5 55q11 -3 9.5 -14.5t-13.5 -18.5q-7 -4 -147 -67q-142 -63 -146 -66q-9 -7 28 -28q25 -14 87 -44z" />
    <glyph glyph-name="logicalnot" unicode="&#xac;" horiz-adv-x="266" 
d="M209 1010l-2 -4q5 -15 7 -39t-1 -29q-9 -11 -18 17l-7 28v14q-20 -3 -51 -6q-87 -5 -92 15q-1 5 4 10q7 7 67.5 11.5t73.5 -1.5h7q2 0 6 -4q9 -6 6 -12z" />
    <glyph glyph-name="softhyphen" unicode="&#xad;" horiz-adv-x="0" 
 />
    <glyph glyph-name="registered" unicode="&#xae;" horiz-adv-x="610" 
d="M487 1057h2q40 -25 57 -55t17 -76q0 -30 -4.5 -45.5t-19.5 -42.5q-50 -85 -156.5 -138t-194.5 -36q-52 10 -91.5 44.5t-47.5 75.5q-10 64 33 136q41 72 113.5 123.5t113.5 39.5q20 -4 51 2q30 5 33 5q44 0 94 -33zM459 803l-2 -2q60 66 60 131.5t-60 99.5q-37 21 -64 21
q-9 0 -33 -4q-31 -5 -45 0q-27 12 -78 -24.5t-93 -95.5t-46 -104q-3 -39 3.5 -58t29.5 -38q32 -26 70 -30.5t96 10.5q42 10 87 36.5t75 57.5zM403 983l-2 -2q16 -14 11 -34.5t-31.5 -41.5t-61.5 -31q-34 -11 -34 -14q0 -5 41 -41q47 -42 37 -52q-2 -3 -9 -5q-13 -3 -69 45
l-56 47l-24 -43q-38 -63 -58 -45q-10 10 -4 25t45 81q45 74 65 100t32 25q6 0 16 -10q7 -7 13 -8t18 4q41 20 71 0zM322 913l-5 -2q13 6 24 14.5t16 16t1 10.5q-8 0 -33.5 -14.5t-37.5 -26.5q-13 -11 -2 -10q12 1 37 12z" />
    <glyph glyph-name="overscore" unicode="&#xaf;" horiz-adv-x="243" 
d="M197 1026l-9 -29q-20 -3 -51 -6q-87 -5 -92 15q-1 5 4 10q7 7 67.5 11.5t73.5 -1.5h7z" />
    <glyph glyph-name="degree" unicode="&#xb0;" horiz-adv-x="350" 
d="M201 1182l-2 -2q60 0 88 -43.5t0 -94.5q-24 -45 -72 -65q-49 -20 -86 -12q-46 9 -67.5 41t-11.5 72t50 71q41 33 101 33zM205 1016l2 -2q47 27 47 80q0 25 -15 38t-38 13q-35 2 -68.5 -21t-40.5 -59q-9 -46 28.5 -62t84.5 13z" />
    <glyph glyph-name="plusminus" unicode="&#xb1;" horiz-adv-x="649" 
d="M494 459h4q7 -7 4 -17q-3 -6 -29 -7.5t-113 -0.5q-129 0 -223 4q-59 3 -72 5.5t-14 11.5q-3 13 10 16q4 2 50 2q92 0 235.5 -5t147.5 -9zM502 709l2 2q35 0 55.5 -1t32 -4t15 -7t1.5 -11q-2 -8 -19 -10.5t-89 -3.5l-109 -2l-45 -78q-45 -78 -53 -78q-9 0 -17 8
q-11 9 -5.5 25t34.5 63l37 62h-90q-89 0 -100 8q-10 8 -2 16t110 11l105 2l41 63q42 63 57 66h6q30 0 1 -51q-5 -9 -13 -21q-29 -47 -37 -55q-1 -1 9.5 -2t30 -1.5t42.5 -0.5z" />
    <glyph glyph-name="twosuperior" unicode="&#xb2;" horiz-adv-x="292" 
d="M174 971l-8 -4q21 0 36.5 -3.5t22.5 -9t4 -12.5q-5 -7 -73 -10q-63 -3 -86 -8q-19 -5 -27 6q-4 7 5.5 19.5t49.5 49.5q29 26 53.5 53t36.5 45.5t7 22.5q-6 5 -24.5 -4t-33.5 -24q-20 -20 -33 -13q-10 7 -14 15q-3 9 28 33t54 30q19 5 27.5 4t21.5 -8q32 -20 20.5 -54
t-69.5 -91l-37 -37h39z" />
    <glyph glyph-name="threesuperior" unicode="&#xb3;" horiz-adv-x="301" 
d="M197 1065l-4 -2q84 -35 38 -84q-23 -25 -87 -41t-87 -4q-7 4 -10 11.5t-1 13.5t9 6h35q22 0 63 15.5t50 27.5q15 21 -47 30q-54 7 -57.5 23t42.5 45q12 8 22 15t15 12t4 6q-4 3 -26.5 -5.5t-34.5 -17.5q-13 -11 -27.5 -9.5t-15.5 13.5q-3 13 20 27q37 22 77.5 26.5
t57.5 -10.5q9 -8 10 -13t-5 -17q-7 -18 -41 -37l-33 -19z" />
    <glyph glyph-name="acute" unicode="&#xb4;" horiz-adv-x="198" 
d="M131 1102h-4q27 7 21 -10q-7 -14 -33 -41q-52 -52 -65 -40q-3 2 -3 7q0 9 36 45t48 39z" />
    <glyph glyph-name="periodcentered" unicode="&#xb7;" horiz-adv-x="215" 
d="M76 612v-2q41 19 74.5 -8t11.5 -61q-12 -19 -44 -21.5t-52 12.5q-20 17 -16.5 43t26.5 37z" />
    <glyph glyph-name="cedilla" unicode="&#xb8;" horiz-adv-x="210" 
d="M111 1047q19 -3 35 -17.5t16 -28.5t-13 -31t-30 -24q-20 -9 -31.5 -9t-26.5 9q-20 10 -8 19q8 7 27 4t32.5 8.5t10.5 26.5q-2 9 -8 12t-29 4q-36 3 -39 12q-4 8 14 41t33 33q28 0 4 -37q-6 -10 -6 -13t3 -5t16 -4z" />
    <glyph glyph-name="onesuperior" unicode="&#xb9;" horiz-adv-x="212" 
d="M166 1141l-4 -2q4 -11 -33 -105q-33 -85 -43 -114q-6 -17 -17.5 -21.5t-21.5 6.5q-17 17 31 127l18 43l-14 6q-10 3 -14 6.5t-2 9.5t9.5 14t22.5 22q23 21 33.5 26t18.5 0q12 -6 16 -18z" />
    <glyph glyph-name="ordmasculine" unicode="&#xba;" horiz-adv-x="286" 
d="M176 1135v-2q52 -6 60 -55.5t-35 -96.5q-17 -20 -41 -33.5t-41 -13.5q-13 0 -37 12q-35 17 -34 57t38 87q33 45 78 45h12zM139 981l2 -2q19 12 33 37t14 47q0 21 -18 29q-12 4 -14 4q-8 0 -23 -15q-41 -44 -41 -84q0 -24 11 -27.5t36 11.5z" />
    <glyph glyph-name="guillemotright" unicode="&#xbb;" horiz-adv-x="733" 
d="M418 616h2q26 -18 4 -34q-13 -10 -176.5 -74t-175.5 -64q-14 0 -19 5q-14 11 14 27q29 16 138 59q157 64 160 67q3 7 -136 68q-45 19 -59 28q-15 9 -19 21t7 16v0q15 -2 127.5 -53t132.5 -66zM653 639v-4q34 -23 31.5 -38t-45.5 -38q-45 -24 -158 -69t-137 -48
q-17 -1 -21 1.5t-4 13.5q0 9 15 17t72 30q70 27 157 67l72 35l-25 15q-34 21 -174 88q-79 40 -49 55v0q19 1 116.5 -45t149.5 -80z" />
    <glyph glyph-name="onequarter" unicode="&#xbc;" horiz-adv-x="1069" 
d="M455 889v8q0 16 104 203l19 35q-5 -5 -11 -9q-10 -10 -14 -8q-4 4 -4 6q-1 1 22 22.5t29 24.5t11 0.5t5 -8.5q0 -9 -45 -86q-76 -137 -92 -174q-11 -25 -22 -18q-2 0 -2 4zM743 688l7 -4q11 0 -1 -25l-24 -43q-33 -57 -33 -59t10 -2q11 0 19 -4q7 -5 2 -10q-4 -4 -21 -4
h-18l-27 -54q-6 -12 -13.5 -27.5t-12 -26t-6.5 -13.5q-8 -16 -11 -19t-7 -3.5t-5 1.5q-9 6 37 103q18 36 18 39q0 2 -51 2q-53 0 -59 4q-11 6 -8 14.5t24 34.5q35 45 55 70q29 36 33 36q3 2 7 -1t4 -7q0 -9 -64 -82q-43 -49 -43 -53h53h54l22 41q50 92 59 92zM1024 1163
l2 -4q7 -7 -8 -23.5t-82 -74.5q-225 -193 -733 -707q-85 -85 -110.5 -104t-37.5 -10q-8 7 8 28q26 32 295 303q255 258 439 426q194 174 211 174q8 0 16 -8z" />
    <glyph glyph-name="onehalf" unicode="&#xbd;" horiz-adv-x="1069" 
d="M475 889v8q0 14 105 203l18 35q-4 -5 -10 -9q-10 -10 -15 -8q-4 4 -4 6q-1 1 22.5 22.5t29.5 24.5t11 0.5t5 -8.5q0 -9 -45 -86q-76 -137 -92 -174q-4 -10 -11 -15.5t-12 -2.5q-2 0 -2 4zM745 694l-2 6q30 -24 -2 -84q-22 -42 -63 -85.5t-90 -75.5l-23 -17q7 -2 13 -4
q9 -1 28 -9t25 -13q5 -3 5 -9.5t-5 -7.5q-3 0 -19 8q-56 31 -90 17q-30 -14 -41 -10q-13 7 -2 14q15 10 35 10q6 0 32.5 15t49.5 32q75 52 117 123q24 41 24 62q0 12 -8 20q-6 6 -18 4q-43 -6 -84 -39q-15 -12 -21 -12q-15 6 14 28q20 15 46 25q57 21 79 2zM1018 1176l2 -5
q7 -7 -8 -23.5t-82 -74.5q-231 -198 -733 -706q-86 -86 -111 -105t-37 -10q-8 7 9 29q27 35 294 303q255 258 439 426q194 174 210 174q9 0 17 -8z" />
    <glyph glyph-name="threequarters" unicode="&#xbe;" horiz-adv-x="1069" 
d="M389 874l-2 -6q-33 6 -33 19q0 11 17 4q23 -10 69 4q54 17 85 49.5t22 61.5q-10 33 -64 38q-18 1 -22 2.5t-4 6.5q0 7 28 20q37 19 62.5 40t23.5 32q0 8 -10 8q-15 1 -40.5 -9t-43.5 -24q-19 -15 -23 -6q-3 7 13 19q39 31 90 34q22 1 31.5 -9.5t1.5 -27.5q-5 -11 -28 -30
t-44 -29l-18 -12q6 -2 12 -2q19 -3 34.5 -19.5t20.5 -36.5q6 -26 -14 -53q-31 -43 -96 -63q-45 -13 -68 -11zM741 674l7 -4q11 0 -1 -25l-24 -43q-33 -57 -33 -59t10 -2q11 0 19 -4q8 -5 2 -11q-4 -4 -21 -4h-18l-27 -53q-8 -16 -19 -40.5t-13 -27.5q-7 -14 -11 -18
q-3 -3 -7 -3.5t-5 1.5q-8 6 37 102q18 36 18 39q0 2 -51 2q-53 0 -59 4q-11 5 -8 14.5t24 35.5q7 9 55 69q30 37 33 37q3 2 6.5 -1t3.5 -7q0 -10 -63 -82q-43 -49 -43 -53h53h53l23 41q50 92 59 92zM1022 1149l2 -4q7 -7 -8 -23.5t-82 -74.5q-225 -193 -733 -707
q-86 -86 -111 -105t-37 -10q-8 7 9 29q27 35 294 303q255 258 439 426q194 174 211 174q8 0 16 -8z" />
    <glyph glyph-name="questiondown" unicode="&#xbf;" horiz-adv-x="770" 
d="M639 1010h2q-29 0 -20 30q6 21 19.5 27t25.5 -6q11 -11 0.5 -31t-27.5 -20zM688 530l2 9q37 0 37 -47q0 -69 -92 -148.5t-227 -126.5q-128 -46 -209 -43q-46 0 -86 19q-32 15 -45 35.5t-13 54.5q0 58 51.5 126.5t190.5 198.5q83 76 189 194t104 130q-3 17 4.5 20t26.5 -6
q12 -8 12 -20q0 -21 -102 -135.5t-242 -251.5q-107 -104 -149 -163.5t-42 -105.5q0 -56 70 -65q88 -10 228 42.5t212 123.5q47 46 66 82t4 53q-9 10 -6 17t16 7z" />
    <glyph glyph-name="Agrave" unicode="&#xc0;" horiz-adv-x="1300" 
d="M1247 1495v-2q0 -24 -40 4q-18 13 -38 33q-48 50 -34 58q4 3 16 3t54 -42t42 -54zM1163 668h8q29 0 48 -1.5t31 -4.5t17 -7.5t3 -11.5q-1 -9 -13.5 -10.5t-74.5 -1.5h-84l-25 -90q-45 -170 -73 -312.5t-23 -179.5q4 -30 0 -37q-5 -9 -23 -8t-24 10q-12 18 -3 91t44 235
q32 161 65 272l4 15l-61 -4q-197 -12 -442 -35q-146 -15 -148 -15q-9 0 -133 -189t-143 -232q-7 -20 -13.5 -26.5t-17.5 -6.5t-15.5 4t-5.5 14q-2 15 56.5 114.5t138.5 217.5q60 85 55 90q-4 4 -103.5 -11.5t-154.5 -29.5t-72.5 -13.5t-17.5 15.5q0 35 285 74l98 12l29 37
q189 244 370.5 437t301.5 278q88 61 137 61q63 0 63 -104q0 -53 -16 -130.5t-68 -273.5q-63 -232 -63 -239q0 -4 63 -4zM1067 719l-2 2q1 2 21 78t34 125q43 153 60 223q25 100 29 162t-15 69h-6q-37 3 -168 -104q-190 -156 -424 -434q-39 -46 -107.5 -133.5t-68.5 -90.5
q0 -2 9 -2l108 11q232 26 487 39l29 2z" />
    <glyph glyph-name="Aacute" unicode="&#xc1;" horiz-adv-x="1300" 
d="M1206 1524h-4q-76 -47 -87 -30q-3 3 -1 9q3 11 54.5 42.5t66.5 31.5q59 3 -26 -51q-1 -1 -3 -2zM1159 670h8q29 0 48 -1.5t31 -4.5t17 -7.5t3 -11.5q-1 -9 -13.5 -10.5t-74.5 -1.5h-84l-25 -90q-45 -170 -73 -312.5t-23 -179.5q4 -30 0 -37q-5 -9 -23 -8t-24 10
q-12 18 -3 91t44 235q32 161 65 272l4 15l-61 -4q-200 -12 -443 -35q-146 -15 -147 -15q-9 0 -133 -189t-143 -232q-7 -20 -13.5 -26.5t-17.5 -6.5t-15.5 4t-5.5 14q-2 15 56.5 114.5t138.5 217.5q60 85 55 90q-4 4 -103.5 -11.5t-154.5 -29.5t-72.5 -13.5t-17.5 15.5
q0 35 285 74l98 12l29 37q189 245 370 437.5t301 277.5q88 61 138 61q63 0 63 -104q0 -53 -16 -130.5t-68 -273.5q-63 -232 -63 -239q0 -4 63 -4zM1063 721l-2 2q1 2 21 78t34 125q43 153 60 223q25 100 29 162t-15 69h-6q-37 3 -168 -104q-190 -156 -424 -434
q-39 -46 -107.5 -133.5t-68.5 -90.5q0 -2 5 -2q2 0 111 11q231 26 488 39l29 2z" />
    <glyph glyph-name="Acircumflex" unicode="&#xc2;" horiz-adv-x="1339" 
d="M1235 1591l-4 -2q14 -12 41 -70.5t24 -68.5q-6 -21 -26 -3q-13 12 -23 34q-10 25 -26 57l-13 21l-39 -35q-56 -50 -69 -19q-3 7 41.5 45.5t64.5 46.5q17 6 29 -6zM1159 668h8q29 0 48 -1.5t31 -4.5t17 -7.5t3 -11.5q-1 -9 -13.5 -10.5t-74.5 -1.5h-84l-25 -90
q-45 -170 -73 -312.5t-23 -179.5q4 -30 0 -37q-5 -9 -23 -8t-24 10q-12 18 -3 91t44 235q32 161 65 272l4 15l-61 -4q-200 -12 -443 -35q-146 -15 -147 -15q-9 0 -133 -189t-143 -232q-7 -20 -13.5 -26.5t-17.5 -6.5t-15.5 4t-5.5 14q-2 15 56.5 114.5t138.5 217.5
q60 85 55 90q-4 4 -103.5 -11.5t-154.5 -29.5t-72.5 -13.5t-17.5 15.5q0 35 285 74l98 12l29 37q189 245 370 437.5t301 277.5q88 61 138 61q63 0 63 -104q0 -53 -16 -130.5t-68 -273.5q-63 -232 -63 -239q0 -4 63 -4zM1063 719l-2 2q1 2 21 78t34 125q43 153 60 223
q25 100 29 162t-15 69h-6q-37 3 -168 -104q-190 -156 -424 -434q-39 -46 -107.5 -133.5t-68.5 -90.5q0 -2 5 -2q2 0 111 11q231 26 488 39l29 2z" />
    <glyph glyph-name="Atilde" unicode="&#xc3;" horiz-adv-x="1327" 
d="M1274 1559v-3q15 -3 15 -19t-15 -36q-19 -25 -47.5 -25t-57.5 25l-28 23l-19 -19q-12 -12 -21.5 -16.5t-14.5 0t-5 16.5q0 17 20.5 35.5t39.5 18.5q18 0 47 -25t37 -25q7 0 22 27q13 26 27 23zM1163 668h8q29 0 48 -1.5t31 -4.5t17 -7.5t3 -11.5q-1 -9 -13.5 -10.5
t-74.5 -1.5h-84l-25 -90q-45 -170 -73 -312.5t-23 -179.5q4 -30 0 -37q-5 -9 -23 -8t-24 10q-12 18 -3 91t44 235q32 161 65 272l4 15l-61 -4q-197 -12 -442 -35q-146 -15 -148 -15q-9 0 -133 -189t-143 -232q-7 -20 -13.5 -26.5t-17.5 -6.5t-15.5 4t-5.5 14
q-2 15 56.5 114.5t138.5 217.5q60 85 55 90q-4 4 -103.5 -11.5t-154.5 -29.5t-72.5 -13.5t-17.5 15.5q0 35 285 74l98 12l29 37q189 244 370.5 437t301.5 278q88 61 137 61q63 0 63 -104q0 -53 -16 -130.5t-68 -273.5q-63 -232 -63 -239q0 -4 63 -4zM1067 719l-2 2
q1 2 21 78t34 125q43 153 60 223q25 100 29 162t-15 69h-6q-37 3 -168 -104q-190 -156 -424 -434q-39 -46 -107.5 -133.5t-68.5 -90.5q0 -2 9 -2l108 11q232 26 487 39l29 2z" />
    <glyph glyph-name="Adieresis" unicode="&#xc4;" horiz-adv-x="1320" 
d="M1126 1493q-8 8 -8 31q0 22 25 22q23 0 31 -15t-7 -30q-23 -23 -41 -8zM1262 1544h-2q22 -3 22 -28q0 -22 -21 -29t-30 12q-8 19 2 33.5t29 11.5zM1161 670h8q29 0 48 -1.5t31 -4.5t17 -7.5t3 -11.5q-1 -9 -13.5 -10.5t-74.5 -1.5h-84l-25 -90q-45 -170 -73 -312.5
t-23 -179.5q4 -30 0 -37q-5 -9 -23 -8t-24 10q-12 18 -3 91t44 235q32 161 65 272l4 15l-61 -4q-197 -12 -442 -35q-146 -15 -148 -15q-9 0 -133 -189t-143 -232q-7 -20 -13.5 -26.5t-17.5 -6.5t-15.5 4t-5.5 14q-2 15 56.5 114.5t138.5 217.5q60 85 55 90
q-4 4 -103.5 -11.5t-154.5 -29.5t-72.5 -13.5t-17.5 15.5q0 35 285 74l98 12l29 37q189 245 370 437.5t301 277.5q88 61 138 61q63 0 63 -104q0 -53 -16 -130.5t-68 -273.5q-63 -232 -63 -239q0 -4 63 -4zM1065 721l-2 2q1 2 21 78t34 125q43 153 60 223q25 100 29 162
t-15 69h-6q-37 3 -168 -104q-190 -156 -424 -434q-39 -46 -107.5 -133.5t-68.5 -90.5q0 -2 9 -2l108 11q232 26 487 39l29 2z" />
    <glyph glyph-name="Aring" unicode="&#xc5;" horiz-adv-x="1300" 
d="M1163 670h8q29 0 48 -1.5t31 -4.5t17 -7.5t3 -11.5q-1 -9 -13.5 -10.5t-74.5 -1.5h-84l-25 -90q-45 -170 -73 -312.5t-23 -179.5q4 -30 0 -37q-5 -9 -23 -8t-24 10q-12 18 -3 91t44 235q32 161 65 272l4 15l-61 -4q-197 -12 -442 -35q-146 -15 -148 -15q-9 0 -133 -189
t-143 -232q-7 -20 -13.5 -26.5t-17.5 -6.5t-15.5 4t-5.5 14q-2 15 56.5 114.5t138.5 217.5q60 85 55 90q-4 4 -103.5 -11.5t-154.5 -29.5t-72.5 -13.5t-17.5 15.5q0 35 285 74l98 12l29 37q189 244 370.5 437t301.5 278q88 61 137 61q63 0 63 -104q0 -53 -16 -130.5
t-68 -273.5q-63 -232 -63 -239q0 -4 63 -4zM1067 721l-2 2q1 2 21 78t34 125q43 153 60 223q25 100 29 162t-15 69h-6q-37 3 -168 -104q-190 -156 -424 -434q-39 -46 -107.5 -133.5t-68.5 -90.5q0 -2 9 -2l108 11q232 26 487 39l29 2z" />
    <glyph glyph-name="AE" unicode="&#xc6;" horiz-adv-x="2009" 
d="M2163 1409l12 -4q29 -19 40 -39t11 -57q-2 -63 -62 -160.5t-143 -169.5q-51 -44 -68.5 -54t-29.5 -1q-4 3 -4.5 6t4 9.5t13.5 15t28 24.5q87 75 150 173.5t63 160.5q0 23 -14.5 43t-34.5 26q-43 14 -137.5 -7t-210.5 -70q-189 -78 -353.5 -191.5t-218.5 -202.5
q-29 -47 -25 -77.5t44 -61.5q74 -58 276 -74q102 -7 102 -25q0 -2 -1 -5q-5 -10 -25 -13q-17 -3 -96 -26q-104 -34 -197 -95.5t-153 -136.5q-39 -48 -52.5 -79t-13.5 -72q0 -50 24 -83.5t76 -58.5q22 -11 39 -13.5t62 -2.5q60 0 100 9.5t96 35.5q69 34 142 88.5t98 91.5
q8 11 8 16t-8 11q-10 9 -5.5 18t19.5 9q17 0 28 -10t11 -25q0 -29 -67 -92.5t-142 -106.5q-104 -60 -206 -78t-181 8q-44 15 -81 46.5t-54 68.5q-10 23 -13 39t-1 47t7.5 49t24.5 49q50 85 145 160t212 121q54 22 54 26q-2 2 -9 3q-69 4 -140 26.5t-112 51.5q-32 22 -51 59
q-8 -34 -17.5 -69t-13.5 -51t-4 -17q0 -4 63 -4q29 0 48 -1.5t31 -4.5t17 -7.5t3 -11.5q-1 -9 -13.5 -10.5t-74.5 -1.5h-84l-25 -90q-45 -170 -73 -312.5t-23 -179.5q4 -30 0 -37q-5 -9 -23 -8t-24 10q-12 18 -3 91t44 235q32 161 65 272l4 15l-61 -4q-197 -12 -442 -35
q-146 -15 -148 -15q-9 0 -133 -189t-143 -232q-7 -20 -13.5 -26.5t-17.5 -6.5t-15.5 4t-5.5 14q-2 15 56.5 114.5t138.5 217.5q60 85 55 90q-4 4 -103.5 -11.5t-154.5 -29.5t-72.5 -13.5t-17.5 15.5q0 35 285 74l98 12l29 37q189 244 370.5 437t301.5 278q88 61 137 61
q63 0 63 -104q0 -48 -13.5 -117.5t-55.5 -228.5q75 91 211 184q106 74 264 149.5t270 106.5q63 16 139 16q54 0 68.5 -2t32.5 -14zM1184 1143l-2 2q25 100 29 162t-15 69h-6q-37 3 -168 -104q-190 -156 -424 -434q-39 -46 -107.5 -133.5t-68.5 -90.5q0 -2 9 -2l108 11
q232 26 487 39l29 2l14 53q1 2 21 78t34 125q43 153 60 223z" />
    <glyph glyph-name="Ccedilla" unicode="&#xc7;" horiz-adv-x="1345" 
d="M1268 584l-2 -9q3 -5 -22 -28t-83 -70q-218 -180 -375.5 -272.5t-302.5 -126.5q-98 -23 -149 -23q-2 -4 -10 -12q-9 -10 -10.5 -13.5t2 -6.5t16.5 -7q22 -7 38 -27.5t13 -35.5q-3 -17 -22.5 -33.5t-41.5 -21.5q-26 -6 -39 -4t-30 16q-19 15 -4 23q11 6 33 -1t40.5 2.5
t18.5 28.5q0 11 -7.5 16t-33.5 11q-39 9 -43 20q-3 9 27 47l6 6q-33 3 -68 15q-110 36 -156 155q-12 35 -12 129q0 60 3.5 88t15.5 68q58 190 176 369q128 194 316.5 339t363.5 183q74 15 129.5 -6t70.5 -70q15 -47 -25 -146.5t-112 -189.5q-85 -108 -112 -108q-37 0 0 39
l4 4q82 82 140 188t58 174q0 34 -2.5 42t-19.5 20q-23 16 -64 16q-80 0 -189.5 -50.5t-221.5 -139.5q-141 -112 -242 -245.5t-176 -305.5q-93 -214 -60 -363q27 -123 127 -157q101 -32 254 8q145 42 316 149q176 109 334 240q38 32 61 49.5t38.5 26.5t22.5 8.5t11 -8.5z" />
    <glyph glyph-name="Egrave" unicode="&#xc8;" horiz-adv-x="1050" 
d="M1192 1524v-2q0 -24 -40 4q-18 13 -38 33q-48 50 -34 58q4 3 16 3t54 -42t42 -54zM1204 1407l2 -2q29 -19 40 -39t11 -57q-2 -64 -61.5 -161.5t-142.5 -168.5q-51 -44 -69 -54t-30 -1q-4 3 -4.5 6t4 9.5t13.5 15t28 24.5q87 75 150 173.5t63 160.5q0 23 -14.5 43
t-34.5 26q-43 14 -137.5 -7t-210.5 -70q-189 -78 -353 -191.5t-218 -202.5q-29 -47 -25.5 -77.5t43.5 -61.5t103.5 -48t173.5 -26q101 -7 101 -25l-1 -5q-5 -10 -25 -13q-17 -3 -96 -26q-104 -34 -197 -95.5t-153 -136.5q-39 -48 -52.5 -79t-13.5 -72q0 -49 24 -83t77 -59
q22 -11 38.5 -13.5t61.5 -2.5q60 0 100.5 9.5t96.5 35.5q69 34 141.5 88.5t97.5 91.5q7 10 7 15.5t-7 11.5q-10 9 -5 18t20 9q17 0 27.5 -10t10.5 -25q0 -29 -66.5 -92.5t-141.5 -106.5q-104 -60 -206 -78t-181 8q-44 15 -81.5 46.5t-54.5 68.5q-10 23 -13 39t-1 47
q1 30 7.5 48.5t25.5 49.5q50 85 145 160t211 121q54 22 54 26q-2 2 -9 3q-69 4 -140 26.5t-112 51.5q-25 19 -44 49t-19 51q0 54 71.5 134.5t196.5 166.5q106 74 264.5 149.5t270.5 106.5q63 16 139 16q54 0 68 -2t32 -14z" />
    <glyph glyph-name="Eacute" unicode="&#xc9;" horiz-adv-x="1050" 
d="M1145 1536h-2q-70 -54 -84 -39q-3 3 -2 10q2 11 49.5 48t62.5 38q35 5 20 -16q-11 -15 -44 -41zM1202 1409l4 -2q29 -19 40 -39t11 -57q-2 -64 -61.5 -161.5t-142.5 -168.5q-51 -44 -69 -54t-30 -1q-4 3 -4.5 6t4 9.5t13.5 15t28 24.5q87 75 150 173.5t63 160.5
q0 23 -14.5 43t-34.5 26q-43 14 -137.5 -7t-210.5 -70q-189 -78 -353 -191.5t-218 -202.5q-29 -47 -25.5 -77.5t43.5 -61.5t103.5 -48t173.5 -26q101 -7 101 -25l-1 -5q-5 -10 -25 -13q-17 -3 -96 -26q-104 -34 -197 -95.5t-153 -136.5q-39 -48 -52.5 -79t-13.5 -72
q0 -94 99 -142q22 -11 38.5 -13.5t61.5 -2.5q60 0 100.5 9.5t96.5 35.5q69 34 141.5 88.5t97.5 91.5q7 11 7 16t-7 11q-10 9 -5 18t20 9q17 0 27.5 -10t10.5 -25q0 -29 -66.5 -92.5t-141.5 -106.5q-104 -60 -206.5 -78t-181.5 9q-44 15 -81 46t-54 68q-10 23 -13 39t-1 47
q2 49 33 99q50 85 144.5 159.5t211.5 120.5q54 22 54 26q-2 2 -9 3q-69 4 -140 26.5t-112 51.5q-25 19 -44 49t-19 51q0 54 71.5 134.5t196.5 166.5q106 74 264.5 149.5t270.5 106.5q63 16 139 16q54 0 68 -2t32 -14z" />
    <glyph glyph-name="Ecircumflex" unicode="&#xca;" horiz-adv-x="1050" 
d="M1094 1536v-4q-54 -57 -70 -25q-3 6 38.5 49t59.5 52q17 8 31 0q13 -10 45 -66t31 -67q-4 -20 -24 -6q-16 10 -27 32q-21 38 -33 53l-15 21zM1204 1405l4 -2q30 -19 41 -39.5t11 -56.5q-2 -63 -62 -160.5t-143 -169.5q-51 -44 -69 -54t-30 -1q-4 3 -4.5 6t4 9.5t13.5 15
t28 24.5q87 75 150 173.5t63 160.5q0 23 -14.5 43t-34.5 26q-43 14 -137.5 -7t-210.5 -70q-189 -78 -353 -191.5t-218 -202.5q-29 -47 -25.5 -77.5t43.5 -61.5t103.5 -48t173.5 -26q101 -7 101 -25l-1 -5q-5 -10 -25 -13q-17 -3 -96 -26q-104 -34 -197 -95.5t-153 -136.5
q-39 -48 -52.5 -79t-13.5 -72q0 -94 99 -142q22 -11 38.5 -13.5t61.5 -2.5q60 0 100.5 9.5t96.5 35.5q69 34 141.5 88.5t97.5 91.5q7 10 7 15.5t-7 11.5q-10 9 -5 18t20 9q17 0 27.5 -10t10.5 -25q0 -29 -66.5 -92.5t-141.5 -106.5q-104 -60 -206 -78t-181 8
q-44 15 -81.5 46.5t-54.5 68.5q-10 23 -13 39t-1 47q1 30 7.5 48.5t25.5 49.5q50 85 145 160t211 121q54 22 54 26q-2 2 -9 3q-69 4 -140 26.5t-112 51.5q-25 19 -44 49t-19 51q0 54 71.5 134.5t196.5 166.5q106 74 264.5 149.5t270.5 106.5q63 16 139 16q54 0 68 -2t32 -14
z" />
    <glyph glyph-name="Edieresis" unicode="&#xcb;" horiz-adv-x="1050" 
d="M1122 1497h-2q-16 -14 -28 -2q-5 5 -5 21q3 17 21 14q17 -1 21.5 -12.5t-7.5 -20.5zM1204 1499l2 -2q-1 -15 -17 -18.5t-20 10.5q-4 13 3.5 23.5t19.5 7.5q16 -3 12 -21zM1204 1407l2 -2q29 -19 40 -39t11 -57q-2 -64 -61.5 -161.5t-142.5 -168.5q-51 -44 -69 -54t-30 -1
q-4 3 -4.5 6t4 9.5t13.5 15t28 24.5q87 75 150 173.5t63 160.5q0 23 -14.5 43t-34.5 26q-43 14 -137.5 -7t-210.5 -70q-189 -78 -353 -191.5t-218 -202.5q-29 -47 -25.5 -77.5t43.5 -61.5t103.5 -48t173.5 -26q101 -7 101 -25l-1 -5q-5 -10 -25 -13q-17 -3 -96 -26
q-104 -34 -197 -95.5t-153 -136.5q-39 -48 -52.5 -79t-13.5 -72q0 -49 24 -83t77 -59q22 -11 38.5 -13.5t61.5 -2.5q60 0 100.5 9.5t96.5 35.5q69 34 141.5 88.5t97.5 91.5q7 10 7 15.5t-7 11.5q-10 9 -5 18t20 9q17 0 27.5 -10t10.5 -25q0 -29 -66.5 -92.5t-141.5 -106.5
q-104 -60 -206 -78t-181 8q-44 15 -81.5 46.5t-54.5 68.5q-10 23 -13 39t-1 47q1 30 7.5 48.5t25.5 49.5q50 85 145 160t211 121q54 22 54 26q-2 2 -9 3q-69 4 -140 26.5t-112 51.5q-25 19 -44 49t-19 51q0 54 71.5 134.5t196.5 166.5q106 74 264.5 149.5t270.5 106.5
q63 16 139 16q54 0 68 -2t32 -14z" />
    <glyph glyph-name="Igrave" unicode="&#xcc;" horiz-adv-x="1067" 
d="M1257 1540v-2q0 -25 -42 6q-16 12 -35 31q-48 50 -35 58q4 3 16 3t54 -42t42 -54zM1616 1434l4 2q12 -10 6.5 -20t-20.5 -7q-18 4 -202 7.5t-202 0.5q-20 -3 -47 -47q-9 -16 -108 -170q-346 -531 -494 -815q-39 -75 -82 -165.5t-43 -96.5q0 -4 152 -4q150 0 168 -10
q15 -8 17 -18t-8 -13.5t-26 2.5q-15 6 -158 6q-103 -2 -124.5 -3.5t-28.5 -8.5q-9 -11 -22.5 -12t-22.5 8t-74 4q-121 -7 -209 -17q-20 -3 -35 4q-9 5 -10 11t6.5 11t20.5 7q46 9 272 25l27 2l28 65q154 366 590 1026q129 194 129 199q0 7 -108.5 -1t-192.5 -22
q-44 -7 -55 2q-22 20 31 32q7 2 14 3q191 31 487 31q299 0 320 -18z" />
    <glyph glyph-name="Iacute" unicode="&#xcd;" horiz-adv-x="1064" 
d="M1190 1587h-2q-78 -45 -88 -27q-1 4 0 9q3 10 55.5 40.5t67.5 30.5q59 0 -33 -53zM1612 1436l4 2q12 -10 6.5 -20t-20.5 -7q-18 4 -202 7.5t-202 0.5q-20 -3 -47 -47q-2 -3 -109 -170q-341 -523 -493 -815q-39 -75 -82 -165.5t-43 -96.5q0 -4 151 -4t168 -10
q15 -8 17 -18t-7.5 -13.5t-25.5 2.5q-15 6 -158 6q-103 -2 -124.5 -3.5t-28.5 -8.5q-9 -11 -22.5 -12t-22.5 8t-74 4q-121 -7 -209 -17q-20 -3 -35 4q-9 5 -10 11t6.5 11t20.5 7q46 9 272 25l27 2l28 65q154 366 590 1026q129 194 129 199q0 7 -108.5 -1t-192.5 -22
q-43 -7 -55 3q-22 19 31 31q7 2 14 3q191 31 487 31q299 0 320 -18z" />
    <glyph glyph-name="Icircumflex" unicode="&#xce;" horiz-adv-x="1064" 
d="M1149 1612l-2 2q-57 -54 -70 -23q-3 7 40.5 47t62.5 48q16 5 28 -7q14 -12 42.5 -70.5t25.5 -68.5q-6 -21 -26 -3q-13 12 -23 34q-4 9 -27 55l-12 21zM1614 1438l4 2q12 -10 6.5 -20t-20.5 -7q-18 4 -202 7.5t-202 0.5q-20 -3 -47 -47q-2 -3 -109 -170
q-341 -523 -493 -815q-39 -75 -82 -165.5t-43 -96.5q0 -4 152 -4q150 0 167 -10q15 -8 17 -18t-7.5 -13.5t-25.5 2.5q-15 6 -158 6q-103 -2 -124.5 -3.5t-28.5 -8.5q-9 -11 -22.5 -12t-22.5 8t-74 4q-121 -7 -209 -17q-19 -3 -35 5q-9 5 -10 11t6.5 10.5t20.5 6.5
q46 9 272 25l27 2l28 65q154 366 590 1026q129 194 129 199q-7 4 -53.5 2.5t-120 -8.5t-127.5 -16q-44 -7 -55 2q-22 19 31 31q7 2 14 3q191 31 487 31q299 0 320 -18z" />
    <glyph glyph-name="Idieresis" unicode="&#xcf;" horiz-adv-x="1064" 
d="M1616 1436l4 2q12 -10 6.5 -20t-20.5 -7q-18 4 -202 7.5t-202 0.5q-20 -3 -47 -47q-9 -16 -108 -170q-346 -531 -494 -815q-39 -75 -82 -165.5t-43 -96.5q0 -4 152 -4q150 0 168 -10q15 -8 17 -18t-8 -13.5t-26 2.5q-15 6 -158 6q-103 -2 -124.5 -3.5t-28.5 -8.5
q-9 -11 -22.5 -12t-22.5 8t-74 4q-121 -7 -209 -17q-20 -3 -35 4q-9 5 -10 11t6.5 11t20.5 7q46 9 272 25l27 2l28 65q154 366 590 1026q129 194 129 199q0 7 -108.5 -1t-192.5 -22q-43 -7 -55 3q-22 19 31 31q7 2 14 3q191 31 487 31q299 0 320 -18z" />
    <glyph glyph-name="Eth" unicode="&#xd0;" horiz-adv-x="1454" 
d="M1489 1149l-6 -4q14 -33 18.5 -99t-4.5 -108q-38 -180 -221.5 -389t-441.5 -367q-179 -111 -347 -155q-57 -15 -132.5 -16t-121.5 12q-86 25 -120.5 87t-6.5 144q68 206 357 328q60 25 65 41q2 12 70 155l-215 -26q-15 0 -18 16q-1 7 3.5 14t12.5 9l237 30
q9 19 26.5 54.5t23.5 48.5q28 56 85 150t93 145q28 38 39 49.5t20 9.5q34 -5 -1 -60q-5 -9 -13 -20q-92 -129 -168 -274q-2 -4 -20 -41t-29 -60l491 62q7 1 14 -4t9 -13q1 -7 -4 -13.5t-13 -8.5l-516 -66q-60 -123 -67 -145q-3 -11 -1.5 -12t13.5 2q75 17 158.5 12t97.5 -27
q13 -22 1.5 -30t-34.5 6q-20 12 -91 12t-122 -12q-44 -10 -51 -17q-11 -15 -30.5 -77t-20.5 -86q-1 -32 -10.5 -43.5t-24.5 -0.5q-12 8 -10.5 43.5t18.5 83.5q19 58 17 60q-3 3 -60 -26t-94 -52q-86 -55 -141.5 -135.5t-55.5 -149.5q0 -66 50.5 -100.5t146.5 -34.5
q132 0 313 87.5t371 244.5q164 135 273.5 278.5t144.5 270.5q10 38 10 98t-10 92q-31 97 -122.5 164t-223.5 90q-191 32 -438 -33q-333 -90 -478 -241q-32 -32 -63 -81.5t-31 -68.5q0 -31 -27 -28q-17 3 -16.5 30.5t19.5 61.5q45 85 116 149q93 80 263 150t339 98
q75 12 174 12t162 -12q280 -56 369 -264z" />
    <glyph glyph-name="Ntilde" unicode="&#xd1;" horiz-adv-x="1609" 
d="M1155 1542h2q-14 -14 -25 -19t-16.5 0t-5.5 19q0 20 25 42t47 22q18 0 53 -31t41 -31q8 0 27 31q17 30 32 27q19 -3 19 -22t-19 -42q-22 -29 -56 -29t-69 29l-32 27zM1667 1442l16 -6l-2 -56q-5 -137 -86.5 -399.5t-181.5 -460.5q-137 -272 -300 -412t-298 -102
q-66 20 -106.5 76.5t-65.5 163.5q-26 112 -26 274.5t26 339.5q26 172 70 379q15 63 12 66l-10 -14q-9 -16 -64 -116q-31 -56 -51 -92q-111 -201 -292 -555t-212 -430q-7 -20 -13 -26t-17 -6q-19 0 -23 8q-11 25 315 665q62 121 220 408q131 241 155 270q11 13 26.5 12
t24.5 -16q14 -23 -28 -231q-44 -220 -61 -360t-17 -290q0 -158 17 -254t55 -159q69 -114 208 -60q45 18 116 74t114 111q89 110 178 283.5t150 357.5q44 132 87.5 310t43.5 228q0 14 3.5 17t16.5 2z" />
    <glyph glyph-name="Ograve" unicode="&#xd2;" horiz-adv-x="1396" 
d="M1188 1483v2q0 -33 -49 -4q-33 20 -74 61q-72 72 -58 87q7 7 29 7q20 0 86 -66.5t66 -86.5zM1212 1360v-2q183 -167 119 -473q-43 -208 -176 -412t-293 -319q-142 -102 -250 -134q-133 -38 -215 -11.5t-151 130.5q-23 35 -31.5 67.5t-11.5 90.5l-2 59l-41 35
q-88 75 -108 196t34 255q72 181 276 347t429 226q105 27 190 27q143 0 231 -82zM1294 1014l-4 -8q9 210 -119 311q-101 80 -221 74q-131 -6 -282 -73.5t-282.5 -177t-207.5 -233.5q-73 -118 -82 -248q-9 -137 80 -239q23 -27 27 -23t18 70q25 118 105.5 278.5t181.5 294.5
q81 106 113 103q34 -3 -6 -49q-1 -2 -3 -4q-77 -85 -160 -225.5t-137 -276.5q-17 -42 -36 -116.5t-19 -96.5q0 -9 50 -21t87 -12q39 0 66 12q44 19 49 0q1 -4 0 -8q-4 -14 -35 -27q-62 -27 -172 -2l-49 11v-43q0 -74 31 -131q42 -74 103 -99.5t155 -13.5q145 21 334 182
q219 186 342 484q42 104 56 163t17 144z" />
    <glyph glyph-name="Oacute" unicode="&#xd3;" horiz-adv-x="1396" 
d="M1026 1534v-2q-108 -55 -126 -34q-4 5 -1 15q5 14 79.5 54.5t96.5 40.5q58 -2 12 -37q-20 -16 -61 -37zM1212 1354v-2q183 -167 119 -473q-43 -208 -176 -412.5t-293 -319.5q-139 -100 -250 -133q-133 -38 -215 -11.5t-151 130.5q-23 35 -31.5 67.5t-11.5 90.5l-2 59
l-41 35q-88 75 -108 196t34 255q72 181 276 347t429 226q105 27 190 27q143 0 231 -82zM1294 1008l-4 -9q9 211 -119 312q-100 79 -221 73q-131 -6 -282 -73t-282.5 -176.5t-207.5 -233.5q-73 -118 -82 -248q-9 -137 80 -239q23 -27 27 -23t18 70q25 118 105.5 278.5
t181.5 294.5q81 106 113 103q36 -3 -9 -54q-77 -85 -160 -225t-137 -276q-17 -42 -36 -116.5t-19 -96.5q0 -9 50 -21t87 -12q39 0 66 12q44 19 49 0q1 -4 0 -8q-4 -14 -35 -27q-62 -27 -172 -2l-49 11v-43q0 -75 31 -132q42 -74 103 -99t155 -13q145 21 334 182
q219 186 342 483q42 104 56 163.5t17 144.5z" />
    <glyph glyph-name="Ocircumflex" unicode="&#xd4;" horiz-adv-x="1396" 
d="M965 1552l2 4q-70 -66 -88 -28q-4 9 47.5 58.5t74.5 58.5q19 8 35 -5q17 -13 53 -83t33 -84q-5 -25 -28 -8q-18 13 -31 40q-19 37 -37 68l-14 24zM1214 1360v-2q183 -167 119 -473q-43 -208 -176 -412t-293 -319q-142 -102 -250 -134q-133 -38 -215 -11.5t-151 130.5
q-23 35 -31.5 67.5t-11.5 90.5l-2 59l-41 35q-88 75 -108 196t34 255q72 181 276 347t429 226q105 27 190 27q143 0 231 -82zM1296 1014l-4 -8q9 211 -118 311q-101 80 -222 74q-131 -6 -282 -73.5t-282.5 -177t-207.5 -233.5q-73 -118 -82 -248q-9 -137 80 -239
q23 -27 27 -23t18 70q25 118 105.5 278.5t181.5 294.5q81 106 113 103q34 -3 -6 -49q-1 -2 -3 -4q-77 -85 -160 -225.5t-137 -276.5q-17 -42 -36 -116.5t-19 -96.5q0 -9 50 -21t87 -12q39 0 66 12q44 19 49 0q1 -4 0 -8q-4 -14 -35 -27q-62 -27 -172 -2l-49 11v-43
q0 -74 31 -131q42 -74 103 -99.5t155 -13.5q145 21 334 182q219 186 342 484q42 104 56 163t17 144z" />
    <glyph glyph-name="Otilde" unicode="&#xd5;" horiz-adv-x="1396" 
d="M889 1524h-6q-40 -42 -55 -22q-5 6 -5 20q0 25 31 52.5t59 27.5q24 0 70 -37t55 -37q11 0 33 37q23 37 43 34q23 -3 23.5 -26.5t-21.5 -52.5q-28 -37 -71 -37t-87 35l-40 34zM1206 1358v-2q183 -167 119 -473q-43 -208 -176 -412t-293 -319q-142 -102 -250 -134
q-133 -38 -215 -11.5t-151 130.5q-23 35 -31.5 67.5t-11.5 90.5l-2 59l-41 35q-88 75 -108 196t34 255q72 181 276 347t428 226q105 27 191 27q143 0 231 -82zM1288 1012l-4 -8q9 210 -119 311q-101 80 -221 74q-131 -6 -282 -73.5t-282.5 -177t-207.5 -233.5
q-73 -118 -82 -248q-9 -137 80 -239q23 -27 27 -23t18 70q25 118 105.5 278.5t181.5 294.5q81 106 112 103q37 -3 -8 -54q-77 -85 -160 -225t-137 -276q-17 -42 -36 -116.5t-19 -96.5q0 -9 50 -21t87 -12q39 0 66 12q44 19 49 0q1 -4 0 -8q-4 -14 -35 -27q-62 -27 -172 -2
l-49 11v-43q0 -74 31 -131q42 -74 103 -99.5t155 -13.5q144 21 333 182q219 186 342 484q42 105 56.5 164t17.5 143z" />
    <glyph glyph-name="Odieresis" unicode="&#xd6;" horiz-adv-x="1396" 
d="M868 1507l-2 -2q-12 12 -12 45q0 19 8.5 27t28.5 8q34 0 46.5 -21.5t-9.5 -43.5q-35 -32 -60 -13zM1094 1540l-2 -2q0 -31 -30 -40.5t-42 18.5q-12 26 1.5 46.5t39.5 16.5q33 -3 33 -39zM1208 1354v-2q183 -167 119 -473q-43 -208 -176 -412.5t-293 -319.5
q-139 -100 -250 -133q-133 -38 -215 -11.5t-151 130.5q-23 35 -31.5 67.5t-11.5 90.5l-2 59l-41 35q-88 75 -108 196t34 255q72 181 276 347t428 226q105 27 191 27q143 0 231 -82zM1290 1008l-4 -9q9 211 -119 312q-100 79 -221 73q-131 -6 -282 -73t-282.5 -176.5
t-207.5 -233.5q-73 -118 -82 -248q-9 -137 80 -239q23 -27 27 -23t18 70q25 118 105.5 278.5t181.5 294.5q81 106 112 103q37 -3 -8 -54q-77 -85 -160 -225t-137 -276q-17 -42 -36 -116.5t-19 -96.5q0 -9 50 -21t87 -12q39 0 66 12q44 19 49 0q1 -4 0 -8q-4 -14 -35 -27
q-62 -27 -172 -2l-49 11v-43q0 -75 31 -132q42 -74 103 -99t155 -13q144 21 333 182q221 188 343 483q42 104 56 163.5t17 144.5z" />
    <glyph glyph-name="multiply" unicode="&#xd7;" horiz-adv-x="483" 
d="M416 782h6q30 0 11 -20q-16 -16 -75 -57q-86 -60 -86 -68q0 -7 41 -55q49 -56 29 -63q-4 -1 -10 -1q-14 0 -53 45q-36 45 -46 45q-8 0 -77 -55q-27 -21 -44.5 -33.5t-30 -18.5t-19 -5t-9.5 8q-6 9 76 76l80 67l-33 51q-33 53 -33 70q-1 10 1.5 13t13.5 3q14 0 20 -7
t33 -56q25 -45 36 -45q5 0 9 6q9 12 79.5 56t80.5 44z" />
    <glyph glyph-name="Oslash" unicode="&#xd8;" horiz-adv-x="1415" 
d="M1360 1497l2 -2q14 -11 2 -27l-121 -143q150 -163 90 -446q-43 -208 -176 -412.5t-293 -319.5q-139 -100 -250 -133q-133 -38 -215 -11.5t-151 130.5l-6 12l-68 -77q-7 -7 -16 -7q-3 0 -13 5q-14 10 -2 26l78 90q-13 40 -16 109l-2 59l-41 35q-88 75 -108 196t34 255
q72 181 276 347t429 226q105 27 190 27q143 0 231 -82l119 141q11 14 27 2zM223 469l-8 -4q25 118 105.5 278.5t181.5 294.5q81 106 112 103q37 -3 -8 -54q-77 -85 -160 -225t-137 -276q-17 -42 -36 -116.5t-19 -96.5q0 -6 32 -15t68 -14l826 969l-6 6q-101 80 -222 74
q-131 -6 -282 -73.5t-282.5 -177t-207.5 -233.5q-73 -118 -82 -247q-9 -138 80 -240q23 -27 27 -23t18 70zM252 283l2 -2q0 -20 4 -52l68 80q-4 1 -12.5 3t-12.5 3l-49 11v-43zM1290 1006h-2q8 179 -84 278l-805 -946q34 0 58 12q44 19 49 0q1 -4 0 -8q-4 -14 -35 -27
q-39 -17 -104 -14l-101 -119q3 -9 17 -37q42 -74 103 -99t155 -13q144 21 333 182q221 188 343 483q42 104 56 163.5t17 144.5z" />
    <glyph glyph-name="Ugrave" unicode="&#xd9;" horiz-adv-x="1157" 
d="M838 1526h2q-72 65 -56 78q7 5 23 6q17 2 78.5 -54t62.5 -75q2 -31 -46 -4q-28 17 -64 49zM1282 1427l12 5q10 3 21.5 -3.5t11.5 -15.5q0 -6 -37 -67q-67 -110 -160 -295.5t-147 -317.5q-110 -270 -127 -450q-6 -60 -3.5 -76.5t19.5 -22.5q33 -12 7 -32q-15 -12 -34 -12
t-30 12q-19 23 -8.5 133t39.5 215q34 127 86 248q5 12 7 18t5 13.5t4 10.5t0 3t-53 -74q-106 -158 -222.5 -302.5t-217.5 -242.5q-85 -82 -170 -125t-138 -31q-116 26 -86 304q46 414 390 997q43 72 61 90.5t35 7.5q9 -5 5.5 -15.5t-28.5 -53.5q-254 -435 -352 -760
q-60 -197 -63 -367q-1 -121 24.5 -151.5t102.5 0.5q41 18 123 85.5t141 133.5q139 155 270.5 343.5t347.5 543.5q153 247 164 251z" />
    <glyph glyph-name="Uacute" unicode="&#xda;" horiz-adv-x="1157" 
d="M934 1536h2q-111 -66 -131 -44q-4 5 -2 15q3 15 79 63t99 48q59 2 19 -35q-20 -19 -66 -47zM1282 1427l12 5q10 3 21.5 -3.5t11.5 -15.5q0 -6 -37 -67q-67 -110 -160 -295.5t-147 -317.5q-110 -270 -127 -450q-6 -60 -3.5 -76.5t19.5 -22.5q33 -12 7 -32q-15 -12 -34 -12
t-30 12q-19 23 -8.5 133t39.5 215q34 127 86 248q5 12 7 18t5 13.5t4 10.5t0 3t-53 -74q-106 -158 -222.5 -302.5t-217.5 -242.5q-85 -82 -170 -125t-138 -31q-116 26 -86 304q46 414 390 997q43 72 61 90.5t35 7.5q9 -5 5.5 -15.5t-28.5 -53.5q-254 -435 -352 -760
q-60 -197 -63 -367q-1 -121 24.5 -151.5t102.5 0.5q41 18 123 85.5t141 133.5q139 155 270.5 343.5t347.5 543.5q153 247 164 251z" />
    <glyph glyph-name="Ucircumflex" unicode="&#xdb;" horiz-adv-x="1157" 
d="M854 1548l4 -2q-70 -51 -82 -14q-3 8 49 46t74 44q17 6 29 -6q14 -14 37.5 -80t19.5 -78q-7 -22 -26 -3q-14 14 -23 40q-16 46 -25 64l-10 24zM1284 1423l12 4q11 3 22 -3t11 -15q0 -7 -37 -68q-68 -110 -160.5 -295t-146.5 -317q-110 -270 -127 -450q-6 -60 -3.5 -76.5
t19.5 -22.5q34 -12 7 -33q-15 -12 -34 -12t-30 12q-19 23 -8.5 133.5t39.5 215.5q33 124 86 247q5 12 7 18t5 13.5t4 10.5t0 3t-53 -73q-106 -158 -222.5 -302.5t-217.5 -242.5q-85 -82 -169.5 -125t-137.5 -31q-60 13 -81 87.5t-6 215.5q46 415 390 998q43 72 61 90.5
t35 7.5q9 -4 5.5 -16t-28.5 -54q-254 -436 -352 -759q-60 -197 -63 -367q-1 -121 24.5 -151.5t102.5 0.5q41 18 123 85.5t141 133.5q139 155 271 344t347 542q154 249 164 252z" />
    <glyph glyph-name="Udieresis" unicode="&#xdc;" horiz-adv-x="1157" 
d="M795 1487l2 2q-11 7 -11 37q0 15 7 21.5t24 6.5q29 0 39 -19t-10 -38q-28 -28 -51 -10zM995 1518v-2q0 -28 -26.5 -36t-36.5 15t2 41.5t35 15.5q26 -3 26 -34zM1280 1427l12 5q10 3 21.5 -3.5t11.5 -15.5q0 -6 -37 -67q-67 -110 -160 -295.5t-147 -317.5
q-110 -270 -127 -450q-6 -60 -3.5 -76.5t19.5 -22.5q33 -12 7 -32q-15 -12 -34 -12t-30 12q-19 23 -8.5 133t39.5 215q34 127 86 248q5 12 7 18t5 13.5t4 10.5t0 3t-53 -74q-106 -158 -222.5 -302.5t-217.5 -242.5q-85 -82 -170 -125t-138 -31q-116 26 -86 304
q46 414 390 997q43 72 61 90.5t35 7.5q9 -5 5.5 -15.5t-28.5 -53.5q-254 -435 -352 -760q-61 -201 -64 -367q-1 -121 24.5 -151.5t102.5 0.5q41 18 124 85.5t141 133.5q139 155 270.5 343.5t347.5 543.5q153 247 164 251z" />
    <glyph glyph-name="Yacute" unicode="&#xdd;" horiz-adv-x="1007" 
d="M846 1532v2q-26 10 14 40q24 19 62 36q73 34 80 19q2 -7 -3 -23q-4 -15 -71 -47t-82 -27zM1348 1458l2 -6q4 -7 -8 -26t-60 -76q-138 -168 -311.5 -421t-276.5 -435q-79 -139 -137.5 -269t-52.5 -153t-16 -35.5t-39 4.5q-9 8 -1.5 38.5t37.5 102.5q96 234 248 480
q145 234 236 358q9 13 6 12q-2 0 -23 -20q-412 -384 -659 -437q-66 -13 -129 3q-195 47 -72 340q54 128 164.5 279.5t198.5 217.5q25 19 34.5 23t18.5 0q14 -7 14 -15q0 -10 -51 -57q-99 -94 -190 -227t-141 -255t-38 -186q15 -86 125 -86q119 0 310 123q60 40 167 126
t173 147q77 71 198.5 195.5t163.5 176.5q29 36 46 54.5t30 28t20 8t13 -12.5z" />
    <glyph glyph-name="Thorn" unicode="&#xde;" horiz-adv-x="800" 
d="M743 872h7q28 -108 -17 -225q-44 -116 -133 -180q-43 -28 -84 -37q-52 -12 -102 6q-45 17 -76.5 55t-44.5 91l-6 18l-181 -483q-6 -16 -20 -19q-9 -3 -18 0q-11 5 -16 16t-1 21l481 1299q5 11 16 15.5t21 0.5q11 -5 16 -16t1 -21l-162 -440l12 12q97 68 187 33
q93 -36 120 -146zM680 668q37 97 14 190q-22 83 -86 105q-36 12 -71 4q-29 -6 -62 -29q-76 -51 -115 -154q-37 -97 -14 -190q22 -83 86 -105q65 -22 133 25q76 51 115 154z" />
    <glyph glyph-name="germandbls" unicode="&#xdf;" horiz-adv-x="911" 
d="M688 911v-4q-129 -88 -141 -104q-3 -7 -4.5 -11.5t6.5 -10t22.5 -11t42.5 -14.5q59 -19 90.5 -38.5t51.5 -49.5q44 -70 -2 -152q-34 -61 -98.5 -99t-135.5 -38q-49 0 -100 13.5t-80 33.5q-48 35 -53 65q0 16 18 17q16 0 33 -25q11 -15 24.5 -24t43.5 -21
q89 -37 170.5 -12.5t128.5 102.5q43 68 14 121q-13 26 -38 42t-77 34q-99 35 -108 61q-8 19 28.5 52t151.5 112q164 114 141 148q-9 13 -62 -4.5t-106 -51.5q-71 -47 -121.5 -95.5t-109.5 -127.5q-41 -55 -114.5 -178t-133.5 -238q-72 -135 -74 -139q-9 -15 -25 -18.5
t-22 8.5q-6 14 83 182t171 297q76 121 146.5 197t158.5 133q140 92 215 70q23 -6 32 -17.5t9 -34.5q0 -29 -35 -62.5t-141 -107.5z" />
    <glyph glyph-name="agrave" unicode="&#xe0;" 
d="M55 743h-2q-56 39 -44 50q4 4 16 6q12 3 60.5 -31.5t51.5 -46.5q2 -13 -12 -12q-24 1 -70 34zM457 635l-4 2q43 30 48 12q1 -3 1 -10q0 -6 -23 -29q-30 -30 -80 -68.5t-88 -60.5q-67 -38 -109.5 -43.5t-72.5 19.5q-17 13 -21 22t-4 33v35l-49 -37q-142 -109 -198 -74
q-38 23 2.5 96.5t115.5 116.5q45 25 78 25q46 0 64 -37l10 -21l20 17q17 14 25.5 15.5t17.5 -7.5q10 -10 -12 -49q-42 -76 -22 -105q10 -12 39 -10q68 6 198 111q60 45 64 47zM37 549l4 -2q36 26 41.5 34t1.5 23q-8 24 -14 27q-4 4 -11 4q-34 2 -98 -54.5t-74 -99.5
q-4 -19 6 -19q12 0 54 25q35 22 90 62z" />
    <glyph glyph-name="aacute" unicode="&#xe1;" 
d="M82 741q-79 -37 -91 -20q-3 3 -1 10q3 10 57.5 37t69.5 25q53 -3 -9 -39zM459 635l-4 2q43 30 48 12q1 -3 1 -10q0 -6 -23 -29q-30 -30 -80 -68.5t-88 -60.5q-67 -38 -109.5 -43.5t-72.5 19.5q-17 13 -21 22t-4 33v35l-49 -37q-142 -109 -198 -74q-38 23 2.5 96.5
t115.5 116.5q45 25 78 25q46 0 64 -37l10 -21l21 17q17 14 25.5 15.5t17.5 -7.5q6 -7 3.5 -15.5t-16.5 -33.5q-42 -76 -22 -105q10 -12 39 -10q68 6 198 111q60 45 64 47zM39 549l4 -2q36 26 41.5 34t1.5 23q-8 24 -14 27q-4 4 -11 4q-34 2 -98 -54.5t-74 -99.5
q-4 -19 6 -19q12 0 54 25q35 22 90 62z" />
    <glyph glyph-name="acircumflex" unicode="&#xe2;" 
d="M37 750l2 2q-35 -41 -47 -21q-3 5 23 35.5t38 36.5t21 0q10 -6 34.5 -42t22.5 -44q-2 -16 -20 -5q-9 6 -17 19q-22 33 -24 35l-11 12zM461 639l-4 2q43 30 48 12q1 -3 1 -10q0 -6 -23 -29q-30 -30 -80 -68.5t-88 -60.5q-67 -38 -109.5 -43.5t-72.5 19.5q-17 13 -20.5 22
t-3.5 33v35l-50 -37q-142 -109 -198 -74q-38 23 3 96.5t116 116.5q45 25 77 25q46 0 64 -37l10 -20l21 16q17 14 25.5 15.5t17.5 -7.5q6 -7 3.5 -15.5t-16.5 -33.5q-41 -75 -22 -104q11 -13 39 -11q68 6 198 111q60 45 64 47zM41 553l4 -2q36 26 41.5 34t1.5 23
q-8 24 -14 27q-4 4 -11 4q-34 2 -98 -54.5t-74 -99.5q-4 -18 5 -18q11 -1 55 25q43 26 90 61z" />
    <glyph glyph-name="atilde" unicode="&#xe3;" 
d="M8 733v-2q-12 -12 -21.5 -16.5t-14.5 0t-5 16.5q0 17 20.5 35t39.5 18q20 0 47 -24q29 -25 37 -25q7 0 22 27q13 26 27 22q15 -3 15 -19t-15 -36q-19 -25 -47.5 -25t-57.5 25l-28 23zM457 633l-4 2q43 30 48 12q1 -3 1 -10q0 -6 -23 -29q-30 -30 -80 -68.5t-88 -60.5
q-67 -38 -109.5 -43.5t-72.5 19.5q-17 13 -21 22t-4 33v35l-49 -37q-142 -109 -198 -74q-38 23 2.5 96.5t115.5 116.5q45 25 78 25q46 0 64 -37l10 -21l20 17q17 14 25.5 15.5t17.5 -7.5q10 -10 -12 -49q-42 -76 -22 -105q10 -12 39 -10q68 6 198 111q60 45 64 47zM37 547
l4 -2q36 26 41.5 34t1.5 23q-8 24 -14 27q-4 4 -11 4q-34 2 -98 -54.5t-74 -99.5q-4 -19 6 -19q12 0 54 25q35 22 90 62z" />
    <glyph glyph-name="adieresis" unicode="&#xe4;" 
d="M6 713q-6 3 -6 22q0 17 16 17q17 0 23.5 -11t-4.5 -22q-17 -17 -29 -6zM119 729q0 -15 -14.5 -19t-20.5 9q-6 12 0 22.5t18 8.5q17 -3 17 -21zM459 637l-4 2q43 30 48 12q1 -3 1 -10q0 -6 -23 -29q-30 -30 -80 -68.5t-88 -60.5q-67 -38 -109.5 -43.5t-72.5 19.5
q-17 13 -21 22t-4 33v35l-49 -37q-142 -109 -198 -74q-38 23 2.5 96.5t115.5 116.5q45 25 78 25q46 0 64 -37l10 -21l21 17q17 14 25.5 15.5t17.5 -7.5q6 -7 3.5 -15.5t-16.5 -33.5q-42 -76 -22 -105q10 -12 39 -10q68 6 198 111q60 45 64 47zM39 551l4 -2q36 26 41.5 34
t1.5 23q-8 24 -14 27q-4 4 -11 4q-34 2 -98 -54.5t-74 -99.5q-4 -19 6 -19q12 0 54 25q35 22 90 62z" />
    <glyph glyph-name="aring" unicode="&#xe5;" 
d="M51 711l-4 2q-24 11 -24 41q0 19 14 30q13 13 16 13h19h6q14 0 28 -11t17 -24q6 -28 -19 -45.5t-53 -5.5zM70 780l4 -2q-9 0 -16 -8.5t-7 -21.5q0 -15 13.5 -20t25.5 5q9 8 8 20.5t-10 20.5q-9 6 -18 6zM459 635l-4 2q43 30 48 12q1 -3 1 -10q0 -6 -23 -29
q-30 -30 -80 -68.5t-88 -60.5q-67 -38 -109.5 -43.5t-72.5 19.5q-17 13 -21 22t-4 33v35l-49 -37q-142 -109 -198 -74q-38 23 2.5 96.5t115.5 116.5q45 25 78 25q46 0 64 -37l10 -21l21 17q17 14 25.5 15.5t17.5 -7.5q6 -7 3.5 -15.5t-16.5 -33.5q-42 -76 -22 -105
q10 -12 39 -10q68 6 198 111q60 45 64 47zM39 549l4 -2q36 26 41.5 34t1.5 23q-8 24 -14 27q-4 4 -11 4q-34 2 -98 -54.5t-74 -99.5q-4 -19 6 -19q12 0 54 25q35 22 90 62z" />
    <glyph glyph-name="ae" unicode="&#xe6;" horiz-adv-x="669" 
d="M369 674zM643 610h-4q79 61 80 33v-4q0 -14 -68 -68q-114 -89 -196 -124.5t-150 -24.5q-53 9 -78 37q-4 -21 2 -27q14 -23 6 -36t-32 7q-4 3 -7 8.5t-4.5 10t-1.5 12.5v13.5t1.5 15t2.5 13.5t3 14t2 12q2 6 7 19.5t5 19.5l-49 -37q-142 -109 -199 -74q-38 23 3 96.5
t116 116.5q45 25 78 25q45 0 63 -37l10 -21l21 17q26 20 39 12q47 31 80 31q12 0 24 -6q26 -12 23.5 -37.5t-33.5 -51.5q-26 -22 -72 -26h-20.5h-13.5t-8 -0.5t-5 -2t-4 -5.5q-8 -15 -4 -37q3 -49 80 -49q105 0 303 155zM309 610l2 6q-19 -16 -10 -22q9 -4 14 -3.5t25 9.5
q15 7 25 20.5t4 18.5h-4q-20 0 -56 -29zM139 551l2 -4q36 26 41.5 34t1.5 23q-8 22 -14 29q-4 4 -10 4q-34 2 -97 -54t-73 -100q-4 -19 6 -19q11 1 53 25q35 22 90 62z" />
    <glyph glyph-name="ccedilla" unicode="&#xe7;" horiz-adv-x="460" 
d="M397 608l13 -6q89 61 98 43l2 -8q0 -11 -43 -43q-102 -76 -238 -137q-77 -34 -143 -41q-1 -1 -3.5 -4.5t-4.5 -5.5q-11 -10 -10 -13.5t16 -9.5q17 -6 29.5 -22.5t9.5 -28.5q-3 -14 -19 -27t-34 -16q-22 -5 -33.5 -2.5t-24.5 14.5q-16 14 -3 20q9 4 26 -2t32 2t15 23
q0 9 -5.5 13t-27.5 10q-34 10 -37 18q-3 7 23 37q-3 1 -9.5 3t-9.5 3q-40 8 -60.5 39.5t-10.5 69.5q19 69 74.5 113.5t101.5 27.5q28 -10 37 -46q9 -32 -12 -37l-5 -1q-12 0 -17.5 7t-10.5 26q-3 15 -13 20q-12 3 -44.5 -25t-47.5 -55q-53 -89 23 -104q118 -25 366 145z" />
    <glyph glyph-name="egrave" unicode="&#xe8;" horiz-adv-x="399" 
d="M106 733h-2q-58 45 -40 54q5 3 14 4q12 2 60.5 -34t49.5 -48q2 -13 -11 -12q-25 2 -71 36zM371 614l2 -2q79 61 80 33v-4q0 -14 -68 -68q-114 -89 -196 -124.5t-150 -24.5q-52 9 -78.5 35.5t-21.5 64.5q6 53 58.5 101.5t100.5 48.5q13 0 25 -6q27 -12 24.5 -37t-32.5 -51
q-27 -23 -72 -27h-20.5h-13.5t-8 -0.5t-5 -2t-4 -5.5q-8 -15 -4 -37q3 -49 80 -49q105 0 303 155zM43 612l2 6q-19 -16 -10 -22q9 -4 14 -3.5t25 9.5q15 7 24.5 20.5t3.5 18.5h-4q-19 0 -55 -29z" />
    <glyph glyph-name="eacute" unicode="&#xe9;" horiz-adv-x="399" 
d="M98 741q-67 -52 -83 -39q-4 3 -3 11q2 11 50 48t63 38q29 3 23 -12q-9 -16 -50 -46zM373 616l2 -2q79 61 80 33v-4q0 -14 -68 -68q-114 -89 -196 -124.5t-150 -24.5q-52 9 -78.5 35.5t-21.5 64.5q6 53 58.5 101.5t100.5 48.5q13 0 25 -6q27 -12 24.5 -37t-32.5 -51
q-27 -23 -72 -27h-20.5h-13.5t-8 -0.5t-5 -2t-4 -5.5q-8 -15 -4 -37q3 -49 80 -49q105 0 303 155zM45 614l2 7q-19 -17 -10 -23q9 -4 14 -3.5t25 9.5q15 7 24.5 20.5t3.5 18.5h-4q-19 0 -55 -29z" />
    <glyph glyph-name="ecircumflex" unicode="&#xea;" horiz-adv-x="399" 
d="M88 745l4 -2q-31 -31 -41 -12q-1 4 23 27t35 28q9 3 16 -2q8 -6 25 -38.5t16 -38.5q-2 -12 -16 -1q-8 6 -13 17q-2 4 -9 16t-9 15l-8 12zM377 614l2 -2q79 61 80 33v-4q0 -14 -68 -68q-114 -89 -196 -124.5t-150 -24.5q-52 9 -78.5 35.5t-21.5 64.5q6 53 58.5 101.5
t100.5 48.5q13 0 25 -6q27 -12 24.5 -37t-32.5 -51q-27 -23 -72 -27h-20.5h-13.5t-8 -0.5t-5 -2t-4 -5.5q-8 -15 -4 -37q3 -49 80 -49q105 0 303 155zM49 612l2 6q-19 -16 -10 -22q9 -4 14 -3.5t25 9.5q15 7 25 20.5t4 18.5h-5q-19 0 -55 -29z" />
    <glyph glyph-name="edieresis" unicode="&#xeb;" horiz-adv-x="399" 
d="M37 719q-6 3 -6 22q0 17 16 17q17 0 23.5 -11t-4.5 -22q-18 -17 -29 -6zM150 735q0 -15 -14.5 -19t-20.5 9q-6 12 0 22.5t18 8.5q17 -3 17 -21zM375 614l2 -2q79 61 80 33v-4q0 -14 -68 -68q-114 -89 -196 -124.5t-150 -24.5q-52 9 -78.5 35.5t-21.5 64.5
q6 53 58.5 101.5t100.5 48.5q13 0 25 -6q27 -12 24.5 -37t-32.5 -51q-27 -23 -72 -27h-20.5h-13.5t-8 -0.5t-5 -2t-4 -5.5q-8 -15 -4 -37q3 -49 80 -49q105 0 303 155zM47 612l2 6q-19 -16 -10 -22q9 -4 14 -3.5t25 9.5q15 7 24.5 20.5t3.5 18.5h-4q-19 0 -55 -29z" />
    <glyph glyph-name="igrave" unicode="&#xec;" horiz-adv-x="372" 
d="M133 745v-2q0 -24 -40 4q-18 13 -38 33q-50 52 -33 60q5 2 15 2q12 0 54 -42.5t42 -54.5zM324 612h-2q85 56 95 35q1 -2 1 -4q0 -5 -41 -35q-74 -53 -195 -114q-64 -32 -97 -43t-65 -11q-33 0 -57 19q-22 17 -22 39q0 20 14.5 55.5t34.5 64.5q42 62 59 62q9 0 19 -10
q6 -6 1 -19t-28 -49q-63 -102 -38 -121q8 -6 26 -6q35 0 116.5 37.5t178.5 99.5z" />
    <glyph glyph-name="iacute" unicode="&#xed;" horiz-adv-x="372" 
d="M102 793h2q-79 -56 -88 -35q-1 3 0 8q2 11 51 47t64 37q53 5 -15 -47q-6 -5 -14 -10zM326 614h-2q85 56 95 35q1 -2 1 -4q0 -5 -41 -35q-74 -53 -195 -114q-65 -32 -97 -43t-64 -11q-34 0 -58 19q-22 17 -22 39q0 20 14.5 56t34.5 65q41 61 59 61q9 0 19 -10q6 -6 1 -19
t-28 -49q-63 -102 -38 -121q8 -6 26 -6q35 0 116.5 37.5t178.5 99.5z" />
    <glyph glyph-name="icircumflex" unicode="&#xee;" horiz-adv-x="372" 
d="M63 762h3q-45 -35 -54 -10q-1 4 16 17.5t37 27t29 16.5q12 3 21 -6t25.5 -53.5t13.5 -51.5q-6 -17 -22 2q-8 9 -13 23q-5 16 -17 41l-8 16zM326 614h-2q85 56 95 35q1 -2 1 -4q0 -5 -41 -35q-74 -53 -195 -114q-65 -32 -97 -43t-64 -11q-34 0 -58 19q-22 17 -22 39
q0 20 14.5 56t34.5 65q41 61 59 61q9 0 19 -10q6 -6 1 -19t-28 -49q-63 -102 -38 -121q8 -6 26 -6q35 0 116.5 37.5t178.5 99.5z" />
    <glyph glyph-name="idieresis" unicode="&#xef;" horiz-adv-x="372" 
d="M4 737q-6 3 -6 23q0 16 16 16q17 0 23.5 -11t-4.5 -22q-17 -17 -29 -6zM117 754h-2q0 -15 -14.5 -19.5t-20.5 8.5q-6 12 1 22.5t19 8.5q17 -3 17 -20zM319 614h-2q88 58 96 33q1 -1 1 -2q0 -5 -41 -35q-74 -53 -195 -114q-64 -32 -97 -43t-65 -11q-33 0 -57 19
q-22 17 -22 39q0 20 14.5 56t34.5 65q41 61 59 61q8 0 18 -10q7 -5 2 -18.5t-28 -49.5q-63 -102 -38 -121q8 -6 26 -6q35 0 116 37t178 100z" />
    <glyph glyph-name="eth" unicode="&#xf0;" horiz-adv-x="372" 
d="M377 993h2q10 -10 -2 -22l-101 -76q17 -53 25 -102q26 -182 -14 -308q-11 -33 -11 -53q0 -18 -10 -20q-9 0 -22 -21q-10 -17 -33.5 -36t-40.5 -25q-12 -6 -37 -6q-24 0 -37 10q-32 19 -59 75t-27 107q-1 87 36 125t89.5 12.5t93.5 -106.5l17 -35l6 29q15 70 11 159.5
t-25 167.5l-93 -69q-4 -4 -10 -4t-12 6q-10 10 2 22l100 78q-18 59 -43 90q-15 19 -15 27t15 10q7 0 19 -4q32 -19 61 -98l92 69q10 11 23 -2zM211 422l20 35l-24 53q-22 47 -39.5 70.5t-38.5 35.5q-42 23 -66 -30q-19 -40 -14.5 -90.5t29.5 -92.5q19 -34 33 -41
q47 -28 100 60z" />
    <glyph glyph-name="ntilde" unicode="&#xf1;" horiz-adv-x="624" 
d="M121 737v-2q-12 -12 -21.5 -16.5t-14.5 0t-5 16.5q0 17 20 35t39 18q20 0 47 -24q29 -25 37 -25t23 27q13 25 26 22q15 -3 15 -19t-15 -36q-19 -25 -47 -25t-57 25l-29 23zM657 643l7 8q3 -10 -33 -39q-45 -39 -118 -86t-126 -69q-109 -49 -147 10q-11 17 -7.5 41
t23.5 76q18 47 14 51q-8 6 -66.5 -28.5t-99.5 -69.5t-88 -67t-57 -32q-16 0 -27 11q-11 8 -8 30q6 34 51 108.5t66 84.5q12 6 22 -4q9 -7 8 -12.5t-14 -24.5q-20 -28 -48.5 -75.5t-33.5 -61.5q-6 -16 76 49q196 151 246 112q29 -20 -4 -98q-15 -37 -18 -63t8 -29
q28 -7 105 32.5t185 116.5q42 31 60 37t24 -8z" />
    <glyph glyph-name="ograve" unicode="&#xf2;" horiz-adv-x="434" 
d="M158 725v-2q0 -24 -40 4q-18 13 -38 33q-48 50 -35 58q4 3 16 3t54.5 -42t42.5 -54zM487 651l2 -4q4 -5 -0.5 -13.5t-20.5 -21t-44 -28.5q-142 -82 -272 -82q-43 0 -48 -10q-5 -12 -36.5 -38t-51.5 -32q-50 -16 -86 8q-35 26 -27 76t58 110q30 37 41 41q9 3 29 15
q18 12 45 12q28 0 43 -12q24 -23 28 -45.5t-10 -57.5l-10 -28h33q112 0 243 80q41 25 58 31.5t26 -1.5zM49 489l14 17l-18 10q-38 27 -43 35l-16 22l-17 -28q-33 -56 -18 -84q7 -13 19.5 -13.5t37.5 11.5q26 11 41 30zM96 580h2q12 58 -18 61h-6q-15 -2 -29 -18t-14 -33
q0 -18 22 -35q21 -14 29 -10q6 3 14 35z" />
    <glyph glyph-name="oacute" unicode="&#xf3;" horiz-adv-x="434" 
d="M86 780v-4q-60 -60 -78 -49q-4 2 -4 10q0 10 42 54t56 49q37 9 20 -18q-9 -15 -36 -42zM487 649l2 -4q4 -5 -0.5 -13.5t-20.5 -21t-44 -28.5q-142 -82 -272 -82q-42 0 -48 -11q-5 -12 -36.5 -37.5t-51.5 -31.5q-50 -16 -86 8q-35 26 -27 76t58 110q30 37 41 41q9 3 29 15
q18 12 45 12q28 0 43 -12q24 -23 28 -45.5t-10 -57.5l-10 -28h33q114 0 243 79q42 26 58.5 32.5t25.5 -1.5zM49 487l14 17l-18 10q-38 27 -43 35l-16 22l-17 -28q-33 -56 -18 -84q7 -13 19.5 -13.5t37.5 11.5q26 11 41 30zM96 578h2q12 58 -18 61h-6q-15 -2 -29 -18t-14 -33
q0 -18 22 -35q21 -14 29 -10q6 3 14 35z" />
    <glyph glyph-name="ocircumflex" unicode="&#xf4;" horiz-adv-x="434" 
d="M82 760h4q-44 -35 -53 -10q-1 4 16 18t37 28t29 17q11 3 20 -6t25.5 -53.5t13.5 -51.5q-6 -17 -22 2q-8 10 -13 23q-15 35 -18 41l-8 16zM492 653l2 -4q4 -5 -1 -13.5t-21 -21t-44 -28.5q-142 -82 -272 -82q-42 0 -47 -10q-5 -12 -37 -38t-52 -32q-50 -16 -86 8
q-35 26 -27 76t58 110q30 37 41 41q9 3 29 15q18 12 45 12q28 0 43 -12q24 -23 28 -45.5t-10 -57.5l-10 -28h33q113 0 244 80q41 25 58 31.5t26 -1.5zM53 492l15 16l-19 10q-38 27 -43 35l-16 22l-17 -28q-33 -56 -18 -84q7 -13 19.5 -13.5t37.5 11.5q25 11 41 31zM100 582
h2q12 58 -18 61h-6q-15 -2 -29 -18t-14 -33q0 -18 22 -35q21 -14 29 -10q6 3 14 35z" />
    <glyph glyph-name="otilde" unicode="&#xf5;" horiz-adv-x="434" 
d="M16 739v-2q-12 -12 -21.5 -16.5t-14.5 0t-5 16.5q0 17 20.5 35.5t39.5 18.5q18 0 47 -25t37 -25q7 0 22 27q13 26 27 23q15 -3 15 -19.5t-15 -36.5q-19 -25 -47.5 -25t-57.5 25l-28 23zM487 651l2 -4q4 -5 -0.5 -13.5t-20.5 -21t-44 -28.5q-142 -82 -272 -82
q-43 0 -48 -10q-5 -12 -36.5 -38t-51.5 -32q-50 -16 -86 8q-35 26 -27 76t58 110q30 37 41 41q9 3 29 15q18 12 45 12q28 0 43 -12q24 -23 28 -45.5t-10 -57.5l-10 -28h33q112 0 243 80q41 25 58 31.5t26 -1.5zM49 489l14 17l-18 10q-38 27 -43 35l-16 22l-17 -28
q-33 -56 -18 -84q7 -13 19.5 -13.5t37.5 11.5q26 11 41 30zM96 580h2q12 58 -18 61h-6q-15 -2 -29 -18t-14 -33q0 -18 22 -35q21 -14 29 -10q6 3 14 35z" />
    <glyph glyph-name="odieresis" unicode="&#xf6;" horiz-adv-x="434" 
d="M12 735q-6 3 -6 23q0 16 17 16t23 -11t-5 -22q-17 -17 -29 -6zM125 752q0 -15 -14.5 -19.5t-20.5 8.5q-6 12 0.5 22.5t18.5 8.5q16 -3 16 -20zM489 653l3 -4q4 -5 -1 -13.5t-21 -21t-44 -28.5q-142 -82 -272 -82q-43 0 -48 -10q-5 -12 -36.5 -38t-51.5 -32q-50 -16 -86 8
q-35 26 -27 76t58 110q30 37 41 41q9 3 29 15q18 12 45 12q28 0 43 -12q24 -23 28 -45.5t-10 -57.5l-10 -28h33q113 0 244 80q41 26 57.5 32t25.5 -2zM51 492l15 16l-19 10q-38 27 -43 35l-16 22l-17 -28q-33 -56 -18 -84q7 -13 19.5 -13.5t37.5 11.5q25 11 41 31zM98 582h2
q12 58 -18 61h-6q-15 -2 -29 -18t-14 -33q0 -18 22 -35q21 -14 29 -10q6 3 14 35z" />
    <glyph glyph-name="divide" unicode="&#xf7;" horiz-adv-x="493" 
d="M211 535h-2q15 -1 17.5 -17t-9.5 -26q-11 -9 -17.5 -9t-15.5 9t-1 25t22 18h6zM424 684h2q23 -8 23 -16t-62 -11q-81 -6 -291 -32q-26 -4 -37 0q-12 4 -8 16q1 5 9.5 8.5t33.5 8t69.5 9.5t119.5 13q88 8 116 8q13 0 25 -4zM281 778v-2q-32 -8 -37 6q-4 12 -4 17
q0 4 10.5 8t21.5 4q9 0 13 -2q14 -6 12.5 -17t-16.5 -14z" />
    <glyph glyph-name="oslash" unicode="&#xf8;" horiz-adv-x="456" 
d="M510 653l-8 -8q4 -5 -1 -13.5t-21 -21t-44 -28.5q-142 -82 -272 -82q-42 0 -47 -11q-5 -12 -36.5 -37.5t-51.5 -31.5q-47 -16 -82 6l-35 -35q-4 -4 -6 -4t-6 4q-8 7 0 15l34 34q-48 58 46 176q30 38 40 41q9 3 29 15q18 12 45 12q28 0 43 -12q6 -4 15 -13l36 35q8 8 15 0
q7 -7 0 -14l-39 -39q11 -24 -4 -70l-10 -28h32q113 0 244 80q41 25 58 31.5t26 -1.5zM-16 543q-27 -49 -21 -76l70 70q-15 10 -17 12l-16 22zM63 487l17 21l-19 10l-12 6l-76 -75q15 -9 50 8q24 10 40 30zM113 582v6l-35 -35q16 -10 20 -6q7 4 15 35zM61 565l56 53
q-3 22 -21 25h-6q-15 -2 -29 -18t-14 -33q0 -16 14 -27z" />
    <glyph glyph-name="ugrave" unicode="&#xf9;" horiz-adv-x="550" 
d="M119 756q-51 49 -37 56l16 3q12 0 55.5 -42t43.5 -54q0 -24 -40 4q-18 13 -38 33zM582 647l-2 -2q6 -11 -8 -25.5t-72 -52.5q-184 -126 -264 -123q-41 1 -57 24.5t-13 55.5l4 41l-55 -45q-67 -54 -106 -64.5t-62 17.5q-27 35 37 145q26 43 40 53.5t29 -1.5q8 -6 5.5 -15
t-21.5 -39q-32 -57 -37 -69q-6 -14 -8.5 -28.5t-1.5 -24t6 -9.5q16 0 151 109q56 45 75.5 53.5t27.5 -8.5q4 -7 -19 -66q-22 -57 -22 -71q0 -53 130 14q68 35 161 98q12 9 45 31q28 20 37 2z" />
    <glyph glyph-name="uacute" unicode="&#xfa;" horiz-adv-x="550" 
d="M180 754v-4q-60 -60 -78 -49q-4 2 -4 10q0 10 42.5 53.5t56.5 48.5q28 7 25 -6q-4 -15 -42 -53zM580 643l-2 -2q6 -11 -8 -25.5t-72 -52.5q-84 -58 -155.5 -91t-109.5 -32q-41 1 -56.5 24.5t-12.5 55.5l4 41l-55 -45q-67 -54 -106 -64.5t-62 17.5q-27 35 37 145
q26 43 40 53.5t29 -1.5q8 -6 5.5 -15t-21.5 -39q-32 -57 -37 -69q-6 -14 -8.5 -28.5t-1.5 -24t6 -9.5q16 0 151 109q56 45 75.5 53.5t27.5 -8.5q4 -7 -19 -66q-22 -57 -22 -71q0 -53 130 14q68 35 161 98q12 9 45 31q28 20 37 2z" />
    <glyph glyph-name="ucircumflex" unicode="&#xfb;" horiz-adv-x="550" 
d="M127 752v-2q-37 -40 -49 -19q-3 5 25.5 35.5t41.5 36.5q12 6 21 0q11 -8 34.5 -46.5t22.5 -45.5q-2 -15 -18 -4q-11 7 -19 22q-3 4 -12 18t-12 19l-10 14zM582 645l-2 -2q6 -11 -8 -25.5t-72 -52.5q-184 -126 -264 -123q-41 1 -57 24.5t-13 55.5l4 41l-55 -45
q-67 -54 -106 -64.5t-62 17.5q-27 35 37 145q26 43 40 53.5t29 -1.5q8 -6 5.5 -15t-21.5 -39q-32 -57 -37 -69q-6 -14 -8.5 -28.5t-1.5 -24t6 -9.5q16 0 151 109q56 45 75.5 53.5t27.5 -8.5q4 -7 -19 -66q-22 -57 -22 -71q0 -53 130 14q68 35 161 98q12 9 45 31q28 20 37 2z
" />
    <glyph glyph-name="udieresis" unicode="&#xfc;" horiz-adv-x="552" 
d="M86 705q-6 3 -6 22q0 16 16 16q17 0 23.5 -10.5t-4.5 -21.5q-17 -17 -29 -6zM199 721h-2q0 -15 -14.5 -19t-20.5 9q-6 12 1 22t19 8q17 -3 17 -20zM578 647l-3 -2q6 -11 -8 -25.5t-71 -52.5q-84 -58 -155.5 -91t-109.5 -32q-41 1 -56.5 24.5t-12.5 55.5l4 41l-55 -45
q-67 -54 -106 -64.5t-62 17.5q-27 35 37 145q26 43 40 53.5t29 -1.5q8 -6 5.5 -15t-21.5 -39q-32 -57 -37 -69q-6 -14 -8.5 -28.5t-1.5 -24t6 -9.5q16 0 151 109q56 45 75.5 53.5t27.5 -8.5q4 -7 -19 -66q-22 -57 -22 -71q0 -53 130 14q68 35 161 98q12 9 45 31q28 20 37 2z
" />
    <glyph glyph-name="yacute" unicode="&#xfd;" horiz-adv-x="518" 
d="M170 731q-78 -41 -91 -24q-3 4 -1 10q3 10 56.5 38.5t68.5 28.5q60 -3 -33 -53zM557 647h4q1 -3 -11 -12t-39.5 -25t-70.5 -39q-23 -13 -61 -33q-86 -47 -101.5 -58t-23.5 -33q-1 -3 -2 -5q-13 -36 -50 -98t-65 -96q-47 -58 -112.5 -105t-116.5 -59q-37 -8 -64 -4
q-35 8 -44.5 36.5t12.5 65.5t116 112t217 152q72 46 74 48q3 3 16 56.5t13 65.5q0 17 -6 17q-7 0 -82 -68q-85 -77 -111 -95t-55 -21q-21 -1 -29 1t-16 11q-19 22 -7 76t46 104q24 37 41 37q8 0 14 -6q8 -6 5.5 -13.5t-19.5 -35.5q-37 -60 -45 -111q-5 -29 6 -29
q18 0 155 129q38 38 70 52q23 9 30.5 9.5t20.5 -7.5q19 -10 23 -28t-4 -56q-7 -44 -4 -47q6 -6 116 55q32 18 55 30t41 21t29 12.5t18.5 4t11 -2t5.5 -8.5zM88 260l-4 2q25 32 63 93t35 67q-14 0 -136 -87t-161 -126q-60 -60 -47 -90q6 -12 35 -7.5t64 23.5q39 22 82 57.5
t69 67.5z" />
    <glyph glyph-name="thorn" unicode="&#xfe;" horiz-adv-x="694" 
d="M647 676h2q3 -78 -45 -154t-121 -104q-35 -12 -65 -12q-41 0 -70 20q-56 38 -59 121v12l-201 -305q-7 -10 -16 -10q-5 0 -13 4q-17 10 -6 28l537 822q10 17 28 6t7 -29l-183 -278q2 1 6.5 3t6.5 3q77 32 133 -6t59 -121zM569 545v2q42 64 39 127q-3 62 -41 86
q-21 12 -49 12q-20 0 -47 -10q-60 -25 -102 -88q-42 -64 -39 -127q3 -62 41 -86q40 -25 96 -4q60 25 102 88z" />
    <glyph glyph-name="ydieresis" unicode="&#xff;" horiz-adv-x="518" 
d="M92 727q-6 3 -6 23q0 16 16 16q17 0 23.5 -11t-4.5 -22q-17 -17 -29 -6zM205 743h-2q0 -15 -14.5 -19t-20.5 9q-6 12 1 22.5t19 8.5q17 -3 17 -21zM557 647h4q1 -3 -11 -12t-39.5 -25t-70.5 -39q-23 -13 -61 -33q-86 -47 -101.5 -58t-23.5 -33q-1 -3 -2 -5
q-13 -36 -50 -98t-65 -96q-47 -58 -112.5 -105t-116.5 -59q-37 -8 -64 -4q-35 8 -44.5 36.5t12.5 65.5t116 112t217 152q72 46 74 48q3 3 16 56.5t13 65.5q0 17 -6 17q-7 0 -82 -68q-85 -77 -111 -95t-55 -21q-21 -1 -29 1t-16 11q-19 22 -7 76t46 104q24 37 41 37
q8 0 14 -6q8 -6 5.5 -13.5t-19.5 -35.5q-37 -60 -45 -111q-5 -29 6 -29q18 0 155 129q38 38 70 52q23 9 30.5 9.5t20.5 -7.5q19 -10 23 -28t-4 -56q-7 -44 -4 -47q6 -6 116 55q32 18 55 30t41 21t29 12.5t18.5 4t11 -2t5.5 -8.5zM88 260l-4 2q25 32 63 93t35 67
q-14 0 -136 -87t-161 -126q-60 -60 -47 -90q6 -12 35 -7.5t64 23.5q39 22 82 57.5t69 67.5z" />
    <glyph glyph-name="Amacron" unicode="&#x100;" horiz-adv-x="1343" 
d="M1282 1530v4q64 -38 -45 -45q-16 -2 -37 -2q-120 -2 -131 23q-2 8 6 16q12 11 100 12.5t107 -8.5zM1163 674h8q29 0 48 -1.5t31 -4.5t17 -7.5t3 -11.5q-1 -9 -13.5 -10.5t-74.5 -1.5h-84l-25 -90q-45 -170 -73 -312.5t-23 -179.5q4 -30 0 -37q-5 -9 -23 -8t-24 10
q-12 18 -3 91t44 235q32 161 65 272l4 15l-61 -4q-197 -12 -442 -35q-136 -14 -148 -14q-9 0 -133 -189.5t-143 -232.5q-7 -20 -13.5 -26.5t-17.5 -6.5t-15.5 4t-5.5 14q-2 15 56.5 114.5t138.5 217.5q60 85 55 90q-4 4 -103.5 -11.5t-154.5 -29.5t-72.5 -13.5t-17.5 15.5
q0 35 285 74l98 12l29 37q189 244 370.5 437t301.5 278q88 61 137 61q63 0 63 -104q0 -53 -16 -129.5t-68 -273.5q-63 -232 -63 -240q0 -4 63 -4zM1067 725l-2 2q1 2 21 78t34 125q43 153 60 223q25 100 29 162t-15 69h-6q-37 3 -168 -104q-190 -156 -424 -434
q-39 -47 -107.5 -133.5t-68.5 -89.5q1 -3 14 -2t103 10q232 26 487 39l29 2z" />
    <glyph glyph-name="amacron" unicode="&#x101;" 
d="M82 705h-2q-85 -3 -91 17q-2 4 3 9q8 8 68.5 9.5t74.5 -5.5q52 -27 -53 -30zM457 637l-4 2q43 30 48 12q1 -3 1 -10q0 -6 -23 -29q-30 -30 -80 -68.5t-88 -60.5q-67 -38 -109.5 -43.5t-72.5 19.5q-17 13 -21 22t-4 33v35l-49 -37q-142 -109 -198 -74q-38 23 2.5 96.5
t115.5 116.5q45 25 78 25q46 0 64 -37l10 -21l20 17q17 14 25.5 15.5t17.5 -7.5q10 -10 -12 -49q-42 -76 -22 -105q10 -12 39 -10q68 6 198 111q60 45 64 47zM37 551l4 -2q36 26 41.5 34t1.5 23q-8 24 -14 27q-4 4 -11 4q-34 2 -98 -54.5t-74 -99.5q-4 -19 6 -19q12 0 54 25
q35 22 90 62z" />
    <glyph glyph-name="Abreve" unicode="&#x102;" horiz-adv-x="1310" 
d="M1163 670h8q29 0 48 -1.5t31 -4.5t17 -7.5t3 -11.5q-1 -9 -13.5 -10.5t-74.5 -1.5h-84l-25 -90q-45 -170 -73 -312.5t-23 -179.5q4 -30 0 -37q-5 -9 -23 -8t-24 10q-12 18 -3 91t44 235q32 161 65 272l4 15l-61 -4q-197 -12 -442 -35q-146 -15 -148 -15q-9 0 -133 -189
t-143 -232q-7 -20 -13.5 -26.5t-17.5 -6.5t-15.5 4t-5.5 14q-2 15 56.5 114.5t138.5 217.5q60 85 55 90q-4 4 -103.5 -11.5t-154.5 -29.5t-72.5 -13.5t-17.5 15.5q0 35 285 74l98 12l29 37q189 244 370.5 437t301.5 278q88 61 137 61q63 0 63 -104q0 -53 -16 -130.5
t-68 -273.5q-63 -232 -63 -239q0 -4 63 -4zM1067 721l-2 2q1 2 21 78t34 125q43 153 60 223q25 100 29 162t-15 69h-6q-37 3 -168 -104q-190 -156 -424 -434q-39 -46 -107.5 -133.5t-68.5 -90.5q0 -2 9 -2l108 11q232 26 487 39l29 2zM1155 1475h2q-22 9 -30.5 21.5
t-10.5 35.5h43q2 -25 23 -32.5t41 9.5q8 8 12 23h43q-6 -38 -45 -56.5t-78 -0.5z" />
    <glyph glyph-name="abreve" unicode="&#x103;" 
d="M459 635l-4 2q43 30 48 12q1 -3 1 -10q0 -6 -23 -29q-30 -30 -80 -68.5t-88 -60.5q-67 -38 -109.5 -43.5t-72.5 19.5q-17 13 -21 22t-4 33v35l-49 -37q-142 -109 -198 -74q-38 23 2.5 96.5t115.5 116.5q45 25 78 25q46 0 64 -37l10 -21l21 17q17 14 25.5 15.5t17.5 -7.5
q6 -7 3.5 -15.5t-16.5 -33.5q-42 -76 -22 -105q10 -12 39 -10q68 6 198 111q60 45 64 47zM39 549l4 -2q36 26 41.5 34t1.5 23q-8 24 -14 27q-4 4 -11 4q-34 2 -98 -54.5t-74 -99.5q-4 -19 6 -19q12 0 54 25q35 22 90 62zM25 721h-5q-21 9 -29.5 22.5t-10.5 38.5h43
q2 -25 22.5 -33t42.5 9q11 8 14 24h43q-5 -39 -43 -59t-77 -2z" />
    <glyph glyph-name="Aogonek" unicode="&#x104;" horiz-adv-x="1300" 
d="M1163 670h11q57 0 79 -5.5t19 -19.5q-1 -9 -13.5 -10.5t-74.5 -1.5h-84l-25 -90q-45 -170 -73 -312.5t-23 -179.5q4 -30 0 -37q-7 -14 -31 -6q-27 -2 -34.5 -5t-8.5 -13q-3 -19 13 -32.5t38 -10.5q30 5 36 -8q3 -10 -13 -19q-19 -10 -32 -10t-38 10q-20 9 -35.5 30
t-15.5 38q0 15 19.5 32.5t40.5 20.5h6q-6 57 47 301q32 161 65 272l4 15l-61 -4q-197 -12 -442 -35q-146 -15 -148 -15q-9 0 -133 -189t-143 -232q-7 -20 -13.5 -26.5t-17.5 -6.5t-15.5 4t-5.5 14q-2 15 56.5 114.5t138.5 217.5q60 85 55 90q-4 4 -103.5 -11.5t-154.5 -29.5
t-72.5 -13.5t-17.5 15.5q0 35 285 74l98 12l29 37q189 244 370.5 437t301.5 278q88 61 137 61q63 0 63 -104q0 -53 -16 -130.5t-68 -273.5q-63 -232 -63 -239q0 -4 63 -4zM1069 721l-2 2q1 2 21 78t34 125q43 153 60 223q25 100 29 162t-15 69h-6q-37 3 -168 -104
q-190 -156 -424 -434q-39 -46 -107.5 -133.5t-68.5 -90.5q0 -2 9 -2l108 11q232 26 487 39l29 2z" />
    <glyph glyph-name="aogonek" unicode="&#x105;" 
d="M459 635h-4q43 30 48 12q1 -3 1 -10q0 -6 -23 -29q-30 -30 -80 -68.5t-88 -60.5q-109 -59 -159 -37q-9 -6 -29 -16q-21 -10 -27 -16t-4 -15q3 -15 21 -19.5t35 5.5q25 16 31 5q4 -6 -5 -17q-11 -14 -20.5 -18.5t-32.5 -4.5q-19 0 -38.5 10.5t-25.5 24.5q-5 12 5.5 32.5
t27.5 30.5q9 5 12 7.5t2 5.5l15 10q-15 15 -15 45v35l-49 -37q-142 -109 -198 -74q-38 23 2.5 96.5t115.5 116.5q45 25 78 25q46 0 64 -37l10 -21l21 17q17 14 25.5 15.5t17.5 -7.5q6 -7 3.5 -15.5t-16.5 -33.5q-42 -76 -22 -105q10 -12 39 -10q68 6 198 111q60 45 64 47z
M39 547l4 -2q36 26 41.5 34t1.5 23q-8 24 -14 27q-4 4 -11 4q-34 2 -98 -54.5t-74 -99.5q-4 -19 6 -19q12 0 54 25q35 22 90 62z" />
    <glyph glyph-name="Cacute" unicode="&#x106;" horiz-adv-x="1345" 
d="M1032 1511l-2 -2q-72 -49 -86 -33q-3 3 -2 9q1 10 51.5 45t65.5 37q31 3 23.5 -12t-50.5 -44zM1266 580l4 -5q3 -5 -22 -28t-83 -70q-218 -180 -375.5 -272.5t-302.5 -126.5q-56 -12 -92.5 -17.5t-85.5 -3.5t-92 17q-110 36 -156 155q-12 35 -12 129q0 60 3.5 88t15.5 68
q58 190 176 369q128 194 316.5 339t363.5 183q74 15 129.5 -6t70.5 -70q15 -47 -25 -146.5t-112 -189.5q-85 -108 -113 -108q-38 0 5 43q82 82 140 188t58 174q0 34 -2.5 42t-19.5 20q-23 16 -64 16q-80 0 -189.5 -50.5t-221.5 -139.5q-141 -112 -242 -245.5t-176 -305.5
q-93 -214 -60 -363q27 -124 127 -158q99 -32 254 9q145 42 316 149q176 109 334 240q38 32 61 49.5t38.5 26.5t22.5 8.5t11 -8.5z" />
    <glyph glyph-name="cacute" unicode="&#x107;" horiz-adv-x="460" 
d="M113 768l2 2q-82 -53 -90 -32q-1 3 0 7q1 10 51 44t65 36q57 3 -14 -47q-6 -5 -14 -10zM399 610l2 -4q92 63 100 42q1 -3 1 -7q0 -11 -43 -43q-102 -76 -238 -137q-46 -20 -100 -31.5t-76 -5.5q-2 1 -27 6q-40 8 -60.5 39.5t-10.5 69.5q19 69 74.5 113.5t101.5 27.5
q28 -10 37 -46q9 -32 -12 -37l-5 -1q-12 0 -17.5 7t-10.5 26q-3 15 -13 20q-12 3 -44.5 -25t-47.5 -55q-53 -89 23 -104q118 -25 366 145z" />
    <glyph glyph-name="Ccaron" unicode="&#x10c;" horiz-adv-x="1345" 
d="M1092 1516q-46 -31 -71 -41t-39.5 -1t-23.5 39q-28 95 -6 101q12 3 19.5 -8.5t17.5 -51.5l12 -45l37 19q42 21 60 33q21 14 30 10q27 -12 -36 -55zM1268 582l4 -4q2 -3 -8 -14.5t-34 -32.5t-63 -52q-218 -180 -375.5 -272.5t-302.5 -126.5q-56 -12 -92.5 -17.5
t-85.5 -3.5t-92 17q-110 36 -156 155q-12 35 -12 129q0 60 3.5 88t15.5 68q58 190 176 369q128 194 316.5 339t363.5 183q74 15 129.5 -6t70.5 -70q15 -47 -25 -146.5t-112 -189.5q-85 -108 -112 -108q-37 0 0 39l4 4q82 82 140 188t58 174q0 34 -2.5 42t-19.5 20
q-23 16 -64 16q-80 0 -189.5 -50.5t-221.5 -139.5q-141 -112 -242 -245.5t-176 -305.5q-93 -214 -60 -363q27 -123 127 -157q101 -32 254 8q145 42 316 149q176 109 334 240q38 32 61 49.5t38.5 26.5t22.5 8.5t11 -8.5z" />
    <glyph glyph-name="ccaron" unicode="&#x10d;" horiz-adv-x="460" 
d="M168 760h-2q-36 -25 -55 -32.5t-30 -1t-18 29.5q-24 72 -8 75q9 3 15.5 -6t15.5 -39l10 -34l29 16q6 4 14.5 9t18 10.5t12.5 7.5q19 11 25 8q21 -9 -27 -43zM395 610l2 -4q92 63 100 42q1 -3 1 -7q0 -11 -43 -43q-102 -76 -238 -137q-46 -20 -100 -31.5t-76 -5.5
q-2 1 -27 6q-40 8 -60.5 39.5t-10.5 69.5q19 69 74.5 113.5t101.5 27.5q28 -10 37 -46q9 -32 -12 -37l-5 -1q-12 0 -17.5 7t-10.5 26q-3 15 -13 20q-12 3 -44.5 -25t-47.5 -55q-53 -89 23 -104q118 -25 366 145z" />
    <glyph glyph-name="Dcaron" unicode="&#x10e;" horiz-adv-x="1452" 
d="M1106 1528q-63 -52 -87.5 -55t-43.5 40q-39 92 -19 99q12 5 21 -6.5t22 -49.5l17 -43l33 23q10 6 30 20.5t25 18.5q24 16 31 12q30 -9 -29 -59zM1489 1149l-4 -6q14 -33 18.5 -99t-4.5 -108q-38 -180 -221.5 -389t-441.5 -367q-179 -111 -347 -155q-58 -15 -132.5 -16.5
t-120.5 11.5q-86 25 -120.5 87.5t-6.5 144.5q68 207 356 328q60 25 65 41q5 13 56.5 126.5t79.5 172.5q28 56 84.5 149.5t93.5 144.5q28 39 39 50t20 10q34 -5 -1 -60q-5 -9 -13 -20q-92 -129 -168 -274q-31 -61 -80 -165t-53 -120q-3 -11 -1.5 -12t13.5 2q75 17 158.5 12
t97.5 -27q13 -22 1.5 -30t-34.5 6q-20 12 -91 12t-122 -12q-44 -10 -51 -17q-11 -15 -30.5 -77t-20.5 -86q-1 -32 -10.5 -43.5t-24.5 -0.5q-12 8 -10.5 43.5t18.5 83.5q19 58 17 60q-3 3 -60 -26t-94 -52q-86 -55 -141.5 -135.5t-55.5 -149.5q0 -66 50.5 -100.5t146.5 -34.5
q132 0 313 87.5t371 244.5q164 135 273.5 278.5t144.5 270.5q10 38 10 98t-10 92q-31 97 -122.5 164t-223.5 90q-191 32 -438 -33q-333 -90 -478 -241q-32 -32 -63 -81.5t-31 -68.5q0 -31 -27 -28q-17 3 -16.5 30.5t19.5 61.5q45 85 116 149q93 80 263 150t339 98
q75 12 174 12t162 -12q280 -56 369 -264z" />
    <glyph glyph-name="dcaron" unicode="&#x10f;" horiz-adv-x="589" 
d="M498 924h-2q-15 -4 -14 15q1 25 26 71q29 53 41 53q7 -2 12 -16q4 -12 -23.5 -65t-39.5 -58zM623 657l-7 -2q22 -7 -6 -35q-19 -19 -69 -59q-120 -92 -182 -123.5t-109 -23.5q-15 4 -33 18q-12 11 -15 22t-3 46q0 50 20 106q25 65 21 66q-2 1 -18 -19l-13 -16
q-45 -58 -91 -104.5t-73 -61.5q-44 -25 -78.5 -16.5t-34.5 43.5q0 38 36.5 94t74.5 78q49 28 92 -6l25 -21l43 59q48 65 213 314q57 88 76 88q4 0 12 -4q12 -7 9.5 -18.5t-24.5 -43.5q-88 -130 -171.5 -326t-69.5 -239q16 -55 166 47q20 14 43 31q93 69 125 89t41 17z
M80 557l2 -2q34 36 39.5 46.5t-2.5 21.5q-14 22 -29 22q-4 0 -16 -4q-26 -12 -64 -72t-30 -77q8 -18 70 37q14 12 30 28z" />
    <glyph glyph-name="dmacron" unicode="&#x111;" horiz-adv-x="589" 
d="M625 657l-7 -4q22 -7 -6 -35q-19 -19 -69 -59q-120 -92 -182 -123.5t-109 -23.5q-15 4 -33 18q-12 11 -15 22t-3 46q0 50 20 106q25 65 21 66q-2 1 -18 -19l-13 -16q-45 -58 -91 -104.5t-73 -61.5q-44 -25 -78.5 -16.5t-34.5 43.5q0 38 36.5 94t74.5 78q49 28 92 -6
l25 -21l43 59q43 55 149 218l-137 -25q-13 0 -16 14q-1 6 2.5 11.5t9.5 7.5l166 28q4 6 17.5 27.5t21.5 32.5q57 88 76 88q4 0 12 -4q12 -7 9.5 -18.5t-23.5 -43.5q-27 -39 -43 -67l77 14q6 1 11.5 -2.5t7.5 -9.5q1 -6 -3 -11.5t-10 -7.5l-104 -18q-75 -136 -131.5 -281
t-46.5 -180q16 -55 166 47q20 14 43 31q93 69 125 89t41 17zM82 555l2 -2q34 36 39.5 46.5t-2.5 21.5q-14 22 -29 22q-4 0 -16 -4q-26 -12 -64 -72.5t-30 -77.5q8 -19 74 41q13 12 26 25z" />
    <glyph glyph-name="Emacron" unicode="&#x112;" horiz-adv-x="1050" 
d="M1137 1489h-2q-123 -18 -134 9q-3 6 3 15q9 12 95.5 26t106.5 7q64 -23 -9 -44zM1202 1409l4 -2q29 -19 40 -39t11 -57q-2 -64 -61.5 -161.5t-142.5 -168.5q-51 -44 -69 -54t-30 -1q-4 3 -4.5 6t4 9.5t13.5 15t28 24.5q87 75 150 173.5t63 160.5q0 23 -14.5 43t-34.5 26
q-43 14 -137.5 -7t-210.5 -70q-189 -78 -353 -191.5t-218 -202.5q-29 -47 -25.5 -77.5t43.5 -61.5t103.5 -48t173.5 -26q101 -7 101 -25l-1 -5q-5 -10 -25 -13q-17 -3 -96 -26q-104 -34 -197 -95.5t-153 -136.5q-39 -48 -52.5 -79t-13.5 -72q0 -94 99 -142
q22 -11 38.5 -13.5t61.5 -2.5q60 0 100.5 9.5t96.5 35.5q69 34 141.5 88.5t97.5 91.5q7 11 7 16t-7 11q-10 9 -5 18t20 9q17 0 27.5 -10t10.5 -25q0 -29 -66.5 -92.5t-141.5 -106.5q-104 -60 -206.5 -78t-181.5 9q-44 15 -81 46t-54 68q-10 23 -13 39t-1 47q2 49 33 99
q50 85 144.5 159.5t211.5 120.5q54 22 54 26q-2 2 -9 3q-69 4 -140 26.5t-112 51.5q-25 19 -44 49t-19 51q0 54 71.5 134.5t196.5 166.5q106 74 264.5 149.5t270.5 106.5q63 16 139 16q54 0 68 -2t32 -14z" />
    <glyph glyph-name="emacron" unicode="&#x113;" horiz-adv-x="399" 
d="M94 719h-2q-87 -8 -92 13q-1 4 4 9q8 8 67.5 13.5t73.5 -0.5q46 -20 -16 -31q-15 -2 -35 -4zM371 616l2 -2q79 61 80 33v-4q0 -14 -68 -68q-114 -89 -196 -124.5t-150 -24.5q-52 9 -78.5 35.5t-21.5 64.5q6 53 58.5 101.5t100.5 48.5q13 0 25 -6q27 -12 24.5 -37
t-32.5 -51q-27 -23 -72 -27h-20.5h-13.5t-8 -0.5t-5 -2t-4 -5.5q-8 -15 -4 -37q3 -49 80 -49q105 0 303 155zM43 614l2 7q-19 -17 -10 -23q9 -4 14 -3.5t25 9.5q15 7 24.5 20.5t3.5 18.5h-4q-19 0 -55 -29z" />
    <glyph glyph-name="Edot" unicode="&#x116;" horiz-adv-x="1050" 
d="M1120 1485l2 2q-8 8 -8 29q0 22 25 22q23 0 30 -15t-8 -30q-23 -23 -41 -8zM1206 1411l4 -2q30 -19 41 -39.5t11 -56.5q-2 -63 -62 -160.5t-143 -169.5q-51 -44 -69 -54t-30 -1q-4 3 -4.5 6t4 9.5t13.5 15t28 24.5q87 75 150 173.5t63 160.5q0 23 -14.5 43t-34.5 26
q-43 14 -137.5 -7t-210.5 -70q-189 -78 -353 -191.5t-218 -202.5q-29 -47 -25.5 -77.5t43.5 -61.5t103.5 -48t173.5 -26q101 -7 101 -25l-1 -5q-5 -10 -25 -13q-17 -3 -96 -26q-104 -34 -197 -95.5t-153 -136.5q-39 -48 -52.5 -79t-13.5 -72q0 -49 24 -82.5t75 -58.5
q23 -11 39.5 -14t60.5 -3q60 0 100.5 9.5t96.5 35.5q69 34 141.5 88.5t97.5 91.5q7 11 7 16t-7 11q-10 9 -5 18t20 9q17 0 28 -10t11 -25q0 -29 -67 -92.5t-142 -106.5q-104 -60 -206 -78t-181 9q-44 15 -81.5 46t-54.5 68q-10 23 -13 39t-1 47q2 49 33 99
q50 85 144.5 159.5t211.5 120.5q54 22 54 26q-2 2 -9 3q-69 4 -140 26.5t-112 51.5q-25 19 -44 49t-19 51q0 54 71.5 134.5t196.5 166.5q106 74 264.5 149.5t270.5 106.5q63 16 139 16q54 0 68 -2t32 -14z" />
    <glyph glyph-name="edot" unicode="&#x117;" horiz-adv-x="419" 
d="M106 735q0 -15 -14 -19t-20 9q-6 12 0 22.5t18 8.5q16 -3 16 -21zM393 614l2 -2q79 61 80 33v-4q0 -15 -67 -68q-113 -89 -196 -124.5t-151 -24.5q-52 9 -78.5 35.5t-21.5 64.5q6 53 59 101.5t101 48.5q12 0 24 -6q27 -12 24.5 -37t-32.5 -51q-27 -23 -71 -27h-20.5h-14
t-8.5 -0.5t-5 -2t-4 -5.5q-8 -15 -4 -37q3 -49 80 -49q105 0 303 155zM66 612l2 6q-19 -17 -11 -22q9 -4 14 -3.5t25 9.5q15 7 25 20.5t4 18.5h-4q-19 0 -55 -29z" />
    <glyph glyph-name="Eogonek" unicode="&#x118;" horiz-adv-x="1050" 
d="M1204 1409l4 -2q30 -19 41 -39.5t11 -56.5q-2 -63 -62 -160.5t-143 -169.5q-51 -44 -69 -54t-30 -1q-4 3 -4.5 6t4 9.5t13.5 15t28 24.5q87 75 150 173.5t63 160.5q0 23 -14.5 43t-34.5 26q-43 14 -137.5 -7t-210.5 -70q-189 -78 -353 -191.5t-218 -202.5
q-29 -47 -25.5 -77.5t43.5 -61.5t103.5 -48t173.5 -26q101 -7 101 -25l-1 -5q-5 -10 -25 -13q-17 -3 -96 -26q-104 -34 -197 -95.5t-153 -136.5q-39 -48 -52.5 -79t-13.5 -72q0 -94 99 -142q22 -11 38.5 -13.5t61.5 -2.5q60 0 100.5 9.5t96.5 35.5q69 34 141.5 88.5
t97.5 91.5q7 11 7 16t-7 11q-10 9 -5 18t20 9q17 0 27.5 -10t10.5 -25q0 -25 -51 -76q-4 -11 -12 -22q-14 -24 -15.5 -32t5.5 -16q13 -12 33.5 -5.5t29.5 26.5q12 28 26 24q10 -3 9 -22q-2 -22 -8.5 -33t-28.5 -24q-19 -12 -45 -14t-39 7q-20 13 -16 54q-52 -42 -96 -66
q-104 -60 -206 -78t-181 9q-44 15 -81.5 46t-54.5 68q-10 23 -13 39t-1 47q2 49 33 99q50 85 144.5 159.5t211.5 120.5q54 22 54 26q-2 2 -9 3q-69 4 -140 26.5t-112 51.5q-25 19 -44 49t-19 51q0 54 71.5 134.5t196.5 166.5q106 74 264.5 149.5t270.5 106.5q63 16 139 16
q54 0 68 -2t32 -14z" />
    <glyph glyph-name="eogonek" unicode="&#x119;" horiz-adv-x="399" 
d="M373 614l4 2q79 61 80 33v-4q0 -13 -68 -67q-154 -121 -252 -146q-3 -9 -33 -22q-21 -9 -26.5 -14.5t-3.5 -14.5q3 -15 20.5 -20t34.5 4q27 14 34 1q4 -7 -5 -18q-12 -13 -23.5 -17.5t-34.5 -4.5q-18 0 -37.5 11t-25.5 25q-4 12 5 30.5t24 29.5q-17 0 -25 2
q-52 9 -78.5 35.5t-21.5 64.5q6 53 58.5 101.5t100.5 48.5q13 0 25 -6q27 -12 24.5 -37t-32.5 -51q-27 -23 -72 -27h-20.5h-13.5t-8 -0.5t-5 -2t-4 -5.5q-8 -15 -4 -37q3 -49 80 -49q105 0 303 155zM47 616l2 7q-19 -17 -10 -23q9 -4 14 -3.5t25 9.5q15 7 24.5 20.5
t3.5 18.5h-4q-19 0 -55 -29z" />
    <glyph glyph-name="Ecaron" unicode="&#x11a;" horiz-adv-x="1050" 
d="M1190 1546h-2q-43 -70 -65.5 -81t-53.5 24q-66 75 -49 88q10 8 21.5 0.5t37.5 -39.5l31 -37l25 33q30 39 41 55q15 23 24 23q31 0 -10 -66zM1200 1409l2 -2q29 -19 40 -39t11 -57q-2 -64 -61.5 -161.5t-142.5 -168.5q-51 -44 -69 -54t-30 -1q-4 3 -4.5 6t4 9.5t13.5 15
t28 24.5q87 75 150 173.5t63 160.5q0 23 -14.5 43t-34.5 26q-43 14 -137.5 -7t-210.5 -70q-189 -78 -353 -191.5t-218 -202.5q-29 -47 -25.5 -77.5t43.5 -61.5q74 -58 276 -74q102 -7 102 -25q0 -2 -1 -5q-5 -10 -25 -13q-17 -3 -96 -26q-104 -34 -197 -95.5t-153 -136.5
q-39 -48 -52.5 -79t-13.5 -72q0 -49 24 -83t77 -59q22 -11 38.5 -13.5t61.5 -2.5q60 0 100.5 9.5t96.5 35.5q69 34 141.5 88.5t97.5 91.5q7 11 7 16t-7 11q-10 9 -5.5 18t19.5 9q17 0 28 -10t11 -25q0 -29 -67 -92.5t-142 -106.5q-104 -60 -206 -78t-181 9q-44 15 -81 46
t-54 68q-10 23 -13 39t-1 47q2 49 33 99q50 85 144.5 159.5t211.5 120.5q54 22 54 26q-2 2 -9 3q-69 4 -140 26.5t-112 51.5q-25 19 -44 49t-19 51q0 54 71.5 134.5t196.5 166.5q106 74 264.5 149.5t270.5 106.5q63 16 139 16q54 0 68 -2t32 -14z" />
    <glyph glyph-name="ecaron" unicode="&#x11b;" horiz-adv-x="399" 
d="M145 754v-6q-28 -45 -42.5 -51.5t-34.5 16.5q-41 47 -31 57q6 6 13 2t24 -24l18 -23l17 20q14 21 26 37q11 15 17 15q17 0 -7 -43zM373 608l2 -2q79 61 80 33v-4q0 -14 -68 -68q-114 -89 -196 -124.5t-150 -24.5q-52 9 -78.5 35.5t-21.5 64.5q6 53 58.5 101.5t100.5 48.5
q13 0 25 -6q27 -12 24.5 -37.5t-32.5 -51.5q-26 -22 -72 -26h-20.5h-13.5t-8 -0.5t-5 -2t-4 -5.5q-8 -15 -4 -37q3 -49 80 -49q105 0 303 155zM45 606l2 6q-19 -16 -10 -22q9 -4 14 -3.5t25 9.5q15 7 24.5 20.5t3.5 18.5h-4q-19 0 -55 -29z" />
    <glyph glyph-name="Gbreve" unicode="&#x11e;" horiz-adv-x="1153" 
d="M958 936l-2 -2q100 151 125 283q10 49 11 65.5t-7 42.5q-20 70 -93.5 70.5t-172.5 -58.5q-152 -86 -317.5 -260t-270.5 -372q-87 -162 -120.5 -319t0.5 -243q41 -104 142.5 -88.5t233.5 146.5q51 51 109 123q181 226 178 229q-1 3 -58 -7.5t-81 -17.5q-20 -6 -30 -1.5
t-5 18.5q3 9 12.5 13.5t38.5 12.5q90 23 198.5 30.5t119.5 -7.5q7 -8 6 -13.5t-9.5 -8t-23.5 -1.5q-27 4 -61 0l-35 -4l-37 -61q-70 -116 -152 -293.5t-94 -241.5q-4 -20 -9.5 -30t-12.5 -10t-15 10t-2 47q4 26 48 137.5t73 171.5q15 33 12 33q-2 0 -8 -6
q-118 -135 -175 -187.5t-122 -85.5q-118 -57 -200 -10q-88 51 -103 195q-5 48 11.5 142.5t41.5 158.5q96 256 287 488.5t410 354.5q47 27 95 42t96 17.5t85.5 -22t54.5 -76.5q11 -34 -0.5 -107.5t-37.5 -131.5q-40 -91 -87.5 -167t-66.5 -79q-18 -3 -15 12q2 18 35 68z
M963 1497l2 -2q-23 10 -32 25t-9 43h43v-7q0 -26 21.5 -34.5t43.5 8.5q12 12 12 33h43q-2 -41 -42 -63.5t-82 -2.5z" />
    <glyph glyph-name="gbreve" unicode="&#x11f;" horiz-adv-x="546" 
d="M565 657l-6 2q23 -10 -22 -36q-7 -4 -17 -9q-36 -18 -63 -30q-169 -74 -187 -101q-9 -11 -59 -88q-102 -154 -213 -243q-70 -57 -131.5 -77t-89.5 5q-35 31 15 101t171 157q124 89 236 156q20 12 29 25t24 52q22 60 18 64q-9 8 -41 -12.5t-108 -81.5q-85 -69 -119.5 -89
t-60.5 -14q-30 6 -31 39t24.5 77.5t69.5 82.5q29 26 42 32.5t36 8.5q23 1 33 -1t22 -11q20 -16 23 -25q3 -6 11 -3.5t36 17.5q36 20 56.5 22.5t37.5 -11.5q11 -8 13 -16.5t-1 -33.5q-3 -32 -8 -51q-3 -8 3 -7q10 2 54 24q54 27 140 59q46 16 59 16h4zM53 539l-2 2
q76 64 76 73q-2 2 -8.5 9t-9.5 10q-5 8 -11 8q-5 0 -24 -8q-23 -11 -57.5 -49t-49.5 -70q-20 -42 -8 -42q13 1 94 67zM102 340l-2 4q61 83 62 86q-5 0 -88 -55q-118 -78 -194.5 -150t-76.5 -104q0 -12 4 -15t17 0q18 4 49 19q52 28 114 86t115 129zM59 752h-4q-21 9 -30 22
t-11 37h43q2 -25 23 -33.5t43 8.5q11 8 14 25h43q-5 -38 -43.5 -57.5t-77.5 -1.5z" />
    <glyph glyph-name="Imacron" unicode="&#x12a;" horiz-adv-x="1067" 
d="M1616 1436l4 2q12 -10 6.5 -20t-20.5 -7q-18 4 -202 7.5t-202 0.5q-20 -3 -47 -47q-9 -16 -108 -170q-346 -531 -494 -815q-39 -75 -82 -165.5t-43 -96.5q0 -4 152 -4q150 0 168 -10q15 -8 17 -18t-8 -13.5t-26 2.5q-15 6 -158 6q-103 -2 -124.5 -3.5t-28.5 -8.5
q-9 -11 -22.5 -12t-22.5 8t-74 4q-121 -7 -209 -17q-20 -3 -35 4q-9 5 -10 11t6.5 11t20.5 7q46 9 272 25l27 2l28 65q154 366 590 1026q129 194 129 199q0 7 -108.5 -1t-192.5 -22q-43 -7 -55 3q-22 19 31 31q7 2 14 3q191 31 487 31q299 0 320 -18zM946 1513q-6 0 -11 5.5
t-5 11.5t5 11t11 5h432q6 0 11.5 -5t5.5 -11t-5.5 -11.5t-11.5 -5.5h-432z" />
    <glyph glyph-name="imacron" unicode="&#x12b;" horiz-adv-x="372" 
d="M45 733q-67 -6 -68 8q0 6 9 17q7 9 66.5 14.5t68.5 -2.5q18 -14 -22 -27q-22 -7 -54 -10zM322 612h-3q88 58 96 33q1 -1 1 -2q0 -5 -41 -35q-74 -53 -195 -114q-65 -32 -97.5 -43t-64.5 -11q-33 0 -57 19q-22 17 -22 39q0 20 14.5 55.5t34.5 64.5q42 62 59 62q9 0 19 -10
q6 -6 1 -19t-28 -49q-63 -102 -38 -121q8 -6 26 -6q35 0 116.5 37.5t178.5 99.5z" />
    <glyph glyph-name="Idot" unicode="&#x130;" horiz-adv-x="1067" 
d="M1169 1534l-4 -2q-8 8 -8 33q0 24 27 24q24 0 32.5 -16t-6.5 -31q-23 -23 -41 -8zM1612 1434l4 2q12 -10 6.5 -20t-20.5 -7q-18 4 -202 7.5t-202 0.5q-20 -3 -47 -47q-2 -3 -109 -170q-341 -523 -493 -815q-39 -75 -82 -165.5t-43 -96.5q0 -4 151 -4t168 -10
q15 -8 17 -18t-7.5 -13.5t-25.5 2.5q-15 6 -158 6q-103 -2 -124.5 -3.5t-28.5 -8.5q-9 -11 -22.5 -12t-22.5 8t-74 4q-121 -7 -209 -17q-20 -3 -35 4q-9 5 -10 11t6.5 11t20.5 7q46 9 272 25l27 2l28 65q154 366 590 1026q129 194 129 199q0 7 -108.5 -1t-192.5 -22
q-44 -7 -55 2q-22 20 31 32q7 2 14 3q191 31 487 31q299 0 320 -18z" />
    <glyph glyph-name="dotlessi" unicode="&#x131;" horiz-adv-x="372" 
d="M322 614h-3q88 58 96 33q1 -1 1 -2q0 -5 -41 -35q-74 -53 -195 -114q-65 -32 -97.5 -43t-64.5 -11q-33 0 -57 19q-22 17 -22 39q0 20 14.5 56t34.5 65q41 61 59 61q9 0 19 -10q6 -6 1 -19t-28 -49q-63 -102 -38 -121q8 -6 26 -6q35 0 116.5 37.5t178.5 99.5z" />
    <glyph glyph-name="Lslash" unicode="&#x141;" horiz-adv-x="1234" 
d="M1090 270l4 -2q97 -14 96 -42q-1 -8 -8 -17q-10 -13 -31 -13t-21 13q0 12 -8 16q-12 6 -137 13q-129 8 -299 0q-330 -14 -520 -41q-48 -8 -84 -15q-19 -4 -23 0q-9 8 -4 18t19 15q19 6 98 17.5t102 11.5q15 0 20.5 4.5t14.5 25.5q25 58 107.5 224t156.5 307l-223 -82h-6
q-13 0 -16 12q-7 18 10 25l262 96q15 30 18 35q49 92 166.5 281t145.5 221q27 30 51 10q7 -7 -16 -57q-24 -50 -37 -54q-11 -3 -98.5 -141.5t-159.5 -265.5l409 149q18 7 25 -10q7 -18 -10 -25l-451 -163q-55 -100 -126.5 -238.5t-120.5 -238t-46 -101.5q1 0 16.5 1t45.5 3
t57 4q114 9 341 10.5t280 -6.5z" />
    <glyph glyph-name="lslash" unicode="&#x142;" horiz-adv-x="481" 
d="M498 657l4 -8q10 0 14 -12q0 -4 -31 -35q-40 -37 -100.5 -83t-97.5 -68q-144 -81 -224 -56q-15 6 -30.5 21.5t-22.5 32.5q-35 80 70 272l-111 -27h-6q-10 0 -14 11q-4 15 10 18l135 33q3 5 9.5 15t9.5 15q72 120 169.5 217t166.5 119q24 6 30 6q10 0 23 -8
q51 -35 8 -120.5t-152 -180.5l54 12q15 4 18 -10q4 -15 -10 -18l-109 -27q-48 -37 -114 -74q-55 -29 -74 -34q-18 -6 -25 -16t-22 -52q-20 -55 -22.5 -99t12.5 -57q24 -21 78 -8t124 56q21 13 140 100q88 65 90 65zM180 803h2q-10 -15 -22 -35l108 25q82 62 133 120
q41 44 67.5 95t18.5 71q-3 8 -8 8t-20 -6q-51 -22 -136.5 -107t-142.5 -171zM141 735l-4 2q-7 -13 -9 -19t1 -7q10 0 72 41h6z" />
    <glyph glyph-name="Nacute" unicode="&#x143;" horiz-adv-x="1609" 
d="M1264 1556l2 3q-95 -57 -117 -42q-7 4 -4 15q3 14 72.5 56t89.5 42q48 2 23 -26q-17 -19 -66 -48zM1667 1444l16 -6l-2 -56q-5 -137 -86.5 -399.5t-181.5 -460.5q-137 -272 -300 -412t-298 -102q-66 20 -106.5 76.5t-65.5 163.5q-26 112 -26 274.5t26 339.5
q26 172 70 379q15 63 12 66l-10 -14q-9 -16 -64 -116q-31 -56 -51 -92q-111 -201 -292 -555t-212 -430q-7 -20 -13 -26t-17 -6q-19 0 -23 8q-11 25 315 665q62 121 220 408q131 241 155 270q11 13 26.5 12t24.5 -16q14 -23 -28 -231q-44 -221 -61 -360t-17 -289
q0 -158 17 -254.5t55 -159.5q69 -114 208 -60q45 18 116 74t114 111q89 110 178 283.5t150 357.5q44 132 87.5 310t43.5 228q0 14 3.5 17t16.5 2z" />
    <glyph glyph-name="nacute" unicode="&#x144;" horiz-adv-x="624" 
d="M262 760h2q-79 -37 -91 -20q-3 3 -1 10q3 10 57.5 36.5t69.5 24.5q59 -6 -33 -49zM659 645l7 8q3 -10 -33 -39q-45 -39 -118 -86t-126 -69q-109 -49 -147 10q-11 17 -7.5 41t23.5 76q18 47 14 51q-8 6 -66.5 -28.5t-99.5 -69.5t-88 -67t-57 -32q-16 0 -27 11q-11 8 -8 30
q6 34 51 108.5t66 84.5q13 6 23 -4q9 -8 8 -13t-15 -24q-20 -28 -48.5 -75.5t-33.5 -61.5q-6 -16 76 49q196 151 246 112q29 -20 -4 -98q-15 -37 -18 -63t8 -29q28 -7 105 32.5t185 116.5q42 31 60 37t24 -8z" />
    <glyph glyph-name="Ncaron" unicode="&#x147;" horiz-adv-x="1609" 
d="M1303 1563h-5q-74 -60 -102.5 -63t-48.5 46q-41 106 -17 115q14 5 23.5 -8.5t24.5 -57.5l18 -51l39 27q14 8 65 45q25 18 37 14q33 -12 -34 -67zM1661 1442l16 -6l-2 -56q-5 -137 -86.5 -399.5t-181.5 -460.5q-137 -272 -300 -412t-298 -102q-66 20 -106.5 76.5
t-65.5 163.5q-26 112 -26 274.5t26 339.5q26 172 70 379q15 63 12 66l-10 -14q-9 -16 -64 -116q-31 -56 -51 -92q-111 -201 -292 -555t-212 -430q-7 -20 -13.5 -26t-17.5 -6q-18 0 -22 8q-11 25 315 665q75 147 219 408q38 69 93 165t63 105q11 13 26.5 12t24.5 -16
q14 -23 -28 -231q-44 -220 -61 -360t-17 -290q0 -159 16.5 -254.5t54.5 -158.5q69 -114 209 -60q45 18 116 74t114 111q89 110 177 283t150 358q44 132 87.5 310t43.5 228q0 14 4 17t17 2z" />
    <glyph glyph-name="ncaron" unicode="&#x148;" horiz-adv-x="624" 
d="M258 754q-48 -37 -66 -39t-30 30q-24 68 -10 74q9 3 15 -5t15 -36l11 -33l24 17q27 15 41 26q16 12 23 9q20 -9 -23 -43zM657 645l7 8q3 -10 -33 -39q-45 -39 -118 -86t-126 -69q-109 -49 -147 10q-11 17 -7.5 41t23.5 76q18 47 14 51q-8 6 -66.5 -28.5t-99.5 -69.5
t-88 -67t-57 -32q-16 0 -27 11q-11 8 -8 30q6 34 51 108.5t66 84.5q12 6 22 -4q9 -7 8 -12.5t-14 -24.5q-20 -28 -48.5 -75.5t-33.5 -61.5q-6 -16 76 49q196 151 246 112q29 -20 -4 -98q-15 -37 -18 -63t8 -29q28 -7 105 32.5t185 116.5q42 31 60 37t24 -8z" />
    <glyph glyph-name="Omacron" unicode="&#x14c;" horiz-adv-x="1398" 
d="M1212 1358v-2q183 -167 119 -473q-43 -208 -176 -412t-293 -319q-142 -102 -250 -134q-133 -38 -215 -11.5t-151 130.5q-23 35 -31.5 67.5t-11.5 90.5l-2 59l-41 35q-88 75 -108 196t34 255q72 181 276 347t429 226q105 27 190 27q143 0 231 -82zM1294 1012l-4 -8
q9 210 -119 311q-101 80 -221 74q-131 -6 -282 -73.5t-282.5 -177t-207.5 -233.5q-73 -118 -82 -248q-9 -137 80 -239q23 -27 27 -23t18 70q25 118 105.5 278.5t181.5 294.5q81 106 113 103q36 -3 -9 -54q-77 -85 -160 -225t-137 -276q-17 -42 -36 -116.5t-19 -96.5
q0 -9 50 -21t87 -12q39 0 66 12q44 19 49 0q1 -4 0 -8q-4 -14 -35 -27q-62 -27 -172 -2l-49 11v-43q0 -74 31 -131q42 -74 103 -99.5t155 -13.5q145 21 334 182q219 186 342 484q42 104 56 163t17 144zM715 1513q-7 0 -13 5.5t-6 13.5q0 7 5.5 12.5t13.5 5.5h377q8 0 13 -5
t5 -13t-5.5 -13.5t-12.5 -5.5h-377z" />
    <glyph glyph-name="Ohungarumlaut" unicode="&#x150;" horiz-adv-x="1396" 
d="M854 1542q-77 -77 -97 -63q-5 3 -5 12q0 14 53 68.5t72 58.5q46 13 24 -21q-12 -20 -47 -55zM987 1542q-77 -77 -97 -63q-5 3 -5 12q0 14 53 68.5t72 58.5q46 13 24 -21q-12 -20 -47 -55zM1212 1356v-2q183 -167 119 -473q-43 -208 -176 -412t-293 -319
q-142 -102 -250 -134q-133 -38 -215 -11.5t-151 130.5q-23 35 -31.5 67.5t-11.5 90.5l-2 59l-41 35q-88 75 -108 196t34 255q72 181 276 347t429 226q105 27 190 27q143 0 231 -82zM1294 1010l-4 -9q9 211 -119 312q-100 79 -221 73q-131 -6 -282 -73t-282.5 -176.5
t-207.5 -233.5q-73 -118 -82 -248q-9 -137 80 -239q23 -27 27 -23t18 70q25 118 105.5 278.5t181.5 294.5q81 106 113 103q36 -3 -9 -54q-77 -85 -160 -225t-137 -276q-17 -42 -36 -116.5t-19 -96.5q0 -9 50 -21t87 -12q39 0 66 12q44 19 49 0q1 -4 0 -8q-4 -14 -35 -27
q-62 -27 -172 -2l-49 11v-43q0 -74 31 -131q42 -74 103 -99.5t155 -13.5q145 21 334 182q219 186 342 483q42 104 56 163.5t17 144.5z" />
    <glyph glyph-name="ohungarumlaut" unicode="&#x151;" horiz-adv-x="434" 
d="M70 766l2 -2q-52 -52 -68 -43q-4 2 -4 8q0 9 37 47t49 41q31 9 17 -14q-10 -14 -33 -37zM168 764l2 -2q-52 -52 -68 -43q-4 2 -4 8q0 9 37 47t49 41q31 9 17 -14q-10 -14 -33 -37zM494 649l2 -4q4 -5 -1 -13.5t-21 -21t-44 -28.5q-142 -82 -272 -82q-42 0 -47 -11
q-5 -12 -36.5 -37.5t-51.5 -31.5q-50 -16 -86 8q-35 26 -27 76t57 110q30 37 41 41q9 3 29 15q18 12 45 12q28 0 43 -12q24 -23 28 -45.5t-10 -57.5l-10 -28h33q115 0 244 79q42 26 58.5 32.5t25.5 -1.5zM55 487l15 17l-19 10q-38 27 -43 35l-16 22l-17 -28q-33 -56 -18 -84
q7 -13 19.5 -13.5t37.5 11.5q26 11 41 30zM102 578h2q12 58 -18 61h-6q-15 -2 -29 -18t-14 -33q0 -18 22 -35q21 -14 29 -10q6 3 14 35z" />
    <glyph glyph-name="OE" unicode="&#x152;" horiz-adv-x="2170" 
d="M2324 1409l9 2q29 -19 40 -39t11 -57q-2 -65 -62 -162.5t-143 -169.5q-51 -44 -68.5 -54t-29.5 -1q-4 3 -4.5 6t4 9.5t13.5 15t28 24.5q87 75 150 173.5t63 160.5q0 23 -14.5 43t-34.5 26q-43 14 -138 -7t-211 -70q-189 -78 -353 -191.5t-218 -202.5q-29 -47 -25.5 -77.5
t43.5 -61.5t103.5 -48t173.5 -26q101 -7 101 -25l-1 -5q-5 -10 -24 -13t-97 -26q-104 -34 -197 -95.5t-153 -136.5q-38 -47 -51.5 -78.5t-13.5 -72.5q0 -49 23.5 -82.5t74.5 -58.5q23 -11 39.5 -14t60.5 -3q60 0 100.5 9.5t96.5 35.5q69 32 142 86.5t98 91.5q8 11 8 16
t-8 11q-10 9 -5.5 18t19.5 9q17 0 28 -10t11 -25q0 -29 -67.5 -92.5t-143.5 -106.5q-104 -60 -206 -78t-181 9q-44 15 -81 46t-54 68q-17 38 -15 86q2 49 33 99q50 85 144.5 159.5t211.5 120.5q54 22 54 26q-2 2 -9 3q-69 4 -139 26.5t-112 51.5q-22 16 -41 41
q-58 -190 -181 -366t-264 -277q-142 -102 -250 -134q-133 -38 -215 -11.5t-151 130.5q-23 35 -31.5 67.5t-11.5 90.5l-2 59l-41 35q-88 75 -108 196t34 255q72 181 276 347t429 226q105 27 190 27q143 0 231 -82q154 -140 134 -381q77 90 204 178q106 74 264.5 149.5
t270.5 106.5q63 16 139 16q54 0 68 -2t32 -14zM1303 1014l-5 -8q9 211 -118 311q-101 80 -222 74q-131 -6 -282 -73.5t-282.5 -177t-207.5 -233.5q-73 -118 -82 -248q-9 -137 80 -239q23 -27 27 -23t18 70q25 118 105.5 278.5t181.5 294.5q81 106 113 103q36 -3 -8 -53
q-77 -85 -160 -225.5t-137 -276.5q-17 -42 -36.5 -116.5t-19.5 -96.5q0 -9 50.5 -21t87.5 -12q38 0 65 12q44 19 49 0q1 -4 0 -8q-4 -14 -35 -27q-62 -27 -172 -2l-49 11v-43q0 -74 31 -131q42 -74 103 -99.5t155 -13.5q145 21 334 182q219 186 342 484q42 105 56.5 164
t17.5 143z" />
    <glyph glyph-name="oe" unicode="&#x153;" horiz-adv-x="536" 
d="M512 616l8 -4q79 61 80 33v-4q0 -14 -68 -68q-114 -89 -196 -124.5t-150 -24.5q-68 13 -88 49q-42 -42 -78 -53q-50 -16 -86 8q-35 26 -27 76t58 110q30 37 41 41q9 3 29 15q18 12 45 12q28 0 43 -12q19 -18 24 -35q48 41 93 41q12 0 24 -6q27 -12 24.5 -37t-32.5 -51
q-27 -23 -72 -27h-20.5h-13.5t-8 -0.5t-5 -2t-4 -5.5q-8 -15 -4 -37q3 -49 80 -49q105 0 303 155zM190 612l3 6q-19 -17 -11 -22q9 -4 14 -3.5t25 9.5q15 7 25 20.5t4 18.5h-4q-20 0 -56 -29zM57 498l15 16l-19 10q-38 27 -43 35l-16 23l-17 -29q-33 -56 -18 -84
q7 -13 19.5 -13.5t37.5 11.5q25 11 41 31zM104 588h7q12 58 -19 61h-6q-15 -2 -29 -18t-14 -33q0 -18 23 -35q18 -12 28 -12q2 8 10 24v13z" />
    <glyph glyph-name="Racute" unicode="&#x154;" horiz-adv-x="1667" 
d="M1272 1550l2 2q-114 -45 -142 -26q-7 5 -4 16q5 14 89 47.5t108 30.5q75 -7 2 -46zM684 481l-6 2q-107 -17 -98 -22q159 -29 251.5 -53t264.5 -80q174 -57 227.5 -82t44.5 -45q-4 -9 -19 -9t-24 9q-20 20 -274 100q-367 117 -533 123l-37 2l-24 -47q-77 -151 -119 -273
q-12 -35 -12.5 -44t8.5 -13q30 -17 -6 -39t-54 -4q-10 10 0 51q8 34 49.5 138.5t75.5 173.5q29 63 27 65q-4 4 -111 4q-106 0 -114 11q-12 15 11 20t116 8q118 6 127 12q7 7 53 86q90 166 311 502q2 3 82 133q56 91 66 101q12 12 24.5 8t12.5 -19q0 -21 -269 -442
q-74 -116 -143.5 -235.5t-65.5 -122.5q9 -8 206 30t284 64q201 58 372.5 148t284.5 194q73 69 103.5 121.5t25.5 103.5q-8 96 -119.5 155t-299 69t-437.5 -27q-234 -37 -430.5 -120t-312.5 -194q-40 -39 -74.5 -88t-34.5 -69q0 -17 -11 -25t-22 0q-32 22 13.5 97.5
t136.5 148.5q137 113 351 192.5t458 108.5q300 37 504.5 -0.5t287.5 -144.5q19 -24 31 -58t12 -59q0 -87 -95 -192t-258.5 -203t-358.5 -164q-183 -62 -459 -107z" />
    <glyph glyph-name="racute" unicode="&#x155;" horiz-adv-x="403" 
d="M213 770q-83 -30 -93 -10q-2 4 1 10q5 9 61.5 29.5t71.5 17.5q59 -9 -41 -47zM365 649l2 -4q65 23 65 -2q0 -9 -26 -22q-49 -22 -107 -25q-73 -5 -115 37q-18 18 -24 18q-7 0 -56 -46.5t-102 -104.5q-63 -70 -74 -70q-10 0 -18 8q-20 20 63 154q33 55 48.5 68.5t29.5 1.5
q8 -6 7 -11t-11 -24q-10 -16 -8 -16q4 -1 55 40q31 24 46 34.5t28 13t20 -3.5t17 -23q13 -21 27.5 -29t48.5 -8q41 0 84 14z" />
    <glyph glyph-name="Rcaron" unicode="&#x158;" horiz-adv-x="1667" 
d="M1323 1589h-2q-43 -70 -65.5 -81t-53.5 24q-66 75 -49 88q10 8 21.5 0.5t37.5 -39.5l31 -37l25 33q30 39 41 55q15 23 24 23q31 0 -10 -66zM678 479l-6 2q-108 -17 -99 -22q159 -29 252.5 -53t264.5 -80q174 -57 227.5 -82t44.5 -45q-4 -9 -19 -9t-24 9q-20 20 -275 100
q-367 117 -532 123l-37 2l-24 -47q-77 -151 -119 -273q-12 -35 -12.5 -44t8.5 -13q30 -17 -6 -39t-54 -4q-10 10 0 51q8 34 49.5 138.5t75.5 173.5q29 63 27 65q-4 4 -111 4t-114 10q-12 15 13 21q24 5 114 8q118 6 127 12q7 7 53 86q90 166 311 502q2 3 82 133
q56 91 66 101q12 12 24 8t12 -19q0 -23 -268 -442q-74 -116 -143.5 -235.5t-65.5 -122.5q9 -8 206 30t284 64q201 58 372.5 148t284.5 194q73 69 103.5 121.5t25.5 103.5q-8 96 -119.5 155t-299 69t-437.5 -27q-234 -37 -430.5 -120t-312.5 -194q-40 -39 -74.5 -88
t-34.5 -69q0 -17 -11 -25t-22 0q-32 22 13.5 97.5t136.5 148.5q137 113 351 192.5t458 108.5q300 37 504.5 -0.5t287.5 -144.5q19 -24 31 -58t12 -59q0 -87 -95 -192t-258.5 -203t-358.5 -164q-183 -62 -459 -107z" />
    <glyph glyph-name="rcaron" unicode="&#x159;" horiz-adv-x="403" 
d="M225 735l2 -2q-11 -3 -20 6t-24.5 53t-12.5 52q6 15 20 0q8 -10 13 -25q9 -30 14 -41l6 -16l31 22q47 35 53 11q1 -4 -15.5 -18t-37 -27t-29.5 -15zM367 645l2 -4q65 23 65 -2q0 -10 -26 -23q-47 -21 -107 -24q-73 -5 -115 37q-18 18 -24 18q-7 0 -56 -46.5t-102 -104.5
q-63 -70 -74 -70q-10 0 -18 8q-20 20 63 154q33 55 48.5 68t29.5 1q8 -6 7 -10.5t-11 -23.5q-10 -16 -8 -16q4 -1 55 40q31 24 46 34.5t28 13t20 -3.5t17 -23q13 -21 27.5 -29t48.5 -8q41 0 84 14z" />
    <glyph glyph-name="Sacute" unicode="&#x15a;" horiz-adv-x="972" 
d="M1051 1540q-98 -52 -122 -36q-7 5 -3 16q5 14 77.5 53t94.5 39q80 -3 -33 -65q-7 -3 -14 -7zM1012 1448l2 2q106 12 159 -25t44 -118q-3 -30 -19 -74q-55 -154 -229 -346q-61 -69 -110.5 -112t-61.5 -38q-32 10 18 54q66 60 145.5 156t124.5 171q49 81 68 142
q9 31 12.5 51.5t0 42.5t-18.5 37q-34 34 -139 20q-145 -17 -322.5 -101t-335.5 -210q-189 -151 -219 -260.5t90 -212.5q45 -39 103 -69t204 -89q157 -62 199 -88q108 -69 56 -162t-244 -172q-108 -44 -229 -67.5t-175 -10.5q-57 13 -78.5 58t4.5 92q32 54 132 121
q123 84 174 84q25 0 42 -11t17 -26q0 -9 -13.5 -10.5t-19.5 6.5q-12 17 -78.5 -15.5t-138.5 -91.5q-130 -107 -57 -162q12 -9 24 -11.5t45 -2.5q55 0 97 10q198 43 330.5 120t134.5 149q0 29 -23 50.5t-85 49.5t-206 84q-135 53 -213 105.5t-119 119.5q-19 31 -22.5 46
t-3.5 63q0 46 4 61t27 53q72 121 247 248q341 253 656 289z" />
    <glyph glyph-name="sacute" unicode="&#x15b;" horiz-adv-x="352" 
d="M47 741v-2q-62 -28 -67 -12q-1 2 0 6q3 8 44.5 26t51.5 17q41 -3 -10 -27q-9 -4 -19 -8zM328 641l-2 -2q14 6 25 9.5t19 5.5t13.5 2t9 -1.5t5 -5t1.5 -8.5q0 -15 -55 -35q-14 -5 -72.5 -26.5t-93.5 -34.5l-117 -47l-4 -33q-5 -34 -25.5 -61t-51.5 -39q-66 -25 -99 -5
q-13 8 -13 29.5t13 36.5q10 12 44 36t59 38l16 8l-12 53q-9 35 -9.5 48t7.5 30q19 43 51 43q8 0 12 -2q15 -6 15.5 -15t-13.5 -16q-33 -17 -18 -76q8 -29 12.5 -35t15.5 1q2 2 115 47q33 13 88 32t64 23zM-39 406l-2 2q31 20 41 47q6 14 -4 14q-6 0 -44 -28.5t-44 -37.5
q-4 -7 -2 -9.5t14 -2.5q18 0 41 15z" />
    <glyph glyph-name="Scedilla" unicode="&#x15e;" horiz-adv-x="972" 
d="M1012 1448l4 2q106 12 159 -25t44 -118q-3 -30 -19 -74q-55 -154 -229 -346q-61 -69 -110.5 -112t-61.5 -38q-32 10 18 54q66 60 145.5 156t124.5 171q49 81 68 142q9 31 12.5 51.5t0 42.5t-18.5 37q-34 34 -139 20q-145 -17 -322.5 -101t-335.5 -210
q-189 -151 -219 -260.5t90 -212.5q45 -39 103 -69t204 -89q157 -62 199 -88q108 -69 56 -162t-244 -172q-57 -23 -78 -29q-3 -9 -19 -22q-14 -12 -13 -16t20 -11q20 -9 34 -30.5t9 -36.5q-4 -17 -25 -33t-43 -19q-26 -3 -38.5 0.5t-27.5 18.5q-17 17 -3 23q12 4 32 -5
t40.5 -0.5t21.5 27.5q2 11 -5.5 16.5t-33.5 12.5q-40 13 -43 22q0 6 18 31q-177 -46 -252 -27q-57 13 -78.5 58t4.5 92q32 54 132 121q123 84 174 84q25 0 42 -11t17 -26q0 -9 -13.5 -10.5t-19.5 6.5q-12 17 -78.5 -15.5t-138.5 -91.5q-130 -107 -57 -162q12 -9 24 -11.5
t45 -2.5q55 0 97 10q198 43 330.5 120t134.5 149q0 29 -23 50.5t-85 49.5t-206 84q-135 53 -213 105.5t-119 119.5q-19 31 -22.5 46t-3.5 63q0 46 4 61t27 53q72 121 247 248q341 253 656 289z" />
    <glyph glyph-name="scedilla" unicode="&#x15f;" horiz-adv-x="352" 
d="M326 643l2 4q14 6 25 9.5t19 5.5t13.5 2t9 -1.5t5 -5t1.5 -8.5q0 -15 -55 -35q-14 -5 -72.5 -26.5t-93.5 -34.5l-117 -47l-4 -33q-10 -63 -61 -94q-2 -4 -12 -14q-8 -9 -7 -12t13 -7q12 -5 22 -17.5t9 -21.5q-1 -10 -13 -21t-24 -14q-22 -4 -41 9q-14 12 -2 15q7 2 18 -1
q12 -4 23.5 1.5t11.5 16.5q0 6 -5 9t-22 6q-23 7 -26 12q0 5 10 18q-51 -11 -74 4q-13 8 -13 29.5t13 36.5q10 12 44 36t59 38l16 8l-12 53q-9 35 -9.5 48t7.5 30q19 43 51 43q8 0 12 -2q15 -6 15.5 -15t-13.5 -16q-33 -17 -18 -76q8 -29 12.5 -35t15.5 1q2 2 115 47
q33 13 88 32t64 23zM-37 414l-2 2q31 20 41 47q6 14 -4 14q-6 0 -44 -28t-44 -37q-5 -8 -2.5 -10.5t14.5 -2.5q18 0 41 15z" />
    <glyph glyph-name="Scaron" unicode="&#x160;" horiz-adv-x="972" 
d="M1016 1546l-4 2q-61 -54 -85.5 -57.5t-43.5 37.5q-41 90 -21 100q12 5 21 -6t24 -49l19 -43l32 24q10 6 30.5 20.5t25.5 18.5q24 16 30 13q32 -10 -28 -60zM1008 1450l2 2q106 12 158.5 -25t43.5 -118q-3 -33 -18 -74q-55 -154 -229 -346q-61 -69 -110.5 -112t-61.5 -38
q-32 10 18 54q66 60 145.5 156t124.5 171q49 81 68 142q9 31 12.5 51.5t0 42.5t-18.5 37q-34 34 -139 20q-145 -17 -322.5 -101t-335.5 -210q-189 -151 -219 -260.5t90 -212.5q45 -39 103 -69t204 -89q157 -62 199 -88q108 -69 56 -162t-244 -172q-108 -44 -229 -67.5
t-175 -10.5q-57 13 -78.5 58t4.5 92q32 55 131 121q123 84 174 84q25 0 42.5 -11t17.5 -26q0 -9 -13.5 -10.5t-19.5 6.5q-12 17 -78.5 -15.5t-138.5 -91.5q-130 -107 -57 -162q12 -9 24 -11.5t45 -2.5q55 0 97 10q197 43 329.5 120t134.5 149q0 29 -23 50t-84.5 49.5
t-205.5 84.5q-135 53 -213 105.5t-119 119.5q-19 31 -22.5 46t-3.5 63q0 47 3.5 62t26.5 52q71 120 248 248q341 253 656 289z" />
    <glyph glyph-name="scaron" unicode="&#x161;" horiz-adv-x="352" 
d="M76 776l4 -2q-26 -42 -39.5 -48.5t-32.5 13.5q-38 44 -28 54q6 5 12.5 0.5t21.5 -23.5l19 -20l14 18q17 22 23 33q7 14 12 14q17 0 -6 -39zM330 641l-2 -2q14 6 25 9.5t19 5.5t13.5 2t9 -1.5t5 -5t1.5 -8.5q0 -15 -55 -35q-14 -5 -72.5 -26.5t-93.5 -34.5l-117 -47
l-4 -33q-5 -34 -25.5 -61t-51.5 -39q-66 -25 -99 -5q-13 8 -13 29.5t13 36.5q10 12 44 36t59 38l16 8l-12 53q-9 35 -9.5 48t7.5 30q19 43 51 43q8 0 12 -2q15 -6 15.5 -15t-13.5 -16q-33 -17 -18 -76q8 -29 12.5 -35t15.5 1q2 2 115 47q33 13 88 32t64 23zM-37 406l-2 2
q31 20 41 47q6 14 -4 14q-6 0 -44 -28.5t-44 -37.5q-4 -7 -2 -9.5t14 -2.5q18 0 41 15z" />
    <glyph glyph-name="Umacron" unicode="&#x16a;" horiz-adv-x="1157" 
d="M932 1462l-2 2q-140 5 -157 36q-4 10 5 20q13 12 119 9t129 -16q76 -46 -36 -51q-25 -1 -58 0zM1278 1430l12 4q10 3 21.5 -3.5t11.5 -15.5q0 -6 -37 -67q-67 -110 -160 -295.5t-147 -317.5q-110 -270 -127 -450q-6 -60 -3.5 -76.5t19.5 -22.5q33 -11 6 -32
q-15 -12 -34 -12t-29 12q-19 23 -8.5 133t39.5 215q34 127 86 248q5 12 7 18t5 13.5t4 10.5t0 3t-53 -74q-106 -158 -222.5 -302.5t-217.5 -242.5q-85 -82 -170 -125t-138 -31q-116 26 -86 304q46 416 389 997q42 71 61 90t36 8q9 -4 5.5 -15t-28.5 -54q-254 -435 -352 -760
q-61 -201 -64 -367q-1 -121 24.5 -151.5t102.5 0.5q41 18 124 85.5t141 133.5q139 155 270.5 343.5t347.5 543.5q154 249 164 252z" />
    <glyph glyph-name="umacron" unicode="&#x16b;" horiz-adv-x="550" 
d="M139 721v-2q-65 2 -66 15q0 6 11 16q9 9 68.5 8t68.5 -10q15 -15 -22 -23q-25 -5 -60 -4zM580 645l-2 -2q6 -11 -8 -25.5t-72 -52.5q-84 -58 -155.5 -91t-109.5 -32q-41 1 -56.5 24.5t-12.5 55.5l4 41l-55 -45q-67 -54 -106 -64.5t-62 17.5q-27 35 37 145q26 43 40 53.5
t29 -1.5q8 -6 5.5 -15t-21.5 -39q-32 -57 -37 -69q-6 -14 -8.5 -28.5t-1.5 -24t6 -9.5q16 0 151 109q56 45 75.5 53.5t27.5 -8.5q4 -7 -19 -66q-22 -57 -22 -71q0 -53 130 14q68 35 161 98q12 9 45 31q28 20 37 2z" />
    <glyph glyph-name="Uring" unicode="&#x16e;" horiz-adv-x="1157" 
d="M836 1452v-4q-27 12 -37.5 29t-10.5 47q0 35 25 57q23 23 31 23q5 0 33 4h6q26 0 52 -19.5t32 -44.5q12 -51 -34 -83t-97 -9zM874 1571l3 -2q-16 -2 -26.5 -17t-10.5 -39q0 -29 23 -38.5t46 10.5q15 12 14 36.5t-18 37.5q-15 12 -31 12zM1282 1421l12 4q11 3 22 -3
t11 -15q0 -7 -37 -68q-68 -110 -160.5 -295t-146.5 -317q-110 -269 -127 -451q-6 -60 -3.5 -76t19.5 -22q34 -12 7 -33q-15 -12 -34 -12t-30 12q-19 23 -8.5 133.5t39.5 215.5q33 124 86 247q5 12 7 18t5 13.5t4 10.5t0 3t-53 -73q-106 -158 -222.5 -302.5t-217.5 -242.5
q-85 -82 -170 -125t-138 -31q-60 13 -80.5 87t-5.5 216q46 415 390 998q43 72 61 90.5t35 7.5q9 -4 5.5 -16t-28.5 -54q-254 -436 -352 -759q-60 -197 -63 -367q-1 -121 24.5 -152t102.5 0q41 18 123 86t141 134q139 155 271 344t347 542q154 249 164 252z" />
    <glyph glyph-name="uring" unicode="&#x16f;" horiz-adv-x="550" 
d="M119 709l2 -2q-31 13 -31 51q0 26 16 39q14 14 21 14q3 0 23 4h6q17 0 33.5 -13t19.5 -30q7 -35 -24 -56.5t-66 -6.5zM147 791v-3q-26 -4 -26 -38q0 -20 16 -26.5t31 7.5q10 9 9.5 25.5t-11.5 25.5q-9 9 -19 9zM582 643l-2 -2q6 -11 -8 -25.5t-72 -52.5
q-184 -126 -264 -123q-41 1 -57 24.5t-13 55.5l4 41l-55 -45q-67 -54 -106 -64.5t-62 17.5q-27 35 37 145q26 43 40 53.5t29 -1.5q8 -6 5.5 -15t-21.5 -39q-32 -57 -37 -69q-6 -14 -8.5 -28.5t-1.5 -24t6 -9.5q16 0 151 109q56 45 75.5 53.5t27.5 -8.5q4 -7 -19 -66
q-22 -57 -22 -71q0 -53 130 14q68 35 161 98q12 9 45 31q28 20 37 2z" />
    <glyph glyph-name="Uhungarumlaut" unicode="&#x170;" horiz-adv-x="1157" 
d="M848 1554l-2 -4q-68 -68 -84 -53q-4 3 -4 10q0 12 46.5 60t61.5 53q40 11 23 -17q-10 -18 -41 -49zM952 1550l-2 -4q-68 -68 -84 -53q-4 3 -4 10q0 12 47 60t62 53q41 11 22 -19q-11 -17 -41 -47zM1276 1419l12 4q11 3 22 -3t11 -15q0 -7 -37 -68q-68 -110 -160.5 -295
t-146.5 -317q-110 -269 -127 -451q-6 -60 -3.5 -76t19.5 -22q33 -12 6 -33q-15 -12 -34 -12t-29 12q-19 23 -8.5 133.5t39.5 215.5q33 124 86 247q5 12 7 18t5 13.5t4 10.5t0 3t-53 -73q-106 -158 -222.5 -302.5t-217.5 -242.5q-85 -82 -170 -125t-138 -31q-60 13 -80.5 87
t-5.5 216q46 418 389 998q42 71 61 90t36 8q9 -4 5.5 -16t-28.5 -54q-254 -436 -352 -759q-61 -201 -64 -367q-1 -121 24.5 -152t102.5 0q41 18 123.5 86t141.5 134q139 155 271 344t347 542q154 249 164 252z" />
    <glyph glyph-name="uhungarumlaut" unicode="&#x171;" horiz-adv-x="550" 
d="M133 764q-53 -36 -60 -21q-1 2 -1 5q1 9 37 34t45 23q24 -4 3 -23q-8 -7 -24 -18zM143 735q1 9 37 34.5t45 23.5q25 -4 2 -24l-22 -17q-54 -36 -61 -22q-1 2 -1 5zM580 649l-2 -2q6 -11 -8 -25.5t-72 -52.5q-84 -58 -155.5 -91t-109.5 -32q-41 1 -56.5 24.5t-12.5 55.5
l4 41l-55 -45q-67 -54 -106 -64.5t-62 17.5q-28 35 37 146q26 43 40 53t29 -2q8 -6 5.5 -15t-21.5 -39q-32 -57 -37 -69q-6 -14 -8.5 -28.5t-1.5 -24t6 -9.5q16 0 151 109q56 45 75.5 53.5t27.5 -8.5q4 -7 -19 -66q-22 -57 -22 -71q0 -53 130 14q68 35 161 98q12 9 45 31
q28 20 37 2z" />
    <glyph glyph-name="Uogonek" unicode="&#x172;" horiz-adv-x="1157" 
d="M1280 1427l4 5q10 3 21.5 -3.5t11.5 -15.5q0 -6 -37 -67q-67 -110 -160 -295.5t-147 -317.5q-110 -270 -127 -450q-6 -60 -3.5 -76.5t19.5 -22.5q33 -11 6 -32q-15 -12 -33.5 -12t-29.5 12q-19 23 -8.5 133t39.5 215q34 127 86 248q5 12 7 18t5 13.5t4 10.5t0 3t-53 -74
q-223 -333 -441 -545q-66 -64 -134 -105.5t-122 -50.5q-4 -2 -16 -6q-26 -9 -32.5 -14t-4.5 -16q3 -19 23.5 -26t40.5 3q29 15 37 3q5 -8 -7 -21q-14 -15 -25.5 -19.5t-37.5 -3.5q-22 2 -43 16t-25 31q-4 12 5 30t24 30q-97 43 -68 297q46 414 390 997q43 72 61 90.5t35 7.5
q9 -5 5.5 -15.5t-28.5 -53.5q-254 -435 -352 -760q-61 -201 -64 -367q-1 -121 24.5 -151.5t102.5 0.5q41 18 124 85.5t141 133.5q139 155 270.5 343.5t347.5 543.5q153 247 164 251z" />
    <glyph glyph-name="uogonek" unicode="&#x173;" horiz-adv-x="550" 
d="M580 647l-5 -6q6 -11 -8 -25.5t-71 -52.5q-84 -58 -155.5 -91t-109.5 -32h-12q-2 -2 -18 -14q-20 -12 -25 -18t-2 -15q6 -15 25 -17.5t34 9.5q23 18 31 8q5 -5 -2 -18q-9 -15 -18.5 -20.5t-32.5 -8.5q-19 -2 -40 8t-28 23q-6 12 2 33.5t23 33.5t12 17l4 2q-24 18 -20 61
l4 41l-55 -45q-67 -54 -106 -64.5t-62 17.5q-27 35 37 145q26 43 40 53.5t29 -1.5q8 -6 5.5 -15t-21.5 -39q-32 -57 -37 -69q-6 -14 -8.5 -28.5t-1.5 -24t6 -9.5q16 0 151 109q56 45 75.5 53.5t27.5 -8.5q4 -7 -19 -66q-22 -57 -22 -71q0 -53 130 14q68 35 161 98
q12 9 45 31q28 20 37 2z" />
    <glyph glyph-name="Ydieresis" unicode="&#x178;" horiz-adv-x="1007" 
d="M803 1493h-2q-8 8 -8 33q0 26 28 26q26 0 35 -17t-8 -34q-25 -25 -45 -8zM977 1520v2q0 -25 -23 -33t-32 14q-9 20 1.5 36t30.5 13q23 -3 23 -32zM1348 1458l2 -6q4 -7 -8 -26t-60 -76q-138 -168 -311.5 -421t-276.5 -435q-79 -139 -137.5 -269t-52.5 -153t-16 -35.5
t-39 4.5q-9 8 -1.5 38.5t37.5 102.5q96 234 248 480q145 234 236 358q9 13 6 12q-2 0 -23 -20q-412 -384 -659 -437q-66 -13 -129 3q-195 47 -72 340q54 128 164.5 279.5t198.5 217.5q25 19 34.5 23t18.5 0q14 -7 14 -15q0 -10 -51 -57q-99 -94 -190 -227t-141 -255
t-38 -186q15 -86 125 -86q119 0 310 123q60 40 167 126t173 147q77 71 198.5 195.5t163.5 176.5q29 36 46 54.5t30 28t20 8t13 -12.5z" />
    <glyph glyph-name="Zacute" unicode="&#x179;" horiz-adv-x="1769" 
d="M1395 1577l2 -2q-93 -65 -110 -45q-4 4 -3 12q2 14 63 60t80 47q46 5 25 -22q-14 -18 -57 -50zM1942 1401l6 6q9 -12 8.5 -18.5t-12.5 -26.5q-30 -45 -272.5 -230t-536.5 -387l-91 -61h101q40 1 66 0.5t41 -3t20.5 -6.5t3.5 -11q-3 -11 -86 -13q-78 0 -148 -4l-63 -4
l-125 -82q-209 -137 -391 -254q-47 -30 -91 -58.5t-91.5 -59.5t-76.5 -50t-28 -20q45 6 100 16q220 36 646 70q123 8 358 8q217 0 296.5 -8t96.5 -31q8 -11 -1 -21.5t-27 -11.5q-20 -3 -23 11q-4 12 -23 16q-20 4 -313 4q-195 0 -274 -2.5t-215 -13.5q-305 -26 -541 -66
q-129 -21 -161.5 -25t-33.5 1q-9 7 -2 21t27 26q65 40 211 137q24 16 385 250q46 30 79 51.5t62 41t44 29.5t14 11q-3 3 -58 -4q-93 -10 -119 -11t-32 7q-15 14 11 20q28 7 122 14q122 11 139 15q22 8 246 165t393 283q112 83 217 167.5t105 92.5q0 17 -213 17
q-138 0 -244.5 -9t-286.5 -36q-326 -48 -530 -129q-28 -11 -43 -16t-24.5 -5.5t-12 2.5t-2.5 11q0 32 248 100q170 46 387 76q188 26 296.5 34.5t245.5 6.5q162 -3 185 -11q21 -8 31 -22z" />
    <glyph glyph-name="zacute" unicode="&#x17a;" horiz-adv-x="542" 
d="M201 766q-79 -37 -91 -20q-3 3 -1 10q3 10 57.5 36.5t69.5 24.5q62 -3 -35 -51zM580 649l-2 -4q2 -3 -8.5 -12t-28.5 -21q-16 -11 -29.5 -19t-41 -22.5t-44.5 -23.5q-116 -62 -205.5 -87.5t-189.5 -25.5q-70 0 -80 10q-8 6 -10.5 10.5t2.5 11t16.5 14t34.5 20.5
q38 21 108.5 68.5t87.5 64.5l15 14l-15 -4q-24 -6 -73 -12q-41 -6 -53.5 -6t-24.5 6q-15 7 -17.5 21.5t9.5 23.5q12 7 28 -4q12 -11 34.5 -9t137.5 25q60 12 60 -18q0 -11 -68 -64t-127 -88q-67 -42 -67 -45q2 -3 19.5 -2.5t47.5 4.5t60 10q172 34 354 152q29 20 48.5 23
t21.5 -11z" />
    <glyph glyph-name="Zdot" unicode="&#x17b;" horiz-adv-x="1769" 
d="M1354 1497l-2 -2q-11 7 -11 39q0 17 7 24t24 7q31 0 42 -20t-9 -40q-28 -28 -51 -8zM1937 1403l7 6q9 -12 8 -18t-13 -27q-29 -45 -271 -229t-538 -387l-90 -62h101q40 1 66 0.5t41 -3t20.5 -6.5t3.5 -11q-3 -11 -86 -13q-78 0 -148 -4l-63 -4l-125 -82
q-209 -137 -391 -254q-47 -30 -91 -58.5t-91.5 -59.5t-76.5 -50t-28 -20q45 6 100 16q220 36 646 70q123 8 358 8q217 0 296.5 -8t96.5 -31q8 -11 -1 -21.5t-28 -11.5q-19 -3 -22 11q-4 12 -23 16q-20 4 -313 4q-195 0 -274 -2.5t-215 -13.5q-305 -26 -541 -66
q-129 -21 -161.5 -25t-33.5 1q-9 7 -2 21t27 26q65 40 211 137q24 16 385 250q46 30 79 51.5t62 41t44 29.5t14 11q-3 3 -58 -4q-93 -10 -119 -11t-32 7q-16 14 13 21t120 14q128 11 139 14q22 8 246 165t393 283q112 83 217 167.5t105 92.5q0 17 -213 17q-138 0 -244.5 -9
t-286.5 -36q-326 -48 -530 -129q-28 -11 -43 -16t-24.5 -5.5t-12 2.5t-2.5 11q0 32 248 100q170 46 387 76q188 26 296.5 34.5t245.5 6.5q162 -3 185 -11q19 -8 30 -22z" />
    <glyph glyph-name="zdot" unicode="&#x17c;" horiz-adv-x="538" 
d="M201 780v-2q0 -22 -21 -28t-30 14q-9 19 0 33.5t28 11.5q23 -3 23 -29zM578 647l-3 -4q2 -3 -8 -12t-28 -21q-16 -11 -29.5 -19t-41 -22.5t-44.5 -23.5q-116 -62 -205.5 -87.5t-189.5 -25.5q-70 0 -80 10q-8 6 -10.5 10.5t2.5 11t16.5 14t34.5 20.5q38 21 108.5 68.5
t87.5 64.5l15 14l-15 -4q-24 -6 -73 -12q-41 -6 -53.5 -6t-24.5 6q-15 7 -17.5 21.5t9.5 23.5q12 7 28 -4q12 -11 34.5 -9t137.5 25q60 12 60 -18q0 -11 -68 -64t-127 -88q-67 -42 -67 -45q2 -3 19.5 -2.5t47.5 4.5t60 10q172 34 354 152q29 20 48.5 23t21.5 -11z" />
    <glyph glyph-name="zcaron" unicode="&#x17e;" horiz-adv-x="540" 
d="M233 762l7 2q-31 -20 -46.5 -26t-24.5 0t-15 26q-18 62 -7 65q8 2 12.5 -5.5t10.5 -32.5l8 -29l23 12q7 3 20.5 11t16.5 10q15 7 18 4q19 -9 -23 -37zM586 651l-2 -4q2 -3 -8.5 -12t-28.5 -21q-16 -11 -29.5 -19t-41 -22.5t-44.5 -23.5q-116 -62 -205.5 -87.5
t-189.5 -25.5q-70 0 -80 10q-8 6 -10.5 10.5t2.5 11t16.5 14t34.5 20.5q39 21 109.5 68.5t87.5 64.5l14 14l-14 -4q-24 -6 -74 -12q-41 -6 -53.5 -6t-24.5 6q-15 7 -17.5 21.5t9.5 23.5q13 8 29 -4q12 -11 34.5 -9t137.5 25q59 12 59 -18q0 -11 -68 -64t-127 -88
q-67 -42 -67 -45q2 -3 19.5 -2.5t47.5 4.5t60 10q172 34 354 152q29 20 48.5 23t21.5 -11z" />
    <glyph glyph-name="circumflex" unicode="&#x2c6;" horiz-adv-x="268" 
d="M137 1118q13 -6 47.5 -47.5t34.5 -50.5q0 -18 -19 -9q-14 6 -26 23q-20 28 -33 41l-14 15l-25 -37q-35 -53 -53 -31q-4 4 24 44.5t42 49.5q10 8 22 2z" />
    <glyph glyph-name="caron" unicode="&#x2c7;" horiz-adv-x="258" 
d="M199 1135h2q27 0 -8 -56q-35 -58 -55 -67t-46 20q-53 63 -39 74q9 7 18 1.5t31 -32.5l25 -31l20 27q20 23 33 45q11 19 19 19z" />
    <glyph glyph-name="breve" unicode="&#x2d8;" horiz-adv-x="258" 
d="M156 987h-4q11 8 14 25h43q-5 -38 -43.5 -58t-77.5 -2q-21 9 -30 22.5t-11 37.5h43q2 -25 23 -33.5t43 8.5z" />
    <glyph glyph-name="dotaccent" unicode="&#x2d9;" horiz-adv-x="137" 
d="M66 1049q17 0 23 -11.5t-5 -21.5q-18 -18 -29 -6q-6 3 -6 22q0 17 17 17z" />
    <glyph glyph-name="ogonek" unicode="&#x2db;" horiz-adv-x="231" 
d="M129 506l57 -21q3 -16 0 -22q-3 -14 -47 -17q-27 -1 -35 -5.5t-10 -18.5q-3 -25 13 -42.5t38 -12.5q26 6 34.5 -8t-11.5 -29q-19 -14 -32 -14t-38 14q-20 10 -35.5 37t-15.5 51q0 22 18.5 44t40.5 27q14 3 19 6.5t4 10.5z" />
    <glyph glyph-name="endash" unicode="&#x2013;" horiz-adv-x="503" 
d="M258 655h4q176 6 193 -2q9 -5 4 -16q-5 -9 -52.5 -13.5t-185.5 -7.5q-154 -3 -164 5q-23 20 6 26q18 4 195 8z" />
    <glyph glyph-name="emdash" unicode="&#x2014;" horiz-adv-x="708" 
d="M662 657v2q1 -7 -2.5 -10.5t-14.5 -5.5q-14 -3 -236.5 -9.5t-291.5 -6.5q-51 0 -62 8q-12 8 -8 16q7 14 467 17q105 1 125.5 -0.5t22.5 -10.5z" />
    <glyph glyph-name="quoteleft" unicode="&#x2018;" horiz-adv-x="202" 
d="M68 1126h-5q-14 0 -19 7.5t-2 23.5t15 43q23 54 49.5 78.5t43.5 9.5q7 -7 -19 -51q-30 -47 -37 -78q-6 -21 -10.5 -27t-15.5 -6z" />
    <glyph glyph-name="quoteright" unicode="&#x2019;" horiz-adv-x="208" 
d="M133 1143q19 0 26 -16.5t-1 -41.5q-9 -30 -35 -78.5t-37 -56.5q-12 -10 -27 -2q-9 6 -8 12t15 31q23 39 39 76.5t14 48.5q-2 17 1 22t13 5z" />
    <glyph glyph-name="quotesinglbase" unicode="&#x201a;" horiz-adv-x="174" 
d="M109 524h4q20 -11 19 -35.5t-23 -46.5q-17 -17 -33.5 -20.5t-22.5 8.5q-4 8 15 27q26 29 13 34q-1 1 -3 1q-6 0 -9.5 9t-0.5 17q6 12 22 12q10 0 19 -6z" />
    <glyph glyph-name="quotedblleft" unicode="&#x201c;" horiz-adv-x="309" 
d="M152 1290h-5q8 -8 -18 -51q-30 -47 -37 -78q-6 -21 -10.5 -27t-15.5 -6q-39 0 -7 74q23 54 49.5 78.5t43.5 9.5zM256 1284l2 -2q4 -8 -18 -37q-52 -66 -52 -104q0 -27 -20 -27q-4 0 -12 4q-20 12 -3 64t54 90q13 15 29 19t20 -7z" />
    <glyph glyph-name="quotedblright" unicode="&#x201d;" horiz-adv-x="309" 
d="M240 1280l4 2q39 0 6 -76q-23 -56 -49 -81.5t-43 -10.5q-9 9 18 55q30 47 37 78q6 21 11 27t16 6zM156 1292h-2q20 -12 2.5 -64.5t-54.5 -92.5q-14 -15 -29 -19t-20 6q-4 8 19 39q51 69 51 109q0 26 20 26q5 0 13 -4z" />
    <glyph glyph-name="quotedblbase" unicode="&#x201e;" horiz-adv-x="253" 
d="M109 524h4q20 -11 19 -35.5t-23 -46.5q-17 -17 -33.5 -20.5t-22.5 8.5q-4 8 15 27q26 29 13 34q-1 1 -3 1q-6 0 -9.5 9t-0.5 17q6 12 22 12q10 0 19 -6zM193 524h4q20 -11 19 -35.5t-23 -46.5q-17 -17 -33.5 -20.5t-22.5 8.5q-4 8 15 27q26 29 13 34q-1 1 -3 1
q-6 0 -9.5 9t-0.5 17q6 12 22 12q10 0 19 -6z" />
    <glyph glyph-name="dagger" unicode="&#x2020;" horiz-adv-x="690" 
d="M631 836v6q7 -7 9.5 -11t0.5 -6.5t-8 -5.5q-14 -8 -29 -2q-13 5 -104 2l-90 -4l-23 -49q-82 -173 -173.5 -396t-111.5 -298q-6 -24 -16 -42t-18 -18t-17 6q-7 4 -5 17.5t17 66.5q31 100 134 350t155 353q5 8 -2 8q-6 1 -37 -2q-102 -7 -131 -7.5t-39 5.5q-14 7 -10 18
q6 8 78 11q36 2 119 8l47 4l43 84q29 57 39 70.5t22 13.5q20 0 23 -10q3 -8 -35 -82q-37 -72 -37 -74q0 -4 92 -4q68 2 82.5 0t24.5 -12z" />
    <glyph glyph-name="bullet" unicode="&#x2022;" horiz-adv-x="280" 
d="M139 539q-38 0 -65 27t-27 65t27 65t65 27t65 -27t27 -65t-27 -65t-65 -27z" />
    <glyph glyph-name="ellipsis" unicode="&#x2026;" horiz-adv-x="444" 
d="M61 455h-2q22 9 39 -4.5t6 -30.5q-6 -9 -22.5 -10.5t-26.5 6.5t-8 21t14 18zM203 455h-2q22 9 39 -4.5t6 -30.5q-6 -9 -22.5 -10.5t-26.5 6.5t-8 21t14 18zM344 455h-2q22 9 39 -4.5t6 -30.5q-6 -9 -22.5 -10.5t-26.5 6.5t-8 21t14 18z" />
    <glyph glyph-name="perthousand" unicode="&#x2030;" horiz-adv-x="1069" 
d="M510 1036l-2 2q-130 -117 -172 -75q-22 22 6 81.5t80 102.5q46 37 82 37q27 0 49 -25q15 -15 10 -47q-3 -22 -11.5 -34.5t-41.5 -41.5zM399 1059v2q-29 -41 -27 -65q1 -7 5 -7q8 0 72 53q39 33 52.5 48t16.5 28q6 33 -14 33q-18 0 -47.5 -25t-57.5 -67zM1016 1217l2 -5
q7 -7 -8 -23.5t-82 -74.5q-231 -198 -733 -706q-86 -86 -111 -105t-37 -10q-8 7 9 29q27 35 294 303q265 268 438 426q194 174 211 174q9 0 17 -8zM649 545v2q56 0 17 -80q-29 -58 -84.5 -87t-87.5 -3q-36 29 14 108q24 39 53.5 64.5t48.5 25.5q16 0 19 -16q3 -14 20 -14z
M580 430v-2q56 50 47 92q-4 19 -11 19q-14 0 -54 -53t-40 -72q0 -18 26 -7q15 7 32 23zM909 545v2q56 0 17 -80q-29 -58 -84.5 -87t-87.5 -3q-36 29 14 108q24 39 53.5 64.5t48.5 25.5q16 0 19 -16q3 -14 20 -14zM840 430v-2q56 50 47 92q-4 19 -10 19q-14 0 -54.5 -53
t-40.5 -72q0 -18 26 -7q15 7 32 23z" />
    <glyph glyph-name="guilsinglleft" unicode="&#x2039;" horiz-adv-x="567" 
d="M502 909h2q16 0 16 -14q0 -20 -60 -57.5t-220 -114.5q-138 -67 -138 -72q0 -3 25.5 -9.5t38.5 -6.5q12 0 127.5 -28.5t144.5 -37.5q49 -17 49 -30q-1 -5 -4 -9q-7 -7 -12.5 -7.5t-15.5 5.5q-16 8 -103.5 30.5t-156.5 35.5q-78 15 -106.5 24.5t-37.5 22.5q-3 4 -3.5 7.5
t2 8t7.5 9.5t15 11.5t23 14.5t33 18.5t43 23t56 28.5q218 109 246 137q10 10 29 10z" />
    <glyph glyph-name="guilsinglright" unicode="&#x203a;" horiz-adv-x="647" 
d="M590 782l2 -2q16 -16 -6 -34q-35 -28 -293 -144h-1h-1l-1 -1h-1l-2 -1q-157 -70 -190 -82.5t-44 -9.5q-8 4 -8 14q0 12 117 64q277 127 346 162l31 16l-19 8q-22 9 -131 41q-126 37 -170.5 54t-46.5 26q-4 17 12 17q20 -1 82 -21q98 -30 123 -37q60 -15 126 -38t75 -32z
" />
    <glyph glyph-name="Euro" unicode="&#x20ac;" horiz-adv-x="690" 
d="M625 1016v6q17 -27 18 -66.5t-14 -42.5q-14 -2 -20.5 7.5t-6.5 31.5q0 23 -15 48.5t-32 31.5q-38 14 -124.5 -48.5t-158.5 -156.5q-30 -43 -30 -45q0 -6 73 -10q75 -3 82 -10q12 -16 -7 -19q-15 -3 -58 -2q-74 2 -95.5 -3.5t-33.5 -28.5q-22 -40 -19 -46t43 -6
q37 0 52.5 -6.5t9.5 -19.5q-5 -8 -64 -8q-51 0 -60.5 -8.5t-19.5 -63.5q-12 -58 10 -117.5t60 -73.5q28 -8 39 -8q15 0 67 22.5t74 37.5t35.5 15t13.5 -15q0 -20 -67 -55t-113 -40q-26 -3 -59 5q-32 9 -60 36t-41 64q-14 42 -12 104q3 60 8 74q3 6 0 8t-16 2q-23 0 -31 8
q-16 16 11 25q11 3 26 4q22 1 28.5 7t18.5 32q19 38 19 41q0 4 -50 4q-36 0 -42.5 2t-6.5 12q0 11 8.5 13.5t51.5 5.5q61 4 63 6q3 3 19 31q23 38 74.5 95t93.5 91q89 72 156 79.5t102 -50.5z" />
    <glyph glyph-name="trademark" unicode="&#x2122;" horiz-adv-x="665" 
d="M610 1219l4 -5q4 0 5.5 -2t0.5 -6.5t-3.5 -12t-8.5 -19.5q-4 -13 -18 -37q-5 -10 -16 -32.5t-20 -40.5l-11 -22q-45 -102 -41 -114q2 -4 -4 -4q-3 0 -4 2q-2 2 12 47q19 56 80 172q11 20 17.5 34t8 19.5t0.5 5.5q-2 0 -47 -39q-43 -43 -129 -137q-15 -18 -22 -18
q-8 0 -8 8q0 15 22 88q4 11 9 26.5t5 16.5q4 13 6 23t1 10q-5 0 -27 -35q-30 -40 -74 -117q-18 -31 -37 -69q-1 -1 -5 -1t-5 1q-3 6 41 81q79 142 100 152q4 2 9 0q4 0 4 -4q2 -10 -19 -82q-9 -30 -16 -57t-6 -27q3 6 26 33q11 14 76 82q45 45 68 63q19 17 26 17zM395 1186
l2 -4q-4 4 -86 4h-73l-7 -2l-24 -41q-25 -40 -33 -53q-50 -88 -72 -148q-4 -14 -2 -16t0 -4q-7 -3 -10 0q-5 5 23 69q16 39 88 164l20 35h-6q-19 0 -59 -4q-72 -8 -88 -12l-15 -5q-1 0 -1 2.5t1 4.5q3 3 43 8q61 8 117 12h14l4 4q3 6 7 6q2 0 2 -4v-4h10h45q92 4 106 -6
q2 -1 1.5 -4t-3.5 -4q-2 0 -4 2z" />
    <glyph glyph-name="notequal" unicode="&#x2260;" horiz-adv-x="595" 
d="M209 594h2q-78 15 -106 24t-37 23q-3 4 -3.5 7.5t2 8t7.5 9.5t15 11.5t23 14.5t33 18.5t43 23t56 28.5q216 108 245 137q10 10 29 10q17 0 17 -14q0 -20 -60.5 -57t-220.5 -115q-137 -67 -137 -72q0 -3 25 -9.5t38 -6.5q12 0 128 -28.5t145 -37.5q49 -17 49 -30
q-1 -5 -4 -9q-12 -12 -29 -2q-16 8 -103.5 30.5t-156.5 35.5zM537 440q14 0 14 -14t-14 -14h-471q-15 0 -15 14t15 14h471z" />
    <glyph glyph-name="lessequal" unicode="&#x2264;" horiz-adv-x="503" 
d="M449 801l-7 -6q15 -15 -7 -20q-24 -6 -122 -9l-51 -78h80q76 0 88 -6q14 -7 14 -18q0 -8 -15.5 -9.5t-88.5 -1.5q-67 0 -102 -2l-84 -127q-3 -6 -11 -6q-4 0 -6 2q-14 7 -6 23l72 108q-89 -3 -123 -10q-19 -4 -27 4q-11 9 -9 18t15 13q29 9 164 16l53 78q-129 -4 -149 -6
q-36 -3 -47 8q-17 16 5 22q30 8 216 13l76 113q7 14 22 6q6 -3 8 -10t-1 -13l-64 -94h59q40 0 48 -8z" />
    <glyph glyph-name="greaterequal" unicode="&#x2265;" horiz-adv-x="661" 
d="M604 782l2 -2q16 -16 -6 -34q-35 -28 -293 -144h-1h-1l-1 -1h-1l-2 -1q-159 -70 -190.5 -82.5t-42.5 -9.5q-9 4 -9 14q0 12 117 64q277 127 346 162l31 16l-18 8q-20 8 -132 41q-126 37 -170.5 54t-46.5 26q-4 17 13 17q19 -1 82 -21q103 -32 122 -37q60 -15 126 -38
t75 -32zM535 436q14 0 14 -14t-14 -14h-472q-14 0 -14 14t14 14h472z" />
    </font>
</defs>
</svg>
